<mxfile host="app.diagrams.net" modified="2021-08-12T06:18:10.196Z" agent="5.0 (Windows NT 10.0; Win64; x64) AppleWebKit/537.36 (KHTML, like Gecko) Chrome/92.0.4515.131 Safari/537.36" etag="D9B688btnHPN1f0DiOne" version="14.9.6" type="github">
  <diagram id="q1qUWlTz2uKj9zPOFnIE" name="Page-1">
    <mxGraphModel dx="14834" dy="12711" grid="1" gridSize="10" guides="1" tooltips="1" connect="1" arrows="1" fold="1" page="1" pageScale="1" pageWidth="10000" pageHeight="10000" math="0" shadow="0">
      <root>
        <mxCell id="0" />
        <mxCell id="1" parent="0" />
        <mxCell id="4Lbp2o1K5ANA3TBx9HFM-1" value="" style="shape=image;verticalLabelPosition=bottom;labelBackgroundColor=#ffffff;verticalAlign=top;aspect=fixed;imageAspect=0;image=data:image/png,iVBORw0KGgoAAAANSUhEUgAAAbwAAAYzCAYAAACP8YhcAAAgAElEQVR4Aey9b2xU173327d9c19dXV3p6r650kyhBMb5gwn5QwyUACYNpgQCcVKME0zBFBuS2gkhGJPGnAPmaeDh2ic884hnThucS8chQ+m4DXPkMgVNfTRRUqkCnepESBWVkFCrkCOlVKn0vVp7r7Vn7T1r/uzxHjN/vi+G8czsvfZav/Vdv8/+rfVbm288/PDDML1CoTD4og2oAWqAGqAG6k0Dy5cvh+n1DRPsxHffGPoDX7QBNUANUAPUQN1pYN5bSZheRYH3zdX7wBdtQA1QA9QANVBPGli05TWYXgQeoc6bGmqAGqAGGkoDJtiJ7wg8Cr2hhF5Pd6GsK6MmaqA6GiDwCDaCjRqgBqiBptAAgUehN4XQecdcnTtm2pV2rScNEHgEHoFHDVAD1EBTaIDAo9CbQuj1dBfKujJqogaqowECj8Aj8KgBaoAaaAoNEHgUelMInXfM1bljpl1p13rSAIFH4BF41AA1QA00hQYIPAq9foX+3h/xBQD86Xc+2vABProjTvoaN5JjufMqKmsO7+7noH7zJ2/hb8I0f72O1xtiXBTo64Zo2xxqr4HsReA1UGfO5dTC6599JVyjBY7fxcodfGP44M/ytP/64+ydakUQKOAEKyqrdLt3/fuXdoO/uonDs9FaleqnayZQ4P36tuxoz9vfv8Ltm9fx7tG3czcbs7FL0XML9HXRc0r3qW4z/h28vf7vzW9h1Wun0fnj/4Xuf/4Ztv/zz7D17bN4qu9d/J/fe2NWuiHwKP6KBJQDHoD//C3ml2PHE9fhuMH7BrwCA7QqQPkAv/przuF/9tEsnHxV6lfAFuX0ZaljFPD+8TX+9pX2+oeyx1eY/h+zsEep6/P3isb1/QZ4667jFuB6T56H6bXtn36Kh3v+ueK2EXgcGBWJxwbe1/jiv4QD+ws+GirlPN/Gv/ynOFY4PwDNALzYTTlF+KU99frnT7C2Ur3VKfC++Czh0dco+q/9xbbLbKPeSm3J8zx9Umrszs3vAnavHD9nBJ0Ov5ePv4/FPzhWURsIPIq/IuGoCO/mn/9i3bL/7Q+/LF7OG5/gpjjyz7dxQ9zlNwHw3rUAD3w2+Uv8zpoB/gs+eKNC59EwwBPtH8NHVqj/NX73foX24LgtPt7qzD6hF4fx4juxkrBT4Hvhx/8L/8/WId82IPCKCWN7AtN//RLTsVHfhv3m6jP4l//8EjfTk+VN97nqMYr+5B9x4+7XFkysf/7xNb7403W8642kdEf4w0l8cPMr/E1NG/3XXzD98zN23bdP4oP/+BJfqN/+8RVu/Ps0OlzXtZ3Po2Of4LM7Wjni2ndu4l3NWSvg3Uj9Fp+JMv9xC/+yvbDzOvwHuy2fffQJbogGFQDeo2O/w/SftGsD+Nt/fYnPUpN41FtXve2rz+Ddf7+NL/6eM9kXd27hg/+eP2129k/imK8w/Z5WX1dZ2vfWNUfRn7qF21Y0a5f/t7u38avJnxbu2+3SLjKKUfa6/e8fFNVSnu3/LvupQP1ybXkbXZN/xE1VR9FnNz9Bv+yTjp9fd+npbybblLzGPoj66boUdvhgzDA+5JRmfoRn21bZ48avla0TmLbqfhtnV7+N/tRtqdWvMD2mjtmH+Ucv4yOhY62fIW3UZdBfzj65Mu73tB2vn98Xbf0n8YP/9kHZwBPHPvHD/1Z0LJnsTOB5naj2ef7RT3DDGlhf+YSegJ2d1PG3m78zQsXUGc53zvrHV7h58zZuiNdfJfy+uol/0ge2clJ//iOm7wK4+xf7+DsKlmKtJGH/9g9Z3p++tKeUAHzxiXvKqePXt+3f/vE1bv/JvvZNC7xuQOgOS/19My3hqtnQapPL+f+uAPDeRn9aTnWJet2R7RZ1lZD+2588tlRt/9PvcfZPXwOuOivw5a8VGZ2gU5Yn43P7JD76s7L9l7ZtnTp9jRu/Nrd57bQn8lXrlwVAL+zk2F5AXrX/ttTRX+W0qCcjVbXls89u429O+//i3NgI/fXLPlVlOlD8+22c1W5ivlnABuoav/vE1sYXt5UulI2/xK9OeJxYCeD90w15AzSpzssB76Ok1KBVfE53HT+/aU8NC/sond/MtRV3/4jX9bGxeh9U3V03N1598rNvcDi+KgDb/R8b3kDHwTPofde8bqeiOtf7u+fx7Jvv4X9fP+ir7gReiQ7zD70c7L74z9/6h52ozy/+iBt5Ec3bePc/bSdx49da1KKclHACruu9DQUi/P1r4Ktb+BctOpz/P2RK/z9u4V3HBrmpN++a3KNj0/inY8o57XPKtu7Q1XRlgTWZjrTt/G9Oi20AZuA59fn7X/CRNyr74S9tYAO4ndEiJK3twtkd/mGuft9crbX/r9exy2ljASeoyvIARdnwixueaHjod/bN0D880LCu81OZrKKDQH33NYxZrUO/t6d8ReTpmVGY/99/j5sqovHUz3boggxf4le63VT9xJrp34Hb/67PNJxxsmVvZ36acxgFbOBc4x/eup2xbzSE9m5czpUjbFAMeEOf4KZ1E6NP8SrgfYnbf/0aN68lsFaHl3POV/idmrVQfbr9p/hA3PBYY2DaFXUTePqYqM2//6/n3sSmw/+z7OhOgU+cI871A18CTw2aIu/lQ+8M3r1h35FXDLsi9TA6EeWkoDsPKew3lBMF8jMElQPWp4wkjEQUWaweqz3AW52Dcf51JESdKU8T8HLbFfLPl20Z+r2d4alD1Wm7DhZ9UKssyS/xKw3WRieoytKBsl2zh+58pW3UlgPXDYj4TUVzHtCqqM+U1arAWmjKs+Oa3N6g18+JYADTGqqKosS+Oh34loOYvGUBAje1iNZkA/0aNy67YGKVo865+0f065oxAe+HZ9D/we9xQ067umcXFPDMWb9qSryQfb65fRr2Thn3ODD2tV5P/u0LGH7gUu6xYqvBxkNR38AT5/jdpkDglSt4547Ze5erHGzAsNs+htc/+gS/+sNt3Lj9lZXabXsoz0Zr5XD+eh1deW1RTuQv+MDgsPOdwU/lpmzgixu/xS5XxKTaab8rB+2swSgn78lEnP+R7Vhzazkm4E3b64BFQWsAtGq719lqdsirp+PAc1NlLsetAyVpb6LI1d1tA+MNyOp9UM75Zlrb2C7qpCJh3MZZV3+otrnB7HIYqq16/Zy2iMQYT91W78P8lB1ZG+tvKs/0nXaNG8n8axSK2JVtHM16/rj9B0/EvFpp1ZTIouzzF3ykT8Fq/SxspZKE9Hrma9zUBn7n0prHrtX+7X9b9xqe/tFp7P7J/1c29MSx4hxxrp/6EXh+Orcg9EZxWG7Ezpv68lO+PFasVdxWySVimuarr6z1tM/keo7rySIFnJQtAuVERCJA/qA2OgOnjbaH+uJPf8RZQ1JCPkhUlKZP2akIS7/rNgDvmNyfZ4R2rt559S3advu8/HqWP6XZlZFRlcdZ533Uo6TVl4tkZKqtGYA9vavaps4x95PVlwXammcTvZ9NUZb63VSe6TsHeJ4bBFVOgSlqB3hqH95/2eufn332Cf7JuOlcadUENXlD5Jp+V7bLvZfd107dc+f6cZo8Nni7RV45ipePvV828MSx4hy/fUHg+RW/AwQV6QULOycK+PuXmP7oA3dmonRgVQWesIeILpM3cxl/IonkP9zrkSbnMv99ue9MbURX+9DUZ8vWBuCNyfXEGgNe/ycqYUQm0KgEIu/7tdyWDBXR5kHR+4VrmlGbOi2kx0pgVAPAM0aXxjYq4JmgL+1D4Pl28H6BcL+OF8kn694YLyvKE9HdutfHfSesiLYReMbBV+IORoPejZtyzc6b1FBJuav3Ya1M8HAlE6iy5gp46nqrRRp6LmFCj0pMwPvmaj2iUxGfd33NADwVJRSd0lR7t7RpPwWB278vuKH7rLX5zz1NZoyKVFn6lGExYGg2yjkJ1WZAJAq5njCS97QR3S7K2Zunnq3y1c2EXr9S0Vex+pvaa/qu1DVU33mzT4td22g7ZQMT8CZl0pIp+suNVbVmqU/vGvvaeP1cObn+5HdzaQvxSDGRrbn73cJTm+I3cYw4tpK6EXiVit+BHvDFZ790R2KVlpmXDKIPuNx0WNUjPE/9nahFm7ozA28fVGLG7c/+KDeae58uYgKeAsXX+GxSy0DV66GyGPXISDloU8KOOFdth3ASZmx7Gp2gKksHijbVmpf0oddN/a3W6EpEImqNL5do8rZMn/dOdar+fxvKmbv6vhSMikHH1F7Td6WuMSfAy62LurJ0ld2tvpbTwuX0tX4e/64IHJXAppxzxBaFFftPGR8vJp6pKX4Tx5RTlukYAm82gv/hGXQdOxMY7EQHqQgPf/7EtaWh4+e3nD1ILqdXwEnZnV3srtm0lpXAu4bN1GpbgT49VQh431yttjbYc3j5WZcm4O2D8+Div9/GB941HrEtwXomZYH/4UCsc/7pE7g2Hmup6nq9hV3KBt7qMQdEppua+UenMf0fv3cegq2yNvNS9L0aUwk+mnMu1n59/5mr7wu1RV2vgYDnZL4atm18c/tP8S9yy44787NAXyv78L1icJhgEvR3i14ewbK+d62X+DuI8gm8WhP9G3J/l+CF2lxrbSL/Gjf+ZEhNDxR4EkZ/1za8q0QZsUlZ28dXGHj7oBy/MR2+UEQg9s19kksSMW08v/1Jwp0Wr9ouNkKLfWpqY72+GfmvZW5GVmXpEZ7QhhbJiyd6OA8CUBv7nQxRdXOhJ+2oCM37rrIO9e0iY3j3P+zpcdH1anP3DdX3n8kbHk/9jPBWmm4k4Hk35quxofW16SEPRe2j7MT3QGASBJCqXQaBV4Nin3/0t/jdnZzzg3hEmIi8pANz3eUXctRWu5QTNq2LmO5+P8BZw2Obbv/HJ+j3bFEoBrxvCmj/o9D0nDnCU0LviP3e8FizW/jofcNjvPS2D01jWsFZEMPv46b0sryaEI9sM9jl5h8+wesDcgpWJejo+wS95Wif1dSviORzD5Qu8AgzsdG6QP2KOvQGA57QyPz//tv8R8/dvY3ppOHRc6UiYK0/lP747r05a6zPBB5F3zR3d3RmjeW8yulP54ZAex5nOefxmMbUCoFH4BF41ECDaiCXyJJ7fF5jOnICurx+JfDo7BrU2ZU3AOgoGtdOHfJJM6ZHubHfG7ffi/UtgUfgEXjUQINoQPx3XjKxSK3nepKtijlD/tb4ECTw6OwaxNk1/mClQy7Vxz/N/VdOVqbrH/Gud4sLx3tTj3cCjwOgqQcAIVIKIvydGmkcDRB4BB6BRw1QA9RAU2iAwKPQm0LovEtvnLt09iX7slINEHgEHoFHDVAD1EBTaIDAo9CbQuiV3hHyPEYT1EDjaKAi4H1j6A/gizagBqgBaoAaqCcNzHsrCdPrGw8//DBMr1AojGZ9bdmypWnb3qx9znY373hn3zde3y9fvhymF4FnADuB13gDgE6NfUoNNI8GTLAT3xF4BB6jWYMG6Bybxzmyrxuvrwk8H06NEV7jDQA6NfYpNdA8GiDwCDxGcj40QOfYPM6Rfd14fU3g+XB2jPAabwDQqbFPqYHm0QCBR+AxwvOhATrH5nGO7OvG62sCz4ezY4TXeAOATo19Sg00jwYIPAKPEZ4PDdA5No9zZF83Xl8TeD6cHSO8xhsAdGrsU2qgeTRA4M0R8CJbjuDoYDujKR/2piNqHkfEvmZfz4UGCDwfDrjyCG8rTvziGq5d+w3OHaoe9IYns8hm04h2V3fwbPrJFLLZLDLnh9Hm2G87otPi+nEMO9+VUY8jcaus9JntNXEzYG5bGe3w02YeWxN9PRcOlteorbFD4PlwPpUDL4zQmtcRuyygdxmxKkV6DQe8JdsxfCaB1NWMBUUB2exMBplUAmP711XFaRJ4teWgCAz2R5AaIPDmCnjiOlWG3lwBzyzAYCO8yI5xpGZExCghdzWDjHhl5HeTw1UBnrltlTqdPTh5MYXMx+Po8qGzYOtQad15Hvuh8TRA4PlwRLOK8NR11uxFNCkivSSie4Od3mwY4EUGMGGBLYXYaxsQUbaT74u3jSB+5mAdAG8YcQHs6SiB5+lDwqTxYFIPfUrg+RiIgQBPXK9K0GsY4PXFkBFrhBMDdQC1Yo6LwKsHJ8g6FtNwY/1G4N0P4FUJejrwIi+MYGIqnVv7yqSQOL0P7Z72dp2xj4kfMQm7wDSlMdGkwLHW9VrQ8do4EiltLS49hYl3OhExlTVkJ7L4B14ruoai7usIcKYmMPw92T79eu37EL0k63ReTpHqvzu2cretfX+BtjjHS9CJ6M77qoupWJMW+B3BWP8aIPAcJ1W6MwOL8NQ1l+zCuJzeHN+5eNbRjAO8d6JICUebSiB+Po74hSmk5XpYZnLYBb3qA68FPeMpx/GnLsatOiUkjJNT9m+uLM0VI0hYoEghuru1PLtEenBySsJrJo3kBfs68fMi6SWFMZW56gBtGGMpDUgKRM7vetZoDnjHj8St6DM9JW17UWvbmR45/boHJ4Xdz08hLdohbjasz3HEf7KnvPYojfCd9qIGAtMAgedDTIEDT1zbgd5HONFRGrrF7jJt4AknnkH8Hc/aV/sw4ta6WAYTgy2OgKoNvEhfTDr9OEY6ctcV7WjfH7PBnM3CBTzxmwSLiJDS50fQ85T7XLcdWjAwYcMuc3EUnZEidlRA+ziFTCqGgU0eoKrfXdskFPBEAk0+hCM75A1Gdgonn9evzSlNdz/ptuHftM3ca4DAqxngJXHqhdkJQAEvM3EwL9FDDK7IgYm8tbHqAq8Fdp0ymDhgAlYL+mM2qLzAC4XENGgUyau5KCx1fgRdSww2en7cBmc6hv5isBN9LYGWzaYw5oKTLLcE8FKnNzs3C7rD2nTajvSSpzZovxN4uo34t0G7PvwP7Td7+xF4PgQXeITnRHfBbEhXwIsPFRBGRE4ValmD1QWezLbMTGCgkJ2NgNHqH9mA3tF4botCNoPEsU4X0DtO2Rvh3bDRytCvrYB3aVTbNK8da6yPivBSGHtJO1Yvd0fUjmTV1Kj1G4FHJ11AL7p2+Ld2k1hdexF4PsQWKPAChp1wLDbwij1pJd8BVxV4K0aRtNYSx9FZyM5GwBhEL8Gn1iJTznpZ2IkSC4Jev7a8Xia2zzzIjPVRwCvyFJluAo9wM+hW1x7/No+5ObQLgefD2IEBrwqwq0ngKQgUiqaE7Y2AKew4Ih0jSFhrkbn1suHz9rrlxGDh8xxnXOp6xt8JPMd+PsYLzylDj7TnnEKQwPMhuECAVyXY5YCXQayvwEB7Sa51aQAqHuHtQ8xaQ/NENmVDIRdR9hSwc9sxezoyfw2vQBtCYfRE3VspVBuSx5aXHjzGumvXMv6ugDeF4yu0Y/U2qa0Ursgx134+aaWA3XQb8u/S+qWNZmUjAs+HgGYNvCrCLge8LNJnzanvKrFCT7xQ61/paE++kFQyiPeB0EWhoMNRgSKN2G6Tw1uH45fspBQ/wFOJLs4Uptyonp06iU2l+tNYd61uxt9VO7JIHDVBtQVvWlmi3uQcAo9RnqatUtrk7/k+KGCbEHg+DDor4FUZdjrwRAaid//a4t0ydT4Tx7AepezObRsYbtcGZ6QHUWefmg6xQtOQCgruYzfJhJJsKopeV4ZlCzqPJaysUWvrgb4NYCiG5Nlh9Kz2bBkIhbF49ziS1pRmAiNOOzbj5JQNzlTMu7m+Fb2nJ3Aybx+evs9Oa3cJ4GUz3u0VLeh4x96bl/8IMQm8zATeLJU96kOHhIjWX7Rb1SHRSHoj8HwMmMqBtxWn1H8PNLzelWEYpJhU0kr8vNzMLTdHq03e1v68I97/ZWAdhidzG7btDdIJKysyMxlFzPRf/hSFght4odB244bwhAXTFKLRhLUp3RXhyfKtp5Rk5EOjrYdHqy0KGcS97RD7DNUWhhm10TuBZFqcoyXyGOuuOVDj7wrmU4ift23lbKBXNwUzKYzt8G69WI6Ri7LO02KjegKpWD089Fqzh4/xEaSWWRb7oBoaIPB8DOjKgRdGpPsExqsIOyEOBbxodws634kjZUVCtsNNT01gZFt+xGSJKtKJkfdzT2PJiieVvD+Czohy9B6IFYWC51hh38gGDJxO5NfnhRZz0kr7Hhw/m0ByOoOM+h8TRLbn1TSS58fzN4urPlT/nZDW7sz0FCaObsdidYyx7ppzMf6u22Ed+kVbVL1mMkhdGMeAZ1O9M1jF48su5h7xlj5b788H1WylbMp3Rll1ogECz0dHzQZ4jgP0cT2eUyvOVQderdSJ9eD4oAb8aoDA8wEgAq9ZBxiB59ex8PhmHSu13W4Cj8DjdExJDRB4BFhtO3L2T3n9Q+CVdHY5QzLCy9miuQYYgddc/d2sOm/8dhN4BB4jvJIaIPAIvMaHQTP0MYFX0tnlhM4IL2eLZhgcbCP7mxpoLA0QeAQeIzwfGqADbCwHyP5srv4k8Hw4O0Z4zTU46AzZ39RAY2mAwCPwGOH50AAdYGM5QPZnc/UngefD2THCa67BQWfI/qYGGksDBB6BxwjPhwboABvLAbI/m6s/CTwfzo4RXnMNDjpD9jc10FgaIPAIPEZ4PjRAB9hYDpD92Vz9SeD5cHaM8JprcNAZsr+pgcbSAIFH4DHC86EBOsDGcoDsz+bqTwLPh7NjhNdcg4POkP1NDTSWBgg8Ao8Rng8N0AE2lgNkfzZXfxJ4PpwdI7zmGhx0huxvaqCxNEDgEXiM8HxogA6wsRwg+7O5+pPA8+HsGOE11+CgM2R/UwONpQECj8BjhOdDA3SAjeUA2Z/N1Z8Eng9nN5sIL7LlCI4OtjcHXI7Ekc1mkT6zvTnaW1RDAf7nsbQr9VRUa80Fr0puVgg8HwKqHHhbceIX13Dt2m9w7lATQI+OWXPMBF4ljonnEF7V0ACBNyfACyO05nXELgvoXUas0SM9Ao/A8zGuquHYWCaBadIAgedjYFYe4UnxNQv0CDwCz8e4MjkmfkdgVUMDBJ6PgTlr4IlrrdmLaFJEeklE9zbo9CaBR+D5GFfVcGwsk8A0aYDA8zEwAwFeFaE3PJlFNptGtDuMxdtGEE9lrOQRkUCSScUxsq1Vc8TagIhsQO/oBJLTueOzMxmkLoxjoKPFfE6oBR2vjSOhXSObnsLEO52IFAFepGMAYxdSyMyIumaRnUkj+f4IupZo9fHRJ7k2i/pEkUircjNInR9BZ8Qut32/u67pqQmMvGBuW6RjD46/P4V0RpYl6nk1hcTpAXTI8vIG05LtGNHPkfbrbzev4XWdSVvtjx8xtdt8TqiIXUORDRg4nUBKq7PVRkOf5/WBpY8ERrpNdeF3eX3tQ588t7b0Q+D5EG9gwKsS9JTzj43HkRFZkhfjiJ+PI5FSjnsKJ5/3CLB9H2Lq90wKifPec1KI7vCCoQU94ykHpil1nSnbiSen7N+8WZrt+2NICXhks3DOUddORdFTCCZF+shp85k4MgKeF0T9E0hJoGbOD6PziLTHVMK2x7S0RyaO4RVue+h1zKTs4/XysqZ6tg8jflWWmZ6SNpR1yEwhaV0vjmGtHYECT+9DVeeLqn/c/RfZEc3vA9lvZvi67UMHTnvUswYIPM0JlerIQIEnrrtkF8bl9Ob4zsUFIqnyB5jt/EXUlEJ0tx7NrcPwpB29ZWL7tOusw8gF+/tUbB/aXbZoQcc7NiiymQkMaDCK9MWQFuDKxDHiiQB1YLiAt2IYcRF9ZBI47oqsWtBzxgzIUv0hfnfanJ3CSb1cASEr2skgk8kieaoTEad9uXYnT23I2aN9BAnrnBRi+9flvhfnRTZgRNlwYsBV1vFLEuLRPVjsXEOc04njF1XUXC3gLZd9m0HimN7GMBy4TUfRZdVrOUYuirqmEetz38SIqK+fEZ67z/W+5N8NYRsCz4eQAweeuLYDvY9woqN8uJlgoJx/OrZPc8iyzO6oDanUODpVm3dLcH08jk3qO9d7C/pjtsNOHF0uBd8iIZPBxAG307TrlDtHB56KaJLHPCAR14scxIQAjeOYy7eD0+aze/IGpKp71tS+wQkrCs6eH3bO6z1rR6ip05ud71x2juxDzIrkEhhRkaGyq+kaom3to0haUW2VgKeuf2nUc8MibNiCNydE/9nT3KGQmiqdwnFVf1d/l293l11YhlkvtEvN2YXA8yHK6gIviVMvzM7hKOcfHzKVM4y4cLwaVDpOTVnTi8ljCmaG8/LAMGDDSUR9hWyXt9bUiTFr6jKBES1SzDlN5YjdUMj9bqiXvLbd5gwmBvOPibyTsNqXjvbkDzwFikkFvA04OSWin+IwGLAAkoWysWNDPVJ02cXcNnUDYJ5GNJ9jWsPrlFPLiXdMNx9heK8z8L59A5O5OIqep8znlGN3HpOvN9qk9m1C4LmcU/EOCxx4TnQXzIZ02/mru3lvW/KBZztvMyycwesFwwoZseiRoteGecCTkJTrd1ayivHvFMZe8ta7+Oeibc6rh1aWt12hMkAeygeIiiIVAB27OTYxw8sLIvd55nNMwFMALmxTOd063mlDP9KDsY/t78Q5IrHl+J4N+TMCTv01m/G7/Bsn2qSubELg+RBsoMALGHbCYRZ1/qF84A2fF47PJ/AUKC6Noq2Q7fJAI689k3aSYkQyTf4riuHv+XOwRducVw+tbNUOJ8KTdSwWuRqAZ18/g1ifVrbLLmZ4BQU8uw9zCUr5NrXtHB3S1ipDrdjUN+rO4r10sqKkITeoC9mA39NOtaEBAs/lnIp3SmDAqwLsKgGemg4rOqXZF7PWujITA/JOLgfOngK2aztmT5Xm1vCU0y80pVnc7sWcRXDAU9Ouxac07Ygud5OgwFVoSjEUUut+7uladZ55StN8jinCU+UUvn5x24pklZiM+NKGddBitudvxW1L+9SefQi8Ak7bJNZAgFcl2In6FnX+hggvpJJWpk4WSVoRiRx6goqCVxqx3SZBr4PKWswBLwxn+tSY6GIqp7zvirbZV4QXhkpaSSyE9aMAACAASURBVJ4qkrQi9vllJvCmXItUew6zF0eMEa+T0Zp1A0+t/RnXF58fl1sH3OeYgBeSa6yZiYOVT0uq6xWbpvYxTkxjh9+Vp2faqbp2IvB8DORZA6+KsKsIeKHNMlEji5Q3pV5sLH9rwsnstNPabTFukskuYk9ar2vDeAs6jyXs7Efv/5agphANWxlCoVZ0HY0jaky2KT4AggRe6PmTMqPSu63D3pbw5oTM4hzX/heIiFqfzCD+jmctTN8f5wGec7Mh9gK2a22M9CCq9iZ6zzECXN2AGK4fkg8giOYSc/pf2+7eOhEKw4Hy5HDl0PQxjujUtf6m3eZ0DZDA8yG4WQGvyrCrDHgibV7bNG3aeH7V45Ate23HySm5v8zZ7K02uKcQjcrsSNd/D+TerJ6Wm8D1Td2FEz8KO4hAgRcKo11uUhcJHaaN52Iju3u/Yhhtg/LGQCTiqI3fF6aQnskiMxlFzLDxPBTK7Y0UT5uxN/zbm9ULnmMEnthvN+5stBdPu8l7eICz9ULCUeuzuKxnNuveoE4oFdYcbVO/tiHw5gR4W3FK/fdAw+urdhdd1PmbpjRV2yOdePNMAin1tBDhuMWjtM4MF37kV6FHWYnN3wUcs9gXlvc4spkM0lNxjA1uzos8ynEsRdtcsB5hhFTE6SSt5AZx5IWDiOqPP5Pwiw7lR0eqjuJRbhPyiSVWxqS4eTgtNvOrCMwzPSlsH+m0H0fmecxaZ6TAOUXaY3xc2PQU4qcHsMmJwpej/5ToZ3mzIvq55CPkcnZRbeU7bVKvGmgY4H396KPgizagBqgBaoAaKATkhgJeoUYG9f2spjRVNMX3EnP2m9H/zghGSrze3FFkszxtXMLGjFCC8gksp/a0JG54CvULgefDORJ4cyFuue3BuDFd2zDtWh+ci3rxGoWcCL+nNmpJAwSeD6gV6zgCjwO7mD74G/VBDdx/DRB4BF7BEJ8D9P4PUPYB+4AaCE4DBB6BR+AFpAE6puAcE21JW1ZDAwReQM6OU5ocoNUYoCyTuqIGgtMAgUfgMcILSAN0TME5JtqStqyGBgi8gJwdIzwO0GoMUJZJXVEDwWmAwCPwGOEFpAE6puAcE21JW1ZDAwReQM6OER4HaDUGKMukrqiB4DRA4BF4jPAC0gAdU3COibakLauhAQIvIGfHCI8DtBoDlGVSV9RAcBog8Ag8RngBaYCOKTjHRFvSltXQAIEXkLNjhMcBWo0ByjKpK2ogOA0QeAQeI7yANEDHFJxjoi1py2pogMALyNkxwuMArcYAZZnUFTUQnAYIPAKPEV5AGqBjCs4x0Za0ZTU0QOAF5OwY4XGAVmOAskzqihoITgMEHoHHCC8gDdAxBeeYaEvashoaIPACcnaM8DhAqzFAWSZ1RQ0EpwECrwaAF9lyBEcH2xlpBdQXdBDBOQjakrZsJA0QeAE52cojvK048YtruHbtNzh3iNBrpMHFthAW1EBtaYDAu+/ACyO05nXELgvoXUaMkR4j3YA0SWdbW86W/XH/+4PAC8i5VB7hSRE0EPR6f5JA6moKY933X+B0MuwDaoAaUBog8GoFeKIea/YimhSRXhLRvfU7vTk8mUU2m0aUwGO0GtD4Ug6L74TXbDRA4AU0IGcd4al6NAD0CDw6pdk4JZ5L/VRLAwSeAs0s3wMDnqhH1aDXiq6hKBKpDLJZEYVlkZ3JID01gZFtrXnRSNeZtHVM/IhpAG5HdFqUEcewtJ0NOlmuKt96zx1TLSGzXFMf8TvqghrQNUDgzRJ0ypiBAk/UackujMvpzfGdi/NgpK5b9nukE8cvStDNpJG8EEf8fByJKRtq2WwG8SPrXNfxC7zen9hlJtMCehmk5DXi50+iNyA7l91eXs/Vl7QbHT81EAaBF5BjDBx4Luh9hBMdsxmwLeiJ2mDLXBxFZ8Rd1uLdUaSsSGwKJ5/P/eYXeGpAcUozZ0NlE77TJtTA/dcAgVcXwEvi1AuzEMuKESQE0DITeNMDOzUI20enrOnL9Nk9TmRA4M3C5gHpSvUP39kX1MDsNUDgBeSYAo/wnCnNADakD04gk80iE9vnwCxv8HzvJJICiqlxdEqbEHizH2B5dg5IbyyXfUMN+NcAgReQAwoUeEHCLhRGxyk7ekue2lAYeKFhxAXwpqPoIvCK2Mn/IKNjos2ogdrQAIFXa8ALGHZioHWOp6zpSgKvNgYdnR/7gRq4Pxog8GoJeFWAnTWwhuIW8IpOaa4Ytac0p06io6wIbx9iV93bEtQgZtLK/RnMyv58p/2pAbMGCLxaAV61YCfapyWtDBRKWjlmT3umTm92pvPUVGg62uN85wyk58dlZmf+HjsCzzzYHNsFpDmWRztTA/40QOAF5HxmtYZXTdhZ7WvBwIS9By8zOYIOD/QW7x5HMiOyOOMYXqEJaHcMaSu7M47hdu37SA+iKbXB3AC88/Y+vIkDLfmgDMjeHOhaf9Cm1Bk1UJYGCLyAhFI58LbilPrvgYbXIxJQffKAEOnB2McSUqaN5zMpjO3wAmodhidzm9UT58XG8gRSM1lkJqOIeZ60oq7ZdjRhTaFmZ9IQ5yQ+jjlPY1HH8J3AogaogbnWAIEXEGAqB14Yke4TGK8m7Jw2rkPv6ASS09qjxTJpJN8fRW+HF3ZyMEY6MfL+FNIzGizfH0FnJP/RYjnxrkP/mUTunHQMA04dOMhzdqItaAtqYC41QOAF5IhnA7y57HBeiw6GGqAGmlUDBB6BV9bcd7MOELabcKAGGkcDBB6BR+AFpAE6xsZxjOzLxuxLAi8gZ8cpzcYcIHR87FdqoHE0QOAReIzwAtIAHWPjOEb2ZWP2JYEXkLNjhNeYA4SOj/1KDTSOBgg8Ao8RXkAaoGNsHMfIvmzMviTwAnJ2jPAac4DQ8bFfqYHG0QCBR+AxwgtIA3SMjeMY2ZeN2ZcEXkDOjhFeYw4QOj72KzXQOBog8Ag8RngBaYCOsXEcI/uyMfuyaYAnGsoXbUANUAPUQHNroNDNzPLly2F6fePhhx+G6VWooGb4nlOajXlH2AzaZRupXWogbISdACCBZ5gCI/DoNOg0qAFqoH41YIruCDwD7ITICbz6FTqdFPuOGqAGCLwCcDMNDgKPA8akC35HXVAD9aEBAo/AYwanDw3QsdWHY2M/sZ9MGiDwfDg7RngcRKZBxO+oC2qgPjRA4BF4jPB8aICOrT4cG/uJ/WTSAIHnw9kxwuMgMg0ifkddUAP1oQECj8BjhOdDA3Rs9eHY2E/sJ5MGCDwfzm42EV5kyxEcHWwnXHzY2yTYuf1uM05OZZHNZhAfWs6+q6u+o8Of27FSH/Ym8HwM4sqBtxUnfnEN1679BucOEXr1MxAJvPrpq/pwuLTn/e0nAm9OgBdGaM3riF0W0LuMGCM9Rks+dEcneX+dJO3fOPYn8Hw4nsojPCkYQo+g86E3OtrGcbTsy9roSwLPhwOaNfDEtdbsRTQpIr0kons5vUlHUBuOgP3AfmgGDRB4cw28qkKvFV1HJ5CcziCbFckWWWQzaSSjA2jztjOyAQOnE0hl5HHZLNJTExjZ1uqOwrqjSItyJocRinRi5HzaLjd1Bv/vhH2dxNECCR19MWTEuRdHXNdfvG0EE1OyHKuOKSROD6Aj4nE6R+LWtdJntiPUvg/RS7Jd54edOi7eNozohRQyM7l2ZFIJjO1f5xxjD+TtiE6LY+IYDoXRvn8ciZRmp/QUJt7pRMRjp+FJcU4a0W533SIdAxgzXHfEc1wzOBG20a0N2qN27UHgeRxcMbEGEuGp6wUe6a3D8KR04OkpJM7HET8vgTYdRZe6rnhv34dYSgIilUBcHHsxJSGZQnRHSw4WDvBGMXxeA4Qoc3DCCDRlw/6YOD6DiQOqvBZ0HkvY58ykkbxg1zGZtuuSmRxGu15PB3jDGFP1VfC1jhtGXHzOZpG6KMqKIy4gZH2XRqxPXVcMwBzwjh+JW8ekp7xtzyJ1pscFPRPwIjuiSHmum5AAjx+p3cGu+oXv7KNm1QCBpzvYEn8HCjxxrSW7MC6nN8d3Ls5BpkQ9jGLdHbMjsUujbmiEWtH12j50OGUul2DMIHHMHdE4jlwHpALexymkMgkc37FcA8I+xK4K4CQwssLrRAYwIaLHzAQG1LVVWakY+tv14xWsM4gf0aJFBbyPU8ikYhjY5Ik+QwcRPT+CriV6WWFEFIgnh7W6KuBlkZ1JIbrbXZbT9uwUTj6fKy8feMsxclG02QvUMETU188Ib3Y6VlrhO+1YBQ0QeD6MGjjwxLUd6H2EEx05R2uEWrG6SjhkYvuKDxQFnTwwimu34E1rmlKbwlPHuyK1XD17z9pTk3nTmhI66bN7ZH1aoODhjrxkWc+P21GTDinZpmw2hTENQqVtIyM/HdxOhJdF6vRmo402nbaj3OSpDc7vqs65KU0Fzikcz4N8zi6l68hjaSNqYK41QOAVg4jnt+oCL4lTL8xiAHzvJJLWNFsKscHNWOypuxJW57jt1BPv6NN9uet2nbEB5kzNKeBdjaHfVKaKLF3rdAZwhnIQ6jGVo/3uTL8q4F0ada0BqrbY7y1o2zGAkVMxewr3akZbz7PX6+zjFKhSGHsp115XWTu09UpZx3zghTHwvj21m7k4ip6nzHZ0lWtsb4E68FjnZoM2pEaC1gCB58PBBA48J7oLZkN6u1ybspJVZlJInBnOm+4bkIkmTlKLXIvyfk6Nd9qORwGvIHQUSLRpzchBezrz43FsUvZ1gGyvuXmvl/usQapU1CrWIj/WyruagbUu937Cnt6VCSr2oFH11MpXdVPvqq0iQUd+ZwJeKNKDMe26Itnn+J4N2vQpHZWyH9+phVrSAIGnnF0Z74ECL2DYKVFFnurB8NkE0iprcSaNiQO5jMXh8zYg0irJw0pukQkf2t/RITmtZ4CAupZ6V1OBalozcsBOZkke09bjXpJTlldTdnKJdi0r2cT5fBK9qi8k8KwsTfWd867W0jJInhnAJtc6nkpm0eEWIPCsOrRiU98o4lqmZ+bSSfR4M02d+tLxKb3wnVq4Xxog8Hw4pMCAVyXYuUXUiq5RmRGpJZWoKctCU5ruMsIIlQG8kFp/s6Y11VqdFvFZNi41pWlwAsWAt2LUnsKdOqkl5KgyigGvyNrbkL0NQl8HNUZ4Hs2IZBUVaebWLFVd+J6nKY/9+Ds1MlcaIPB8DL5AgDcnsFMDSK2lZREfkt/JZJLMxMHypuDKAV5oOY5fEpFjAiPtNmzyy98gH8TsIwGlGPCK1EtFmGrPnT2YVISXhYpE3YNM2UrfRhF2Em1ySSvKtp53Bf3UODp9aMpdB0+ZLMeZWqadqI0gNEDg+XAqswZeNWHXvQ8DHd4EinUSRFrWpZOtmEH8nfx1J7EpPB7NrWGVFeGFwmg7mrD2w4npSWvv3WD+AG1Ta4ypKHpdU5BhhMRG+DMTOKmn9RcDnorwMgKy2rXEup61wVwA2DSlKbZKxDHislULOt6x9+ZlXZmdJuBtQP9r2/OSgiJ9cluInmXqQ1tBDGaWoemAtufNgkEDBJ7BKIUcx6yAV03YiTZIOIinjKg1sYTcrO3d0B3ZMY6UWuNzNqnHoY7Pak8yKRd4oRUjSKgEmHQstw7nsu+63Ob1mYy2WXxKrjl6MiiLAS+0XCsrZW+0v2CXk5mMy4xVE/CmEJcb6NVmdafdMymM6ZvuQybgyUjR2TgvNrvn6u/atO9qO51xoXHF76mNudIAgefDKVUOvK04pf57oOH15U0l+qiXJZZNw9bjulyP2JqewsTR/GhEHG98NNb0FOKnPQkgRaYO3SJVa3dZmJNM1KA2PP7Mgl8MI65N7TmIFywvsgFvnlWwERvK00icEY8oK7aGJyC4Dv3isWoK+uL6F8YNEbIJeMvRfyqB1FXtqTNFznfbSNmA77QLNXA/NEDg+QBL5cALI9J9AuPVgp2PNtwPkdXGNdUanh710enURt+wH9gPc6MBAs8HLGYDPAp6bgRd2M4EXmHb3O++4fXZN3OjAQKPwGuSxW0Cj051bpwq7Vy7dibwCDwCz4cG6Mxq15mxb9g3pTRA4PlwdpzSrOcBxQivlDPg7/Wsb9a9HP0SeARek0R4dAjlOAQeQ500sgYIPAKPwPOhgUZ2BmwbYdfoGiDwfDg7TmnSITS6Q2D7qPFG1gCBR+AxwvOhgUZ2BmwbYdfoGiDwfDg7Rnh0CI3uENg+aryRNUDgEXiM8HxooJGdAdtG2DW6Bgg8H86OER4dQqM7BLaPGm9kDRB4BB4jPB8aaGRnwLYRdo2uAQLPh7NjhEeH0OgOge2jxhtZAwQegccIz4cGGtkZsG2EXaNrgMDz4ewY4dEhNLpDYPuo8UbWAIFH4DHC86GBRnYGbBth1+gaIPB8ODtGeHQIje4Q2D5qvJE1QOAReIzwfGigkZ0B20bYNboGCDwfzo4RHh1CozsEto8ab2QNEHgEHiM8HxpoZGfAthF2ja4BAs+Hs2OER4fQ6A6B7aPGG1kDBB6BxwjPhwYa2RmwbYRdo2uAwPPh7Bjh0SE0ukNg+6jx+62BBfPm4ZnWR9Cz/En88DtPWa+X257A0488hHnhb83qBp3AI/BmJaD7PTh4fTpoaqBxNPBkyyILcG+s/Q5Mr96VT+GxRYsq9lkEHoFXsXjoaBrH0bAv2Zf3WwMCdvueXm4EnQ6//lVteCJSGfQIvGoAL/IKxn+RxPjOxRXApB2v/2sSPx/ZioiPut1vsfL6dJjUADVQqQZavv1tawpTB1uxv3csfwIL58/37V8JPB9QKXcNL/LsEZz7zTVcu+YXegJ2l3Ht2jX85mdvYa2PutlCm4dDz2zArYFe3Dvcb78OvoJbnUvxolPWQ7jyI/HbFpwLhXGofSPuDInP3biyWBuw81twbusW3DmwN1fWW7tw5+XH0eeUpR3P73wPvkqdA8+j7hpNA6sfeQgDa1aUjO4UBF9bvQIrH3rQ95gj8Hw46nKBJ8ToH3o52F3+19crgN0CnNspQTe4Ddd3bMb1HZ24c3Av7v2oHT922pkD3qWnN+OuAuPhV3DlUduRtC1dhVsHJDCdsjbj+p5u3O3Xy6LjaTTHw/ZQ03OtAZGIsvXxR8uGnQ29lXj+sSX4ls8kFgLPAUFpofsBnj/oteOH0aQV2VUGuzBCT6y34bVnJbpdbZqHQyuWaFGZAl43bu3vxecdD+HFsNb28FJ8asGuF5+vb0GbqyztOH7v++5yrh0Jr0e91oMGvv2tedi27DGfwPuOdY44108bCTwfjtsv8KyOWPNWienNAGAn2rB2izX1ePelJSUEoIDXj3svP54HtMFN3U45hB0dph9nwmOpl0o0ICK8F5/0Dzxxjt9tCgRetYEnyi8IvcX4wbgd2SWjeyuYxtQGWMsq3BJrcUPdmFm5EM8WbJcC3i7MLNPOt45fiMv9YipzGy63eH/j50oGM8+hbqiB4hoIh8J4dskjGFy7suwoTxwrzhHn+rEvgefDYBVFeKr8POgFCDt5je61m3HXSkDpx723XsH1rctwaL5XEAp4nbi0wPvbEsy8IaC52Upo8SMkHuu1JT9TE9RAuRpYsvAB9K1qKxt44lhxTrnlq+MIPAWkMt5nBTxRvoDev9nZm+d+FlBk56l324KHcO7FTtx5SyadDL2CT1ct0IShgGdnaSoh2O+P47oA5sGNeM9Trvs4DmTagxqgBoLTgEg+eW5pK15fUzrKE9HdxqWtvhNWRH8ReD4c+6yB54LeNSTHd+ERH9f3N8Dm4VDHFjviG+rEh040Vwx46jdT9BecuP21g9elvaiBZtCAeKSYyNZ8vcjUpvhNHCOOrcQmBJ4P4AQCPHG9JavwbMeqKsIu5yDOvmxvVbj+tPpOQc0U4YVx6qVdVtLKrY0LKxJUJSLkOapv+E4tNLcGRBJK++KHjY8XE8/VFL/5TVTRNUXg3Q/g+bim3llF/350Cd7LSzRZgEt7xNRmbo9dKFQceKGHteSXNn0qNIzQ/EdwuWuVtqevuQdn0f6oRh+zTN6ENZEGWh94AKseftB6ib+DGG8Eng8BBRbh+bhm2Z1sbUvYi7v7O+Wm8834/FX7KSl3dy7T9uaVAF4oDFfyy6uyvJ3b7OlR1yZ2Aq/s/qlGn7PMQJwg+7B5xjGB58Np1DTwHlqGT/tewV2VrHJ4L+4ObMOnz7R4tiiUBp5wAM+2LsOVnd25rM+hXtzp24APWyubO6dTaR6nwr5mX9eqBgi8RgGej3bUqhhZLzpKaoAaqKYGCDwfoKjpCM9HO6opKJZNh0UNUAO1qgECzwcoCDwO5FodyKwXtUkNlNYAgUfgceHfhwboVEo7FdqINqpVDRB4PpwdIzwO5FodyKwXtUkNlNYAgUfgMcLzoQE6ldJOhTaijWpVAwSeD2fHCI8DuVYHMutFbVIDpTVA4BF4jPB8aIBOpbRToY1oo1rVAIHnw9kxwuNArtWBzHpRm9RAaQ0QeAQeIzwfGqBTKe1UaCPaqFY1QOD5cHaM8DiQa3Ugs17UJjVQWgMEHoHHCM+HBuhUSjsV2og2qlUNEHg+nB0jPA7kWh3IrBe1SQ2U1gCBR+AxwvOhATqV0k6FNqKNalUDBJ4PZ8cIjwO5Vgcy60VtUgOlNUDgEXiM8HxogE6ltFOhjWijWtUAgefD2THC40Cu1YHMelGb1EBpDRB4BB4jPB8aoFMp7VRoI9qoVjVA4PlwdrOJ8L5+9FHwRRtQA9QANVB9DRQCLoE3h8Ar1An8nnfE1AA1QA0EowFxQ1HIlgQegVdQHIVEw++DGZi0I+1IDQSvAQLPB9SKCXC2U5rFyuZvwQufNqVNqYHm0wCBR+AxigtIA3SgzedA2edz2+cL5s3DM62PoGf5k/jhd56yXi+3PYGnH3kI88LfKunLCLyAnB0jvLkVPh1NAXu3PI6Zvldwd8eykoOfNixgw4B8Au0brH2fbFlkAe6Ntd+B6dW78ik8tmhRUd0TeAGJm8ALVtx0FhXa89F23Dncj3s7CTxqqEINBeQTg7S/gN2+p5cbQafDr39VG56IFIYegRdQ5xJ4jTO4ghyoc14WgVf0Dn/O+yMg/9LM9W759retKUwdbMX+3rH8CSycP9+oAwIvIEFWHXiRVzD+iyTGdy42dmTxAdGO1/81iZ+PbEWkwvb2PbESn4qpsqF+3BMRxOG9uDuwDZefcIOureURXOrahjsH98rj+nHvQDeub1qKvrD72FDoIVz5kShrC86F5uHQMxtz573Vg8+3LkG3rO+h9g24NSjLHNqLOztX471FnvJczn4B3tu0JVeeOKdvAz5c7DlH2SO8EKc6NuDWQG+u3m/tsq/TYjhn7RbruDtbH0Jofgs+3NGds83Bblx/pgXPqrJd76KdWluEHfdvweUVC9HmOi6MczuFbV7BlUfDeLa1Ddf3q7qJczbiw9Z5OS2otlt9o/rIfrfqKMtua1mKyzu7cfctecyQff0PHzW00VOf4hrj+bRPdTSw+pGHMLBmRcnoTkHwtdUrsPKhB3NjQ9MxgacZYzaCrTbwIs8ewbnfXMO1a36hJ2B3GdeuXcNvfvYW1vpu7wKc7e6xISCgsWczru8Qry0WHK6vzYm8u2097lhAFE60Ux7XiTvKub7ajh+7oJcD3pWt3bj31iv4XJS9c5sDjzubH8KPxW/Otbfg1hvSWYvy9PYop79zJc7t7MW9oV24tdOu7+evKlh248rSXJ2tPl+0BDOvyjIPdtt12LEZRc9RwHupHddFfX4k27vnFdyTNwW3Ni50D7pwCy71SmgNbrPt47S1F9fXLnAdr4A3s3kj7jrt1+u1DZcflm0Ra3fCdru67b5S5e/YjJk1dj3alrbb/aOVdb2vx6qv3o+zGQc816MtXZ/826XvcrQiElG2Pv5o2bCzobcSzz+2BN8yJLEQeAGJsNrAE+LwD70c7C7/6+sVwC6MwY3bbAf66vr8iEq33aI2fH6wH/eGujHT5nbcofBCfCgAdLgfd7uXapGMAl4/7g1uxFktYnOc88Fe3B3qwacrtTLD6rxefLpSczAKeAI4rz6D4/O130JhG5wiAupfhUGn7gvw4S67bndeykWUajD2tW/BXXHOgY14T4e1BJ4F4s5HXNFc91p5zhvrccq5jrj+K5YN8q6zaBmuH+jHvYNbcG5Brs428GybXnlCi+ZCC2ygC3u+tMTtRJQN8tbw5uHDXgH1Hswsy11DtFNEfe8xwnPbUes3pQW+u3UzF/b49rfmYduyx3wC7zvWOeJcbx0JvICEPRfAE51XPvTa8cNo0orsKoVdKPw4PrUg1olLGoy8IhKfj79oR4G3NnmiGmXf8BJ8KiKhoU586Dh1Ba5+fP5drzjn4dIeGXW9/LgGSXvQ9UkQ39nckhO1cvaHu3ORj7q+9b4Ql/eLMrfhspqmfGK9DbT9qzUIugf2e127LFC56qiAN7gep3QQWtdR7erGFTWFGl6G6wLExuPDGNxkR2Z6pKWAJ6Dmne4Mqba+2o5DehvV93nAU3XqxCXH/u52mvqV39FG91MDIsJ78Un/wBPnmLYpEHi6s5jF33MFPEt8a94qMb0ZAOyELVZutKO77qU5qBhttBCX+wVIijvT97rtSOr608qJKCesAUgr/8edNkQ/b1fHa+9qSlGsoalzlLP3QkD9LqI8WaYCiwLn5+u9wNWupeyw4/HctRTw9O+066jpSLH+ZtXv6c12dNep1Vc7PmRojwJezl5anULLcF1Enj8qNK2bn6X5XpeMsntX4seEXq4v9X7g3zVll3AojGeXPILBtSvLjvLEseIcca7jG+TfBJ7BKF4jlfN5ToEn6lwQeovxg3E7sktG91Y0jana++L6TttJ61GU0V5L7Ujw4Ea8Z/zdFp6a0lOwcSet5Isz/3jtGAMgnKgnL7rJnect04awZ2rU2wYFUr1c0/W187zAU2C1E35k5GpIMLmnAdRbhuoX7V8wDgAAIABJREFU+90/8EJiKni/Sibai7t9G3DpifxkGfd1crbj97TF/dDAkoUPoG9VW9nAE8eKc0x1JfA0J2UyULnfzTnwRL3zoBcc7ES7D222p9nyki/ybPa4PV1Xh8A7t0PAp/rAU7a826+Sfgq8f+8RZ6AGDjyr3+Zh8KmVWsZnP+7+cJUnmYiOvdxxz+OqrxWRfPLc0la8vqZ0lCeiu41LW40JK6KvCLw8511ZB94X4Cno/ZudvXnuZ8FEds4gllFMXmJEns1acMXKciw+pXnqJbEWpsNFTWmKbQn5dvdGY069xLGmCEtFYntW4kVDeeJ8G3C7nMQNBaKiU5rL5DqfPrVrur52zTxYqeMLTWlq56p25pXhOqaCCM91vp2sMiMjvrsv5kCrrs/3fE3SJvfHJuKRYiJb8/UiU5viN3GMOLZQPxF4HidQyFClvr9vwBP1F5GeBb1rSI7vwiMBtSm0YCU+N2UoGsp3kla8qfjq2PASzAyKTMSNOOskeVQJeK7EGG2AqiQcvQ4qacWVuamdEwrj1EtiLbEXn67SvlcA09cQVVsFWLU9dJZ2WlbhlrBlkeQYr8byytDKD1Wwhuct3/r88Gq7XkXWPY3nueqi2YXfF3S2tOPsdCKSUNoXP2x8vJh4rqb4zZSootudwAtogN5X4Ik2LFmFZztWBQc7aReVaHK3dyUOOaCyhdv39EbMqASUh1fhlshCHOqGO4U+DLEt4ezLdgKK2FeXE2CVgCfS9Xe2uTe6a1sj9I3YoZBKuOnHHc/2AlFP0UZrW4J3z59f4IXmOVsJTNcRWwOudK1y7SusCHiL5aPF8sC6EKdW5G+Gb1PR685l+ZmgAY2NXH/PzuGxHNpPaaD1gQew6uEHrZf4W31f6p3AC2hQ33fgBdSOPMHoiQ6Gjdy5BJQwutdulhvGzRvPxQON1ZNT7OtUCXhic7zY16Y2su/QNr/v925+DyMk9sGpzeymjedvbMY577YM38ArfJ3rffa2h3ueKKsi4IUesSNpAf3+Lbi+oxPXN4mbDGnrt3qczfjOBn9xk+LdjF8tPbHcsp1z3lik7WZtOwIvIBE1LPCEfdRjt9SjvaxpTvPjwtoWP44rhkdXXVmTH104Tth6tFj+3WvFa3gim3LRElzemXvqyT3xuC/j483kdcMtOLt1C+4cUFmM8pFoW5fhkGcDu+WIKgGesKV4DJnh0Wufv9iWt1WgMuCF0ba4DdedJ8vsxefrxd7IeTi1cQvuvGFvTbCyRYs9Oi2gcUGnna9r2uT+2YTAC2hgNzTwArJR1Qe6SlrRtw/US91Zz1nfvVddX+yjuu8jAi8gERN49++uzXF0BF7dOySnLwMalyyvBsZlDfUlgRdQZxB4NTCwCDwCL6DxTFDWwHiuQl8SeAEZlcCrgQFC4BF4AY1nAq8GxnMV+pLAC8ioBF4NDBACj8ALaDwTeDUwnqvQlwReQEYl8BpzgNDxsV+pgcbRAIFH4DEqCEgDdIyN4xjZl43ZlwReQM6OEV5jDhA6PvYrNdA4GiDwCDxGeAFpgI6xcRwj+7Ix+5LAC8jZMcJrzAFCx8d+pQYaRwMEHoHHCC8gDdAxNo5jZF82Zl8SeAE5O0Z4jTlA6PjYr9RA42iAwCPwGOEFpAE6xsZxjOzLxuxLAi8gZ8cIrzEHCB0f+5UaaBwNEHgEHiO8gDRAx9g4jpF92Zh9SeAF5OwY4TXmAKHjY79SA42jAQKPwGOEF5AG6BgbxzGyLxuzLwm8gJwdI7zGHCB0fOxXaqBxNEDgEXiM8ALSAB1j4zhG9mVj9iWBF5CzY4TXmAOEjo/9Sg00jgYIPAKPEV5AGqBjbBzHyL5szL4k8AJydvUU4UW2HMHRwXaCLqC+p3NsTOfIfm28fiXwAnJ69QO8rTjxi2u4du03OHeo2tBrQec7E0ims8hms8jOxPFmQPamM2o8Z8Q+ZZ9WWwMEXkAOuH6AF0ZozeuIXRbQu4xYFSO9TaemJOhSSJyPIzEVI/AC0lu1HQPLJ3waUQMEXkAOqK6AJ9pcdeh1YiwlIrsUxp6n82hE58E2Udf1pgECr1mBZ0FvL6JJEeklEd0b9PTmMOJiGnM6ip6AbFxvg4v1JRCogdrSAIEXkDOuuwhPtXtNtaCXA16XuhbfmShEDVAD91EDBF5Axq9b4In2Bwy96LRMUhERnv6aHNYGeyu6hqJIpDK5Y2YySE9NYGRbq3acvEPsjiItyhJlRDoxcj5tn5caR6dow5G49Tl9ZjsiHQOIXpS/Z7PIpOIYeaHFLrN9H8YupJCZkXVLT2HinU5E8nTQiq6jE0hOa/XLpJGMDqAt79jauotlVMH+oAbMGiDwAnJedQ08YYMluzAupzfHdy7OB44POw1H44ifn7IBlbETVuLn44j/ZI9dbqQTxy9KkMykkbwgjhdJLQpSGcSPrHPXwQHeKIbPaxCajsKKIBXwYlHEM1mkpxJ2mdY6YhbZTBzDLwxbv2XTU1YSTdyBYgbxoeXa9dZheFJeQx17PoFUxp6iZcRqdiZ0srRLrWuAwPPhyIt1Zt0DzwW9j3CiY7aDt9CUZgt6ojbYMhdH0RlxX2fx7ihSVlQ4hZN6sosC3scppDIJHN+x3B2VSeCJiDJ5So/YcvDKZDLITp10XbP9nQQy4npTJ9GhtLA7ZsP60ija1XfWeyu6XtuXO871m7sdxbTC32grauD+aIDAC8hpNRbwkjj1wmwFWQB4K0aQEIDJTOBND+yUE2gftbczpM/KiFD0kQJeNoOJA3J6Uu87Bbx0DL369+LvvpgNNWPG6AAmROSWjWNYnSfLysT2aVHfbO3B81X/8p1auF8aIPCUk5vle90Dz5nSDGpDegHgDU5Y8CkKk++dRFJAUa3Pib5RwLsaQ7+prxSkJgbyIRWRkDVmjG6HveaoAU9dP5tCbHAzFpuux+/y7Uyb0CY1rgECL6AOqmvgBQ47cQdrBl6H3IyePLWhiHMwnKuAd2nUnDQigSeSVvLvHg3lOf1uAF4ojPYjcRkViifEpJA4M4yuJbwzz7ctbUKb1I8GCDzH8c2u0+oWeFWBnbClGTKd4ykrm7Ji4LkyPbU+Cxh4wolFnurB8NkE0iqjcyaNiQOeZJqA9EOnqfUlbWq4aaN9ghgjBF5Ag6sugVc12BUGXmjI3j5QdEpzxag9paknkqgIbw6Blxtgregalckt2QRGVtD55GxDW9AW9aMBAq9ZgVdV2BUBnpa0MlAoaeWYnbSSOr05d6d7X4En2tOCNyfsrQrxofoZ4HTG7CtqIKcBAq8ZgVd12AmBmac0BTgGJDgykyPo8EBv8e5xJEXWpNg3p0dScwm87n0Y6PBmgq7D8UsimzONaHduANGZ0BbUQP1ogMBrOuBtxSn13wMNr3fvZQvIFrYDKAS8MEKRHox9LJ90Ytp4PpPC2A4PcOYSeCrjM2VvXrc2xcsN7JnJYc/evPoZ7HTM7Ktm1wCBF5CTr6c1vEj3CYxXFXbCsRQBnmXzdegdNTy66/1R9OZFV9q2hLlYw9s0jImpdO7xY+LxZNNTmDi6nVsUAhovze542f77c/NB4AU0gOsJeBxs92ew0e60OzVwfzVA4BF4ucSQgGzBQX1/BzXtT/tTA2YNEHgBOXlGeGaBceDRLtQANVArGiDwCDxGeAFpoFYGNetBwFADZg0QeAE5O0Z4ZoFx4NEu1AA1UCsaIPAIPEZ4AWmgVgY160HAUANmDRB4ATk7RnhmgXHg0S7UADVQKxog8Ag8RngBaaBWBjXrQcBQA2YNEHgBOTtGeGaBceDRLtQANVArGiDwCDxGeAFpoFYGNetBwFADZg0QeAE5O0Z4ZoFx4NEu1AA1UCsaIPAIPEZ4AWmgVgY160HAUANmDRB4ATk7RnhmgXHg0S7UADVQKxog8Ag8RngBaaBWBjXrQcBQA2YNEHgBOTtGeGaBceDRLtQANVArGiDwCDxGeAFpoFYGNetBwFADZg0QeAE5O0Z4ZoFx4NEu1AA1UCsaIPAIPEZ4AWmgVgY160HAUANmDRB4ATk7RnhmgXHg0S7UADVQKxog8Ag8RngBaaBWBjXrQcBQA2YNEHgBOTtGeGaBceDRLtQANVArGiDwmhB4kS1HcHSwvYqR3WacnMoim80gPrS8itehI6kVR8J6UIv1oAECr+mAtxUnfnEN1679BucOVQt6BF49DH7WkZBqNg0QeE0HvDBCa15H7LKA3mXEqhrp0aE0m0Nhe6n5WtYAgdeMwBNtJvQ41RqQ9mvZwbFuBLCuAQIvoEFfl0kra/YimhSRXhLRvdWa3uSA0wcc/6YeqIH7pwECr5mBZ0V61YHe8KRIWkkj2q2JuzuKdDaL7OQwQku2Y+R8CpkZcVwW2XQC0f3r7Kgr0omR96eQVr/NpJA4vQ/teX3Viq6hKBKpjF2GKGcmg9SFcfS3a9fVzxPXdZWtjt+O6LSoSxzD+vHW363oOjqBZFrWNZtFJpXA2GsbECl07LRWp0wayegA2vKOLVBHHsfomxqoigYIvICEVZcRnmp7FSK9osC7EEU0lUU2lUD8fByJqbQEVgpjO3rs3wTkzscRv5BCRoAsm0VqfLt7EByJ2+epY0VZH0vQpGPoj3iA0j6M+FUF2Cm7/PMJpARYr04haQJepBPHL6oy5TkXFIwziB+RkLZsuQ7Dk55jRfmZLLLTUXQpe/Pd3Y+0B+0xRxog8AIydF0DT9hgyS6My+nN8Z2LZz0AiwIvm0V64qAWsbWg50zKglcmk0E2PYE3tQgtskNGhpkJDOj99VYU8aPbsVj/LtSCgQkbOvEjLVo71uH4JQnO6B73OZEenJySoPJEeF1nbBinYp4IU8BTgCwTx/AKCdbdMTuCvTSqtU381oqu1/ahw1VPD4z5m9ZXtA2nPaujAQIvIEdT98ATdnCg9xFOdMxOcMWBl8CIgoSy/4pRJK1ILoOJAzqoRD02yH19KYy9VEa9ZOSXPqNFhGo69eNxbFLX1N/b1fW1Kc3IMOLWdKshWgyFsem0DWkHrPK6mdg+Om/dtvybeqgRDRB4AXVEYwEviVMvlAGWIrYrCrypk4Zop0euoSUw4p2KDIVhLE9cP7IcPYMjOHk2jvjFFDJXVaQm1wplHTtOTVkRZPLUhgLOx7CGN2RPmaajPeZzvGD93kkJ7RRig5vdUWQRW/FufnZao/1ov3I1QOAF5IjqHnhOdBfMhnQjoFSUJZJW8uxuAI52jKm89v0xe/1NrvFlrqaRvBDHxEW5Jqhdpz8mpzmHCjmH/OsrSFpJNfIaxr/P59rTfiTurDlmxdrimWF0LSl0TX6frwPahDapngYIPM2pzkZodQ28gGEn7GgCVChI4K0YQUJAKDOFqDeaUsksGvDs+mQQ6ys0mPKB1zku1xU/jlvJNSLBxvj6yR4XwCNP9WD4bELLMk1j4oCe3FKoDvx+NmOQ51I/pTRA4DU78KoAu7kAXtuxIlOUBuCp5JPEO971QeUk9iFmZXBqa3hqyrLQlGZJ7bSiazQhIz7DumXJ81Xd+F7KkfF3aqQcDRB4ATmduozwqgS7uQCeAlj8iHegt+BNmaVp7feT/RtRELw4YtwPF+mTGZZ6lqZakyuU6FKWdnL1iRecTvW2gZ/LcV48hjrxqwECryynVVpYdQe8KsJuLoCnIrzMhRHXFgCxrmdtbhfTndqUZigygAmxjUD8Dw7veDaMt+9DTOwLtNbptAgvtNzZV5fybmUIhRHpGED0/ZO5/XXd+zDQ4Y0g1XYIzyb8gHTnd8Dz+NJjmTZqXBsReAE5nroCXpVhNxfAC62Q++AEpFwb2DOIT9rTnS7ghcJoG5zIwVCeE5ebyDOTUcRMG8/1zeoZuRle3yyfGken0pCMIsVTWNRaX0KCNDM57AIznWrjOlX2be32LYGnnNUs3+sHeFtxSv33QMPrDY/GCkasVU9asSKsg4g5T2mRjycTj/tS05d6hCf7d/G2EUzo5wiIWY8ty09acRyXehyZFSHKSPBqComzI+h5SovoNg1bZTuPSxOPIJuewkTe5vhgbOzUb5baZTnsj2bRAIEXkLOoH+CFEek+gfEqwq4+B4+c8rwaQ39AmqhPO9D5s98aVwMEXkDOrZ6AxwGdP6AjBybsbMrJ4apFvbR7vt1pE9pkLjVA4BF4rj1kcym+ub3WdoxdiGNkW2teexdvG0XCmq5MI9anTVEGpI25bScdKO1NDRTSAIEXkFNjhFfrg0yt0Ym1PvU/JcS1/1oog+SpHkZ3AY2HQg6H39f6OGns+hF4AQ1wAq/2B8ribcOIiv9uSE8+yYj/Dy+KYUPkR+dc+33KPmIf+dEAgUfg5U3x+REQj6XDoQaogXrRAIFH4BF4AWmgXgY960lANasGCLyAnB2nNOlEmtWJsN3Ufr1ogMAj8BjhBaSBehn0rCcB1awaIPACcnaM8OhEmtWJsN3Ufr1ogMAj8BjhBaSBehn0rCcB1awaIPACcnaM8OhEmtWJsN3Ufr1ogMAj8BjhBaSBehn0rCcB1awaIPACcnaM8OhEmtWJsN3Ufr1ogMAj8BjhBaSBehn0rCcB1awaIPACcnaM8OhEmtWJsN3Ufr1ogMAj8BjhBaSBehn0rCcB1awaIPACcnaM8OhEmtWJsN3Ufr1ogMAj8BjhBaSBehn0rCcB1awaIPACcnaM8OhEmtWJsN3Ufr1ogMBrYOBFBlvRF3ss94o+iKWhBdjwnvwu+iCeiHgG6+pF2C7P2XN8Iea1LcL39TJiS/H8y55zArJhvQwa1pP9Tw3UpwYIvICcdU1GeG0R7E+txYkr6rUGA2/PQ+TtJ+V3a3Dw+HzXlObTZ5+Wv63Ejt1h5D7LMiYfQmtANqPTqE+nwX5jv9WrBgi8gJx3TQIvFNbgJoGVWoqnIwuw/Zfq82P4bpscwLuX4G0Jx2M/i+CB7y/GYQeW4ngbgkGIfXgyi2w2jWh3znlEBieQyWaR/XgcXZX2S3cUaVHG5LAL5EHUmWXk+oq2oC3qUQMEXqWO1XNerQIvFNLgJuH19nsPYN6+pRiRn0fOLkIoNB+dk2tkdPcknls9D8/9XH224WgfF8xAJ/CCsWM9Oh3WmX1/vzRA4HnAVWlH1C7wwghpcLOnN59C53Pfwnd/tloCbjl+cPpxHJMAPHxqAR44+Jjz2T5HQDC4gWoCXqW2d53HCI+RbUBj2qUrltkQuiLwAhJyTQMvpMNNTmX+/EFEnnsIB11TlmtxQkx5tj6AHVPyOOv3NTj8kwWBCp7AC+7mgY6ZtqQGytMAgdcUwAsjlAe3p7FnXxhPnF4uozwBuNXYf/BbWPoT/bu1ODG1BG3ebM5Z2o3AK2+A0pHRTtRAcBog8GbpuJUYazvCswXjhttanPhlK55oXYQ9KpNTZGCufhADrqjPhqBqp6/3yAYMnE4gdVUkqNiv9NQERl5ogRF4BacjW9E1FEUilXHKyc5kkLowjv52z2AoWIY4zlyOVadtrQUi2BZ0vDbuvnZ6ChPvdCJyJG7VJ31me4Fzw4gckIk4F0fQZtTaPsQs+yQwsiKMUIkyjXaT5UY6BjB2IYXMjLT3TBrJ90fQtcRjI2M9eIwvbdOGBTVfy3Yk8AISbj0ALxTR4CanKsW2BHubwnJs7zJsQxBTn5XYKNKDsY+V400hcT6O+PkEkmnx3RSS1m/uLM1QIVhJCGRnVDlxJD6W8EvH0K9Hn4XKiHTi+EV5jgDBBVGfOBJTaQnRDOJH1nkGcQt6xlMOZFMX3eckp+zfigEvFBrAREa0WQLNa8u+mJWZmpk4aNu5QuC1748hJW8qnHqmpP1TUfToNvLWgZ89/U741zK0ZlM3Ai+gwV4XwDNuUxDbEubjuZFFmKdtS7ATVZZj+/crGfwt6I/ZIMlMjqDD5WzXoT+mIFIm8N6KIn50Oxa7+qoFAxM2wOJHWnIOywi8FvREZX0ujqLTVZ8wFu+OSlhM4eTzufZG+mL2FodMHCMd2jVCYbQfmLB/y2ZRHHhh9MfseiaOLs/VU7bFbkMGE4PyupUAb8Uw4gKqmQSOv6DXswU9Z8qBcq7Ns3EmPJd2rHUNEHguJ1q5YOsFeO7tB/p2A31bgv59BTaJDCMuoo3MBN70wMUaEBE1jVcm8Ar1kQkOJuCtGEGiWH0EwEan7OnJs3sklNS0awYTB3SIKHsIqNsgKwW80G4JzrxpTRn9pWPoVW00tUn9Fgobp4K7ztgwTx7zRqhhhCIH7QhzOlr53kbt+rXu0Fg/pU++m7RA4AU0mOsHeGGEDJGcvi3Biu5S2oZ0vzaSG8gzEwN5EY0SoXEtygQrde3IcvQMjuDk2TjiF1PIXJXTkwJk+iZzUxmqPrF9BesT+t5JJEVZqXF0WteUMMpMYEDVwfteAk6qraHQHsSsqVz3tKZa33MBs0SZ+XbrxJg1dZnAiOnmIrQd0WkxtRnHsLf+/FxYD7RNQ9qGwAtI2HUFvJBhrc6VqJL/yLGc8y5959h2zI6WUuOdBQdNvuMOo9AanrU+pRIxsllkrtprcBMX5fpbCeB1nLLrkzy1oWB9QiEZlapIaMWoB4CGdpeAk24zFYXlpjVb8KY1JZvCmDaN6j9pRa0RyvU6AW3jK4WxlwxtCEj/elv5N+1cqxog8AIa8PUGvFBeNqa2705kbxqjhfIGsnLuyWP5a1ZqIJQNPGc6cgrRwc3udTwJnFIRXqdMPPEFPBUpXhotkF1ZOqNStdV6f37cXidU05pqqtFbfgmI5ttNgnomLROD7MQakZDjfkUx/L3y+s9V74DGB8uk7WtBAwReQAO67oAXCufvt7OiPHt/3qzEqZx2tKdARLUcxy+JSKT0Gp6KFo2wKhN4oSF7+0Cm2JSmiuimTqLD0kQu4uspoBFVN9eUZIFjQ6HNMmvVntZUWxpyEZ90iMp2xq0OJrupKctCU5p0tLPScsH+pF3r0a4EXkCCrkfghSLeJ6qsxYlKtyHodlTRkZ6Mof/eLqcLywCeihbjR7wORk0JlrGG50SJExgoELm2q2nY05slpBVI0ojt9l5bfF4noV06S1M5BgXIxNF1dvKJKalHPUD7wkj+dhAVFXrs5mR6GpNrTHXnd6pP+N5cWiDwdEc8i7/rEnihsOeZmeIZm0EMgM04OWWvJaWie9zTkPp+OI/jNq3hKUhkLoygXesfsa5n/a8I5SSthHJbGPK3SYhtCeNIWmn9cQyLzd/yOpvk2l82FUWva/N2CzqPJez/2cG7LeH5ESREWVMnsUmrr1WmAu9k3MpiNSb1qGOyKUR36NmhApIqUadAZGzYPmFttj8aR3Qo1y7VPr7TJs2mAQLP65Qq/FyvwAuFcv8rgvhfFAIbAN0nbYgIIKWnnI3nKZF8kooieqG8Kc2Q2mMmykkltM3iGcQn7WSUUmt4VptcG+ENG89nUhhzAUY4w+04OSUho29Wt7IiU4hGE/ZWBm368fGj9nfZrCcZxdLVcoxcVEklhSLH3N65bFY8TUasxckN+4XsFnJvkE9P2XYS51n2zmYRJ/CC03aFPiKwscXrV9yXBF5A4qlf4IUREv/vXeoxtKv/Fy8gmxR61JXY+J2ffFE4SzPScRAx54koAqAJRF/b4DzaqyzgWW1ah97RCSSnVaQk9gqKx2+NotezsdxxTurxaNbTUmxYqcejGTMqnz+JpIC6KcITG//VuqPKBjXaeh36xSPZ1DW1x6gZ7WaVYXgE2kwG6ak4xrzJPsZrMtpx+pz2qRgotW5DAi8gcdc18EJhPPTdeQ0r8moNQme7Q5Fs1Gpdm+US0NSAfw0QeAQeQVeRBlTWpWc9raKy/A9cOjvajBrwrwECLyAHVe8RHgePYfAMxZA8M+B5Fqh4XNcGDKjngV4adSXT0I4GOwY0xmhb2na2GiDwAhqMBF4DDka13ibW0OT/lBC/MIW0eupLegJvev97ooD0NNuBzfMbUI/U1qxnowi8gERE4DWgg4lsyE9yEY82m57CxOie/MgvIC0RVg2oJWpj1rAKYlwQeAEJkcCjkwpiQLIM6ogaqJ4GCDwCrybuvDjIqzfIaVvalhqwNUDgEXgEXkAaoFMhWKiB2tYAgReQs+OUZm0LnY6I/UMNUAMEHoHHCC8gDdCh0qFSA7WtAQIvIGfHCK+2hU5HxP6hBqgBAo/AY4QXkAboUOlQqYHa1gCBF5CzY4RX20KnI2L/UAPUAIFH4DHCC0gDdKh0qNRAbWuAwAvI2THCq22h0xGxf6gBaoDAI/AY4QWkATpUOlRqoLY1QOAF5OwY4dW20OmI2D/UADVA4BF4jPAC0gAdKh0qNVDbGiDwAnJ2jPBqW+h0ROwfaoAaIPAaGHiRwVb0xR7LvaIPYmloATa8J7+LPognIp5BsHoRtstz9hxfiHlti/B9vYzYUjz/suecgGxIh0S7UgPUQDU1QOAF5KxrMsJri2B/ai1OXFGvNRh4ex4ibz8pv1uDg8fnu6Y0nz77tPxtJXbsDiP3WZYx+RBaA7JZNYXNsuk4qQFqwKsBAi8g512TwAuFNbhJYKWW4unIAmz/pfr8GL7bJgfG7iV4W8Lx2M8ieOD7i3HYgaU43oagV0TFPh9q34Bbg3tx73A/7g1txNlQGOd29uPe4Vdw5VEOyGK242/UBzUQrAYIvAYHXiikwU3C6+33HsC8fUsxIj+PnF2EUGg+OifXyOjuSTy3eh6e+7n6bMPRPq58AQ5u3GaD7q1X8PmOzbjet57AC0hvdITl65C2oq2UBgi8gBxQrUZ4VkdrcLOnN59C53Pfwnd/tloCbjl+cPpxHJMAPHxqAR44+Jjz2T5HQNDPwGnBlVdFJNeNyw+7z7ufEV7fmg24NdCL62vddVIDgu+0CzVQnxoYfuZppHd9H//W04kXn1zqWqpRfUrgNQPwQjrc5FTmzx9E5LmHcNA1ZbkWJ8SUZ+sD2DElj7N+X4PDP1lgFJASUv77MlwX05gDz+DFT/4QAAAgAElEQVTHHhvfT+D9eOsrVtRJ4NWnU8vXGdtBm4Sx/MEW/KJ7C3676yUCby4EUdMRngBOHtyexp59YTxxermM8gTgVmP/wW9h6U/079bixNQStHmzOT0Qy7exBN6P2gm8krai087XD21Cm5SngXD4W3h34zMW7Ai8OXI2NQ+8kBdua3Hil614onUR9qhMTpGBufpBDLiiPhuCfgbflR+JqUzDa+cyK0osGuGFF+JUhz3t6JTx1i7c2bka77WYBsA8HFrTjuv7d+HekLzmUK99/KLc8Sqyc8p06qclz6zdYtX7ztaH0NayFFd6e2SZe3F3/0Z8uFiWt2gJLu/sxl11vcFt+LS9BW0mrYUX4r1NW3DnoErc2Ys7fRvwYes8T8T8EGy7bcG5UBh9K9rxuZPssxd3etvz26/V19Q/Re0s63r25V6rzZ9/11sf2dZl63FX2Kq3DS+GwlB2NEfI7jZ46/Rsaxs+7VM27ce9g924vmkp+sK5fvKew8+0TSkNbFv2mBXVJV/eiukfvMgIr5TBgvi9HoAXimhwk1OVYluCvU1hObZ3GbYhiKlPkyMv8t25Fzfj+o5ttqM82G0nrIikle89Uhx4i5Zgxlr3s52hleiyYzM+f1XBohtXlnocgHT691RijLhO/y4buIPrcUo60741z+C6VZbt4O/2iTqK1zM4p0CqANLVjusH9uJu3xZ5jrz+gc04t3gZrh/ox73Bbfb5e+wp0nuHe3H9aQ809Pa82pk7XoByyNuWHCyubOrGvaFduLVT1G9LLsv1wEa8p8NB1XfrQx542jYqB3ihlRttW0mgecfCqZeELXvx6Sq7zEqBd2h9p60HQ7vu7lyG7iJ68taJnz1joIltt3TRQkx2bcKvd7yAwbUrLdhxDW8OBFEXwDNuUxDbEubjuZFFmKdtS7ATVZZj+/crHVx+pzQX4MNdNozuvLQkzwH2tW+xHabX6a96BtefacGznj5+r9suyxuJFHXYCp6H+3Frkx6xLcC5nRKUB3pxr281Dmng6W63I8N7/avQ59RjnjynF5+v18sKo21pO+4I6LmmexXw+nHvjS34UEFYlBd+SCYA9ePz9RpUgwBeaAlm3hAA7sSHC7x9vRSfHhQ3HxvxnmxXUfuFVBvsKNUB06PtuCOixFfX4z0t6hYZxLZdRRKR1i7Hht768LNjU9oIC+fNQ3RLh5WoIhJWRKKKgB2BNwfiqBfgubcf6NsN9G0J+veVOhmfwHtCTp3tX43BAv31XpcduRWcftPPKwCDog5bAW9wPY7rZYm/1dSeIes0FJJgGNpsTUdaTkk5+T0r8+AtfrenErXpVAcWAmr5CUJtqm47Hs9FcwXaqJxiWRFeKIzjL/aYpzVl9Hf3RTsyF+UWtZ/TBjfw7Hr0YGaZQUsPr8YtAcOdy8xTwt5+4Odc/ze5LQbWrMSVH7xkQU/Aj8CbQ0HUD/DCCBkiOX1bghXdpbQN6RXZ0R/w+uSePVcE472umn7Tnb44JjwPP17ZhstiKnVPN+6+YUdj1nqdXDdUECjqsBVUug0pzeE2fC4csyHrNGRw9Ic2d9sQaTc4eSM4VHTUjStqrVBvvwKo3p6AgBdSNxueac18KFcCvMdxXUSzRrsJ2xTWieozvps11Mx2+f6TjyHV04lfvrwVaxc/bN0EEHi6w6jy33UFvJBhrc6VqJL/yDH/g6uwIzNFHvYUZC8+XVlkcBucfnfbetxSySNDe3H3jVesta9Pe+Xamg4II2i06xUFSOH2mICnplTzk2TcyTx3NrfIO3YFPHd05Njd0PZQ0fr6eaKNvLY+rRl+3J7O9ETcRW8YDOAPtayyIzhxs1DspUfHVR6rjk15nbqMFp9d8ogFOgE8AT7VnwTeHAq63oAXysvG1PbdiexN39sQNHBYdi8MCBPwzu0QDtEn8Ba04XMBuwMv4crKhe51PBWt3Sfg2e0R2ZUqOcb8PrNmYQ0AL4xBkShzuB9qurhtlZ3M4o24fQNvsVy/e0Mm+ViJQiZbrMqfRp7D8aucJt+947j2Ph/rWOtsQRDbEAq9TGt53Hge0KCqO+CFwvn77awoz96fN/uB7w94zhSgnpTh7Ru1jianHF9c32k56VsbFTS0wXmfgafA8HmBKc18+wYd4c3DpT3iJkJfJ9Ts47WtWkuT05rWTYke8cnjVbu8yUB2e2QCzGE9SpU6KDilWaRO3jrysxPN5OuneewoElR+9crWvNfHO16wEljE01bE3xe7n8fzjy1x2YzAC2gQ1SPwQhHvE1XW4kQF2xDMg88f8Jx1pP5VBZNWTr0kkivKS5FX+8tEMoRev6IOu+gUYeH2mKY0nXT/lx8vMxmjAuCpNc1dbfnXUFOS5QIvJAEpILdomb3uZqi7Wmu902nYCqGg6QLeQlzuF+DNf8Sc3i/8u3mAVa2+5pRmQDArp4PqEnihsOeZmeIZm0ENvMKAME1phkLKMfbjTucj7ulJsRH76Y32toRXc09uURHevV1trkzI7rYNdhq8zP7T+09Fkrc2FY4KxcZz/Rz778LtMQLPWc/qxfX2hXlAEpuwr3dqGZfO8Xp0pPWFaQ1PTenm7elT6f75Ed7gd8V+uL241ZHf/he/a0fMYu9fwellleByYAvO6VsMtK0T91zAC+NFFW2/+gyOz9faJMan2Ji/dQMu8X/OMGjOY6s59Gf5+q/9uhB4cyiQegVeKJT7XxHE/6IQnNALA8IMvDBCIrIQe8IEqLQN687G8zc2u53sgsftTeDieLWxu8/eKH1950t2OZ4Iz4kk1QboPVtwWTnbICO8kL3fzkmoURvV9Y30rmzTCiI8KwnHXnvL26j+ajuu7PICbx4+7JX29SSjWP3uAFRsrDdszbDGkwbTIfm/YOzoxJ23+nF3Zzs+tZ6y44X2ApzbIR8GIJ6Cs0eu4e3cJp9WUyAzdQ7Hb3C6r30wNGpbCbw5HDD1C7wwQuL/vUs9hnb1/+IFYrcKgCeuG27B2a1bcOeAfLqJgNmBblzfugyHvNGBgErL45jRH1c12IkrKxbC2bfmBV4ojEPtGy0HbYH1rU5cUpu8AwaecCziEWXWY8jekqA5vBd3B7ZZj9QadLWnMuCJzdvuR5flHqtmurEY7BA3AuYIT9TXPqcf5ihXOvNwCz7s2qbZsAe3utpwSER5RuCJ8+bh0DOGR8btWY8Pl87Li4Ab1SmzXff3hoBreIE49/D/z94bP7dtZPm+758B49xkDCX7JL9kMhvJW5s4cuWO5IrtiVUZS95rzYytF0uuXHrK1oxDZUNX2fLLk0sl1XhR68tb8bCuApWGHg9Z5eA+z2DtxaoW/9P3VQNosgGCEpuCJIL8/qCiSILoxunvOR+e7tMgcg08o4B3O91LMSP70NGP19Fpf9qfGiiAwMsooOcdeHQGBkRqgBoYdA0QeARehut2DBiDHjB4fdR4njVA4BF4BF5GGshzIGDfCbJh0ACBl1Gw45QmA8YwBAxeI3WeZw0QeAQeM7yMNJDnQMC+E2TDoAECL6NgxwyPAWMYAgavkTrPswYIPAKPGV5GGshzIGDfCbJh0ACBl1GwY4bHgDEMAYPXSJ3nWQMEHoHHDC8jDeQ5ELDvBNkwaIDAyyjYMcNjwBiGgMFrpM7zrAECj8BjhpeRBvIcCNh3gmwYNEDgZRTsmOExYAxDwOA1Uud51gCBR+Axw8tIA3kOBOw7QTYMGiDwMgp2zPAYMIYhYPAaqfM8a4DAI/CY4WWkgTwHAvadIBsGDRB4GQU7ZngMGMMQMHiN1HmeNUDgEXjM8DLSQJ4DAftOkA2DBgi8jIIdMzwGjGEIGLxG6jzPGiDwCDxmeBlpIM+BgH0nyIZBAwReRsGuHzM889YYblTeb/1Z7+A94y1M/yF6zXoHH5gJR//4JOaizyw8+AlOjJ/EL9VzVN7DxX9KfCYjGw6Dw/EaqR1q4Pg0QOBlFKz7EXjGuImbzid4+Df5dwbFb07A/OZn0WtnsPzgzViG99GTj6L3/gFXrxXQeh6dY/tdjGVkMzr+8Tk+bU/bD6MGCLyMgndfAs8oKHCLgOW8h4/MtzD3F/n8fXw6Hjn/tVP4JoLj/e9NvP3LUXzdhKU4PoRgN45S2vbh+y6sK30WWK5YcH0f/napBXqziOorH/6ug41+629G+uxmzHhMn2mVY9/y0YxsQeBlZMh+BZ5hKHCL4PXNH97GiaX3UI6el5+chGG8iZntM1F29zN89vEJfPaDfB7CMTyuu6BA4HVnJ0KGdqIGjk4DBN7AA68AQ4FbOL35IWY+ewOffv9xBLgJ/Hr9p7gfAfDrR2/h7eX3m8/DzwgIdi/MXAEvIw0wcHWvD9qKtjoODRB4GQW7/s3whGOpcIumMn94B+Zn72I5NmX5CR6KKc+xt3G1ER0XvH8GX3/3ltb0AoHHgHYcAY1tUnd7aYDAGwrgFWC0we0jLCwV8MH6RJTlCcB9jJvLb+C979TXPsHDximMJ6s597EbgcfAs1fg4XvUx3FogMDbJ3B3Oyj9neGFzhWH2yd4+JcxfDB2EguyklNUYH78DoqxrC+EYLd2kMftBTxzagEPnjbgeqKwJfp75aC2XsRUGljNaVxfraL+0msdv+ui/rSMmbTjjQJGL5dRbbjwdqPze+L8S5hMK1ox5mC9FMfZKKl6WLGD9tzHczBOzaG85cTOZ9+bw6h6fPP/EUx9tYmao/TXbaD67QxM9ZzN49XgN4I71fBztXsT6Vn1jQo8YbdnZYyLc+xzzr3GQtqpOQ6BnTqMQ2p/1b7zf6l/PvanFgi8jJw4D8AzTAVu0VSl2JYQblOYwNxsyjYEMfXZg406BdnJmxU4EeQ8pwZ7y4a9VYMjweRYmE9AbPaxG4LObaAWHG+jFgDKh/98FZOJ/k2u2CEQfB9uI2rjmROcw2s02qs09wNeZRO2qOJ8GT+XgET90YUElEYwvxm2Jd53nonrs1FrhNdQb4TvBRBN9LsZJG9V40BLHLdYEUD0UL09ErbdE/BGMHO/FrYjvjzshONQd8MvCN52qc2uzf4l+sPX+zO4c1zax4XAy8h5cwG81G0KYlvCm/isfBInlG0JYaHKBOZ+2S6abhwpFXiTZdSCrM5B5ebZOCjMaZS3w8zGqxZjkJ1ZrcD6ajr2mmFcwFpDBOfE1ofJVdQDoDqwro3F2jAvrUbtJ7Yl7AO8AFzWQiyba0L1VQWLiobMG5UQqJ6N8lQEpOj9ydvV8D0BYpE1Kp+L/7+EigCsX0P5dNL+RVSFDb0qivLzvQBPZrpOBYuTahtnUQrGwYO90iHDlO3ycY8xVG3K/+P6Pj57EHgZOW1egBfffqBuN1C3Jaiv9ybONOBdfxJmOc56MiuK2jD3CvTt/ZCZn73Sek++1qmNydVGmC2q+/D2A55bwWIi6zSan3Gw8YVsfwThdSvZV0xfIwizs/2AV4C0Vdu0ZpT9uU8WWsFWG3iyny4qN+JQDgLTxc0wC98uJb5kyOvkY78EcPZDT4sEXiwg6RlPFVt+gFeAkZLJqdsSguzOUTak92CjduBNRxlZAw/aspaW3YvR+pV9t/VaYOdTF7B4dxXW03B60AsyoHD6rZUttdpYO5f4vLwGmdnoAG9L2aQuz2MUIripGWZK9qUcH1zHPnBqaupalCnKdbrgPHJ9T22zlzW8EmyRBb+0MJ/sX/C89f5s6vsdbMtjW19CaIu+tAWBl5EwcwU8I2WtLlao0n7LsWYg7tJe7cDrAgZGATJDa2VtylqTCNK7HjxR4CLW8hrhFGgLeDJDTBSfqH3uAXit88cDfds1no6mU51NzKhtqv93C7xmBqlMa5rL4XTmi02c1zhnWz/PrUXTvuEXhmbBSrS22nq+hx3V9vl/XwZ3XZ8dhuMJvIycNW/AM9qqMZV9d6J6s20KLx7s93OOtiBrRFmDuvaUYvs24MlMx7VRvjoRm2KTx7aAFLWRWFeL9fUwgSfP/Xw1rJ5Mub79KirVvp5fDwtc5LSmeTssZqnfT6yt7QPRtrH4IpqyfOVERUNhYU1YQKT+v4bradfA1wi4nGqAwMto4HIHPKPQvt8uyPLC/Xlq4O3l/7Yga8xgwxEZxd5Tms0KxFshYJPP1b60A09uL6ih3AnYsqRfY0qzBdQ49NuvsTUVmD5VWMD4/XANsdM51esz5FpaMK0p192UjE9qd0/gTeDBc2F3dRp0/37G+iHb4SNBl3MNEHgZDWAegWeYyTuqfIKHPW5DSAbIdhi0CjHaS/kjkIiiFVEW71VxJwJW2nnCti5g40VyDU9CwYfMiuL9EkUj0RaHQwGeBK6LyrU4HMN+nI3gs3/RSni8hFUN5ckQUl51OZblBsfJbQw75fb35DRoDHhyrdPBxsW0fvK1uG5oj0GxB4E3zMAzCol7Zop7bGbj3KmguijXjtq3DBjmNO5UoyrOzVbJfrOq0ZpXgvkIZlYbrb12Som/KYN/2rYAZQ9g7NcSmutliTWrPTOntKKVAs4/iqpAHQvXT6m2jK9Fqhne+Xvhfrj6d+3Vq+P3akFVqZhuDPbeRZlvLACdLqMmt2JcVasu5RaDZIZXwLjcq9jWzwLEWBQfV7HGX45gRpdRfIzp9RjPSeBlZPxcZnjBtbd+FUH8ikJWwkwFnlFAc/+a7yNt47m3ldjwfCVab1I2kdeCqVEH9k4ISBUehjGB4tMoi2vb+O3BfhxVPx5KhicAN4e1qJjGb27otiH7bFkhwFp9/inKz8JM1U8Wo4jxacLMh+9WOqypjWD+sdzs7sFRN5E7FqydduAZxlmUtsKiH1EIJDfI2zsNuMFNANTtFiq4+X9WPsLzHL2WCLyhB14BhvjdO+d9TMrfxcvAJp2AJ5zcvLQMa0e5TVcEP+tu+q26Rq+txm7T5Tk2ypfHmhWdLXhIBxrD7L0q5F1DRNWhgOuG2OwuC0sODXhRhrReg6PcOs1tVFG+NJJ6G7Dz34VZYVqGZxitadr265TXKx7PYlFtU0BsZzPYVN55LCI7xW7ZJuBXaSsQYnBWbc3/86oHAi+D4C4GP78ZXui87356IrPsLq/OcBT9noqmPNsqLTPS4VFcA9sg8PKqAQIvo0CTd+DlVcD56rcstFErJhk88zWGHK88jxeBR+Axs8tIA0EguFtB/XHKrw2IQpBKtM6WcsPrPAcR9p0QzIsGCLyMgh0zPDp94PRRZWd6IYgoPKniTuxmzbRbXoIl+5l/rRJ4BB4zvIw0EATEtN/uE0UzLxuori6k/95flu3zXNQzNdBRAwReRuJghpf/b3/8Bs8xpAYGWwMEHoHX8dsQnX+wnZ/jy/EdNg0QeAQegZeRBoYtePB6Ccy8aYDAyyjYcUqTzp8352d/qdlh0wCBR+Axw8tIA8MWPHi9BGbeNEDgZRTsmOHR+fPm/OwvNTtsGiDwCDxmeBlpYNiCB6+XwMybBgi8jIIdMzw6f96cn/2lZodNAwQegccMLyMNDFvw4PUSmHnTAIGXUbBjhkfnz5vzs7/U7LBpgMAj8JjhZaSBYQsevF4CM28aIPAyCnbM8Oj8eXN+9peaHTYNEHgEHjO8jDQwbMGD10tg5k0DBF5GwY4ZHp0/b87P/lKzw6YBAm+AgWfeGsONyvutP+sdvGe8hek/RK9Z7+ADM+H0H5/EXPSZhQc/wYnxk/ileo7Ke7j4T4nPZGTDYXM+Xi91RA0crQYIvIyCdV9meOMmbjqf4OHf5N8ZFL85AfObn0WvncHygzdjU5ofPfkoeu8fcPVaAa3n0Tm238VYRjajsx+ts9PetPewa4DAyyh49yXwjIICtwhYznv4yHwLc3+Rz9/Hp+NRILh2Ct9EcLz/vYm3fzmKr5uwFMeHEMyV01yx4Po+/O1SDOy5uoaMNMprJvCGXQMEXkbBpF+BZxgK3CJ4ffOHt3Fi6T2Uo+flJydhGG9iZvtMlN39DJ99fAKf/SCfh3AMj8tZ0CDwCPqMfHzYYTEI10/gZeQM/Qu8AgwFbuH05oeY+ewNfPr9xxHgJvDr9Z/ifgTArx+9hbeX328+Dz8jIKgDuwWsPXPgvdjEbEY27snhCDwC7zj1x7b7Sn8EXkaC7GvgGSrcoqnMH96B+dm7WI5NWX6Ch2LKc+xtXG1ExwXvn8HX372lKdwSbDGV+NIi8DLSWE/AZ9uautX5Usdj86ZJAi+jgNDfwCvAaIPbR1hYKuCD9YkoyxOA+xg3l9/Ae9+pr32Ch41TGE9Wc+5rNwIvb8GA/SXABl0DBN6+gbs7J+h74BlJuH2Ch38ZwwdjJ7EgKzlFBebH76AYy/pCCOo4QpDZiewu+ZcsHDGncX21ivpLr3XsrgdnZxPFqZG2b+albXFOF9aVAsxLZVQbbutznoPa+hImk+MZm9I8i8X1Ghyv1Te3UUX5UntbRmrfXNSfljGThP+KHfTDfTwHY3IJ1vPoerbSCmUuYONFeB2Va+naGr/fCM/3ZAGGMQfrpTjeRil5beJ57PqS5xvD7L0q6m7rej2nho2vpmGmnYuvtWlOR/c8Nqm//ntO4GXk5HkAnmEqcIumKsW2hHCbwgTmZlO2IYipT00brW3ZsLcaYXWkAFHw3Ib9nQjgkRNMLqHiRIFYOaYmX/MdWFfjIGoC71sLjoCpU4Mtzr3TgLsbnsvbLsWh1wTCKkrbHvxdF/Ud0T8be7U1+ziCqdto9r8WgMeH/3w13kYTeCVsNPvfuTJ06pEKtGRQmMCD5+JaHGxcFO/1CDxzBg+eReCV19C0kwd75WxrLOSY8JE2GXANEHgZDXAugJe6TUFsS3gTn5VP4oSyLSEsVJnA3C+TAbnb53tNaZ5FeScMxk4lmZWNYOpbG54AmldFUcmmQuAJGHiwv01kKZMl2EHm5qF6SwGlBF4ASAvXT6n9H8H8YyfMEhtrOK9oYWa1AqstE7qAtYZoP8wym/CWwHvhwHMqKJ4f2ztwnl5FXfTHreC60mZwvnNr4XuNNUwF7/UGPAnsNvtKO3k2SqdVW/D/5ngmx4TP99ZzjuxD4GU0WHkBXnz7gbrdQN2WoL7eayDcA3jXKmH292IzBplWwBnBYiUEYu3eRNPZJPC86nJq1mnergag9KrF5meaU37NjCl5PXKKsYG1c8n32p9LkNgrynsR8FpZmfJeqr4mUH4WgjM5rSmzv9Z19wA8M7K9W8Gi8oVB2vf8egh5e0X5YpDaz/2ug+9Lm/IxH1og8DJy9PwArwAjJZNTtyUE2Z2jbEjvyUadgSeDev1+C2ZtAeNWCC9fWQeTwLPvdnAus4yayJzUylCZ4TmbmOlwHfNWOH0Zg5g49tQFLN5dhfXURq3hwnslIBX+Bet18nwSeM9XMS5f2+dx/F5NWaeT1yPha6PUBFUPwLsbrSla8y3wq/2RGalYc1Rf5/+0x4BrgMDLaIBzBTwjZa0uVqjSfssx/cDYGXjFqsjexNSjDPQpjxJUSqFLcw3vSsrxwTimtJlynuS1tGdtI5i5XwunVQXgdj14r6K1yEaYeaYBz6ssdR8wlSysOa15cTNYm4xnsPrAk18oJJw7PipfJpI24fNOGuPredYGgTekwDPaqjGVfXeierOZYfTq4CnwiWxd2hJZUh8DT065ujbKVydi06cSjmnAi722r65GcCcAvws5rRlONXqo3FBtrg+8mc1wytJ7ERbnBIU9snBIfVSLiPbtr9on/p/noD/MfSfwMnL0vGV4QvRt++2CLC/cn3dwp+gMPBmQ95zSvFFpW48LM7wkEJTg+0WYIYkqyubUoszw1NcSYy4BLEETrh+mAzk74BUg1xxddftBWyHLPsCL7BS7V6icsuw0pZm4/oOPtTIGPHf3WT5tdeS2IvAyEl0egWeYyTuqfIKHPWxDSA+YnYFnyAwqURnZOo8oWhHrah6qt1uFFXINLwREe5CVxRjO+oWWI0ng+TWU06oSzWVURXWnV8WdKKvtPHUq19h8xLI5CRjtNbElVMS6oIBc1M9Y3wNtTrcqQ692vuYY8GSlZ8eioPbztGzP92iLwdUAgTfMwDMKiXtmintsZiX2CHgKSFqBRJb3+3CsBYzGxmAEU7+rhlWcTvw+nBJ4ohrSuhYv/R+9Fu3NS5bbN4Hnw9suY0qdqjWnURZ78/w4wGSFqGvNK9OZI5hZbTTX9boH3ggWn0TwVrdLRNd8PXjPhb0lpiHTK0XDY0T/43sMzavRNYt1RmWt0zAmwj2Hfpp9CzCnirCerh3vLd9iY56V5nielo/RFmm2IPAycrxcZnjBtbd+FUH8ikKaSHp7TZbei6pJsUG8Bqei3HlE7AeTVY9pG89f2ShNxp1WZl4hHHy4jXDjuaigDAszUjZUS+A9t8N9ertyI3wNTrRZ3X+xiXkVhFeiqVEBQtlGsKHcgb0TttU98BZQkXc62Vput6/MdgW0npVbU7GqLuXeOXFMYEsb9jMBSA/242iLRwx4BRid7CtttUfVam/jHR8rnoP26EcNEHhqYDnA//kFXgGG+N07531Myt/FO4AdYiIXt9l6JmHkw32i7I8TbZgzuPO4BkeCTwR0UQ35uITZ2AbxMHhI4FlXRjDzbfyWWcEtwi7Hs76gLxJ4AgiJ/vjB7ciK8awvuvbRa6uoOWH2J2DqOTbKl8egv4Y3guJTWZXamp5t2Umu0fnYa19c263U3Aaq387AVK8vOW6n5lB+2oCr3EotsO+TMuY/TOsLg3RrXGiLQbQFgZcMEj0+zzXwjALe/fREe/bRoy0Oy1FawGMwOiwb87zU1iBrgMDLKKjnHXh5EDmBx2CcB52yj/2rUwKPwOv7zE4GEAKvfwOJHCM+coz6WQMEHoFH4GWkgX52dPaNIKIGCiDwMgp2nNI8/IDCDO/wbcygSBsPsgYIPAIvNxneIDsir42goQYOXwMEHoFH4GWkAQasww9YtDFtfBANEHgZBTtOadIRD+KI/Cz1Qw0cvgYIvD4BnhgI/tEG1AA1QA0crjvrMycAACAASURBVAY6fbGYmJhA2t//8Xd/93dI++t0omF4/SAZ3jDYh9d4+N9eaWPamBroXQNpsBOvEXgpWSGB17vQ6KS0HTVADRy3Bgi8FLB1GhQCjw7bSRt8ndqgBvpfAwQegccKTg0NMKj1f1DjGHGMOmmAwNMIdszw6EidHImvUxvUQP9rgMDLGHisvjrc6ival/alBqiBXjVA4B0C8PhNr/+/6XGMOEbUwHBpQECSwCPwuIanoQEGyeEKkhzvwRlvAk8z0HWzhieMSicZHCfhWHIsqYHB0ACBR+ARzpoaYPAbjODHcRy+cSTwNIMdM7zhcxIGRo45NTAYGiDwCDxmeJoaYPAbjODHcRy+cSTwNIMdM7zhcxIGRo45NTAYGiDwCDxmeJoaYPAbjODHcRy+cSTwNIMdM7zhcxIGRo45NTAYGiDwCDxmeJoaYPAbjODHcRy+cSTwNIMdM7zhcxIGRo45NTAYGiDw+g145n/D5p/r2PzVaA+Z1yR++z/r+KH8OUzN66JDD4ZDcxw5jtRAZw0QeJpgOOwMz/yvK/jjX1/j9Wtd6AnY/YjXr1/jr9//Dp9oXldp24fvu7CuFGBeKqPacOH74jUfvuegtr6EyZRzjl4uwdpx4O1Gx/o+PKeGjZtn04FtTqO4XoPjtY53G1WUL41A7UPSaUcvp/WpiCmzXdzy2Gafdj24DQvF0+3HJtvhc9qIGhhcDRB4KUF8L8EfNvBE2/rQa8Hux//5W23YiTabsPnWgiMg59Rgb9mwdxpwI5h526UE9EqwIyg6z+zoeAde8JqLyo2ROPTMeWy8iEC366Amzr9VQ9314e82UA/eC6HbGoMRzNyvhefcdVHfUT4j4Jro0+SKnTjWRs3xmjBvnXdwnZrXyLGlBtI1QOD1IfCEWLuH3iT+b6seZHa9wk60FwJPwMiD/e10fEp0sgQ7yMg8VG+pEFuGtVXG7Km4uMxb1RA62yXlPCNYrIRZo7ddTmRmZ3GnKjPKBPCuWHADAFewOKm2cxalbQEyD/bKRATWBVQEPP0GHsSOLWD0chGL59TP838GRWpg2DRA4PUp8AIhnvndPtOb2cBOBZ5XXVYg1QoI5u0QYl61GM/aUu0XZX4vLczK983oNa+KOynTkIa5hMorASsVeK1pzrZsUZz34maYjTbBGrXxqoJF2S4fuxiv1jgPWwDk9Q7X2BN4mgHxKKY0Y07YEXqj+PVmmNnVrS97msZU25EZnn23gwOYZdREpqVCLLDdCMavFlF+VAmmJ51XnrKeZ6Mk7RtlfXsBszmtekX2oQXOeXme2GPr/RCs01hrhFOmTqWI84nMU71e/i9tzEdqYXg0QODFAuj+A3/kwBP9a4NetrATDt8Om6QtknApwJhcQiVYdwsh478SxSE12E9r4TSk3wLe+P1GUADjbM50zDja+nBuDfVojbBZQJP6vNWOIaZfg0wxAt+OhdLlsY5tMtglx5nPqYnB1QCBlwfgSej977B684/fZ5fZSedug02bXZLAm0D5mYCKh/rjZDYVHasAb/ZxuEZXvy/X29qdqq0PX0RTlq+csCAmKHKJimNi/6/hutpfcwLzdyuoBet5Ifjcp8uJgpv29qUt+EjbUAODqQECTw2UXfx/LBme7JfI9ALovUZ98zf4P+XrGTyGsPFQudFB6BI+z1cxLto7vRpmX401TLW13w48Y8UOMjzXmu+QbU3gwXMBJ3UNrwXZ9CnNDn1V+jN6eRW1KOOr3esMWwa4/W1JG9FGedcAgacEx24G81iBJ/p66h/xX6f+MVPYiesOgefDfbKQCqTz6044Jbl+IXxfVk9ul9qOlwUuvpLhGfJ4txLPxqT9JyOAxoAn1+QcbFzsPdg0+7PV3tduxpzH9G572o626ycNEHgy4Hb5eOzA67KfuiKTwPN9B9a1+JrX6LVob55noyQ3b8sMz6uhrG4BEOt6L8NpxBjwjAutghJrAaPqdZgzePBMbDFIZngFjMt9dY6F68kiFLGJ/XEVa80ilzksfpXYUmEUMBmtH7qP59rgrGsnHs8ATg3kVwMEnhp4u/h/sIHnwt4KM7mg+GTLRq15xxWx3029e8oESlsRpOQm8miTurdtR8UmSjGJsO2VNdTlHVbcRnPjuSM2tjsWrJ124BnGWaUdD60N7nJDvIONL6QDRlOg4s4wco3vWXg9voC1CuYuxpqBTdqVj9TCYGiAwNMMfIMOPOvKCGa+rYZ3P4kqIoNbf6VVOprTuPNEgkfcLcVF7bG43VfKGl5kZ3OqiA31VmTi7ilPy5gx5bSquoYnnWwMs/eqqL+UWaBoS8CvgvLVCWXf4AWUnjbgKlWavheeP7k5ngFM2paP1MLwaIDAI/CCab62CklNuxw8aMj1ugYeyGnTI+/D8Dj+wceLtqIN86cBAk8zqA5+hndMIpZ3TWnb2H5M/dHUBYMfx4ka6H8NEHiagY3A613UpUoDVkpRiZjmrDhhoUv9vrpO2HtbDD60HTVADSQ1QOAReEc2pdmsBFWKSlpFMT7cKjeHJx2Uzxm0qYHsNEDgEXhHBjxzagEPkkUlwW/VVfFgoX07AR09O0enLWlLaqAAAo/A4940TQ0wcBAe1EA+NUDgaQa7QV3DowPn04E5bhw3aqB7DRB4BB4zPE0NMMB0H2BoK9qqnzRA4GkGO2Z4dOB+cmD2hXqkBrrXAIFH4DHD09QAA0z3AYa2oq36SQMEnmawY4ZHB+4nB2ZfqEdqoHsNEHgEHjM8TQ0wwHQfYGgr2qqfNEDgaQY7Znh04H5yYPaFeqQGutcAgUfgMcPT1AADTPcBhrairfpJAwSeZrBjhkcH7icHZl+oR2qgew0QeAQeMzxNDTDAdB9gaCvaqp80QOBpBjtmeHTgfnJg9oV6pAa61wCBR+Axw9PUAANM9wGGtqKt+kkDBJ5msGOGRwfuJwdmX6hHaqB7DRB4BB4zPE0NMMB0H2BoK9qqnzRA4GkGO2Z4dOB+cmD2hXqkBrrXAIE3wMAzf7GCe7cmBy+DM4uovvLh7zrYuNK92NXAcP67Bnzfh7dVwrimBtTz8P/e7E+70W7HoQECTzPY5SfD+xwP//war1//FX/8/YBBj8AbvC8xmn54HMGSbeYf0gSepqPlB3gFGGd+i8qPAno/opK7TG8Ba88ceC82Mas5RgcKTOdKqDTcIPM70HmOss9si18AqIGuNEDgaQolV8AT15Zb6JVg+z78l9bRAu+KBVe0u13qyoEIxfx/6+cYDs8YEniDDrwAel/CqotMrw7ry7xMbxJ4DMTDE4g51kcz1gTeMADvUKE3htm7FmqOFxSBiEIQf9eDs7OJxckOIj41h9LjGhxReCKOl5+pljBlRKCTr6uPzaxrDtZL8TkbpWD8LmDjhXjuonItvc3x+2GRivtkIczcVuygXffxXPhcZnZqe9H/7uNf4041vL76/Yn0zO/0Kuri+BebOK+pKQa79DGjXWiXrDVA4GkGp9xNaarXd+YQMr0IHKJisrZlw96yUXsRwc+tYNGMO615dQ11L4Kc22h+xm6u1y1gLThPI5xa9Frntb+LYGUkgVfA1KME0NTrNibw4Llo08HGxag/SeCdK8ES7e448AS43EZwLeJ6rLvTMG5Vw9efr6ZWdcr264+m04EY60/cJlk7Nc9H+1ID6Rog8DQDUa6BJ6711G+wGU1vbv5q9ODB+XcW7HtzGI3ZcQTFKCOyV0ZabYjqygB2Hmr3Z2DGPpMU6F5Tmu3AM2SG5VZwPXnec2th9tVYw5R8Lwk8+brM9JrZpOzXAiqugGYDD07L1+TjNNYa4r0aym3vyWP4yCBMDRy3Bgg8Gei6fMw98MR1NqH3JzycOiQnTAHK+XUnnEasLO0DO9EnTeAZEyg/E9Bpn9aU2VftnjIdmdK/wBk7Aq+A60/coP9t05oXN+GIrHC71MV1HZK9u9TvcQccts/xP04NEHiagWKwgFfHo0sZOKA5gflbZaw9sRFMTb5S1vOamZLMghpYO9dNm7rAK2D8Xi0EqlynC8ZWru/ZKKnTqz0Az5BgS0xrhiD3UL2tZLOaujrOIMC2u9EjjxkEnRB4moEp98BrZnfZbEifvFmBsysyq/DPe+WivmOj+izMhlrl/UuoBEUqstBkvwCiDzzDjD6jTmtGkPKqy/HsqxfgGS1ot6Y1I6C+qmBRU0uDEEB4DfvpmO/3k0YIPM0glWvgZQw743QZNQE6rwHr1oX4Ol4ElBbwIhh5VRS7snkPwDNGomrK1rSmzL4qNxKBpyfgtbLI5rRmNAXarP7s6toSfeFnWuu8tAVtcYgaIPA0jZtb4GUNO6MAWeqfWpnYBjxZaJJW9JEGgF6AV4B5O6ymDAEUtalmfHK8ewReE/LRtGa4rqdUf8rz85GBmxroOw0QeJqizCXwDgF2Yppi9nE4bWmvJIElM634HUsWK9FetkcXunCE3oBnGNHUqYBclH056ynt9Qq8ZhYpwB1VbnLvXRfjmdQIn/fTVN+w9IXAG3TgHRLshIPIDM/bKWNSsaNY1wtuzxVVLjad6WK0PcB3ULl5Nh4kTy1g4+machux1hToHbXYJGhHZovp64Fh1uXC3hJVoR2KZDoB74uo4nIPiMkssl4JrzNW/anYoXndfC0+1rQH7XFMGiDwNA2fqwzvEGEXBPPTJdhyE7lTCzedN0TW58HeDjeCt9bwwm/0kyt2uIFbwDD6jL3TgCsKX2L3zZTbDMTr4tw1OBV5f8u9gWdcU4D7rJy6UdzoBDxD7rfz4b0I262tR3djaWpFFuBw7x2hzkw1Txog8JpBrDvh5gd4n+OR/Hmg0s/jFYqa17yXoM2p5eDXBWSVpu/WYH01DTMCShJ44lyjl0uwxB1NZHXnrge3UUX58lj8m+/kEixZ7en7cJ8Uo/f3AV7zTiw+Yhvf1evuCLwCzEtl2E6r8rS22n73FLknr636U22D/8fHk/agPY5ZAwSe5gDkB3gFmFceYvMQYbcXCAf7vREsVsJMtnqruy9Kg20P2oDjmw8NEHgDDDw64SE5odyOkVb9qaknjtEhjRHHgdlkigYIvBSj7BWE8pTh7XUdfK/XQHsWpW35ywmJwhtNLXEMeh0Dfo7a6U0DBJ5mkCLwehNa3h10dr0W3EGmFq3tec/K/BkgTd/JuwbY//z7PoGn6bQEXv5F30vgmolufO3vuqg/LWOmbavEcNqlF1vyM9TKcWmAwCPwONevqYHjcla2S1BQAwfTAIGnGeyY4R1McHRY2o8aoAaOSwMEHoHHDE9TA8flrGyXoKAGDqYBAk8z2DHDO5jg6LC0HzVADRyXBgg8Ao8ZnqYGjstZ2S5BQQ0cTAMEnmawY4Z3MMHRYWk/aoAaOC4NEHgEHjM8TQ0cl7OyXYKCGjiYBgg8zWDHDO9ggqPD0n7UADVwXBog8Ag8ZniaGjguZ2W7BAU1cDANEHiawY4Z3sEER4el/agBauC4NEDgEXjM8DQ1cFzOynYJCmrgYBog8DSDHTO8gwmODkv7UQPUwHFpgMAj8JjhaWrguJyV7RIU1MDBNEDgaQY7ZngHExwdlvajBqiB49IAgUfgMcPT1MBxOSvbJSiogYNpgMDTDHbM8A4mODos7UcNUAPHpQECb4CBZ/5iBfduTTKD0xzj43JGtksQUAOHqwECTzMY5ifD+xwP//war1//FX/8PaHHQHK4gYT2pX3zoAECb2CBV4Bx5reo/Cig9yMqzPSY6WpqPQ8BjH0kaHU0QOBpBoH8ZHiRIxB6BJ2mxnUCCI8lcPKkAQJPMxjkDnji+s58CasuMr06rC85vZknB2VfCRRqIDsNEHjDADxCj1meps4ZZLMLsrRl/9iSwNMMBLnM8OQ1HlqmN4KphVVUGy68XR++H/55LxvYuNYSuzlVxMaOEz/GqaF8pXWMCA6jl8vxc+16cBsWiqfjxzGQ0B7UADWgowECT8Kgy8dcA09c46nfYDOa3tz81WgGmc9Z3Km6Tcg5z2zYW+KvhvpLD/ZK6JDmVQtOBEJ5TK0Rfk4eI4Q7uWLDE8ftuqjvhOeqOR5834WVAKOO0HksAyM1QA0QeF2CTjpL7oEXg96f8HDqYE5w/lEjhJ1TweJkp3NNoPxMZH0uKjdGYpAVWd9iE2QLqLjiuAYeJM41ermIxXOdzs/XpT75SC1QA501QOANNfDqeHSpszj2dRxzGVUvHVDxz87Behkdt+e0ZAm2yO5eVbCoOS7x9g5wTWw39oWEdqWWBkkDBJ5mgMt9htec0sxgQ/qtajD96FWL+wbJ4lMxLenDe7aK+Q/jWV7Loaax1hBg9OFUijh/isGmZRvagragBg6qAQJvmICXJeyMAsbvh9OZzubMvsAzzHlsvAhhJoDmNqp4sDANM2n/yRLsV63jnB0Lpctj+58/eR4+p82oAWogoQECL2GQ/b5B5DbDyxh2wk4zm06QjdUfTXfpWGM4f2MVdlCEEkLNe76GeTPxzdWcwPzdCmrBel54nPt0GZOaY7XfWPL9hN1p3y51TLvl1XcIPE0nzyXwDgF2geBX7HCasrKkHShEsUolyvjcJwsdPz96eRW1KOOr3ZvoeFxeHZD9JjyogaPTAIE36MA7LNgJu51eRV0UmXhVFJNZWjd2vbgZblVwNjGzx/Hm7XCt0N8qEXh72ImB8+gCJ22dT1sTeJoBJFcZ3mHCLrDbCIrVVjHKTAx6I5j6XRXWXeEY01j8ag6jCVubNypwBTC3S9Fa3hwWv2pf15uM1grdx3MEXsKGDLz5DLwct+MZNwJPM4DkB3if45H8eaDSz9uLQzSvu6ODqsUosc3i4dpbuKk82pagvG/vNOAGd2VxYF2VVZvRtgTPQS3YvG7DfhauE/qejVJib17HPmV1bTwPv2BQAwOlAQJPU9D5AV4B5pWH2DxM2EnbmdO4vlpFXSky8V85qK0XMRVkfRNYfFSD8yrMBoNbj+16cHY2UZySsBPf+C6g9LQBV6nS9D0X9adlzHKLwkAFHn5ZOZ4MZ9jtTuDJoN3lY56AN+zi5vUzqFID1ICqAQKvS9BJoxF4dCCpBT5SC9RAvjRA4BF4nCrT1ACDXL6CHMeL4yU1QOBpBjtmeHQe6Tx8pBaogXxpgMAj8JjhaWqAQS5fQY7jxfGSGiDwNIMdMzw6j3QePlIL1EC+NEDgEXjM8DQ1wCCXryDH8eJ4SQ0QeJrBjhkenUc6Dx+pBWogXxog8Ag8ZniaGmCQy1eQ43hxvKQGCDzNYMcMj84jnYeP1AI1kC8NEHgEHjM8TQ0wyOUryHG8OF5SAwSeZrBjhkfnkc7DR2qBGsiXBgg8Ao8ZnqYGGOTyFeQ4XhwvqQECTzPYMcOj80jn4SO1QA3kSwMEHoHHDE9TAwxy+QpyHC+Ol9QAgacZ7Jjh0Xmk8/CRWqAG8qUBAo/AY4anqQEGuXwFOY4Xx0tqgMDTDHbM8Og80nn4SC1QA/nSAIFH4DHD09QAg1y+ghzHi+MlNUDgaQY7Znh0Huk8fKQWqIF8aYDAI/CY4WlqgEEuX0GO48Xxkhog8DSDXZ4yPPMXK7h3a/IQgXYBaw0fvu/BvjtxiO3QYaXD8pFaoAZ61wCBN7DA+xwP//war1//FX/8/WFBj8Bj8Ok9+NB2tN1Ra4DAG1jgFWCc+S0qPwro/YjKoWZ6dNyjdly2R81RA/oaIPAGGXji2gg9TrVqapyBVD+Q0mb5sBmBpxkM8rSG13TCM1/CqotMrw7ry8Oa3syH4Js20Rx3fo7jSw3kXwMEnmbgyyXwxDUeEvRK26JoxYV1RXGGKxZc34e/XYJxag7lLQferjjOh+/WYN08G2Zd5gzKTxtw5Xu7DmrrS5hsG5MxzN61UHO88BziPLsenJ1NLE4q7aqfE+3Gzi2Pn4P1UvTFRkk9Pvh/DLP3qqi7UV99H55Tw8ZX0zA7HftS6ZPnom4VMd52bIc+8jhm39TAkWqAwNMUXG6BJ67zEKC3J/B2LFiOD9+pwd6yUWu4EbAcbFydD98TkNuyYe848ATIfB/O5lzcCVbs8HPyWHGuFxFo3AoWzQRQJkuwX0nANsLzb9XgCLC+aqCeBjxzBg+eyXNGn9mRMPZgr0SQDvRyFqXtxLHi/J4P/6WFWU1NMXNIjB/tF9c/7ZGZPQg8TTHlGnjiWk/9BpvR9Obmr0YPLKQ9gef7cKvLSsY2gvnHTgAvz/Pgu1XcUTI082qUGXpVFNVx+Z0F+94cRtXXjBEUqyF07JUR5TrO4sHzCJzWQvwz5jzWGhGoEhne7OMQxk4lkWEKeAqQeTZKp6PAfK0SZrDPV5VrE++NYfarJUzF+slgTqBTA/2iAQJPMzjlHnjiepvQ+xMeTh3MGfcGXg1lCQlp59OrqAeZnIfqbRVUoh/T0b4+BxtfdNGvKPNzHysZoZxOfbGJ87JN9XFStq9MaZol2MF0a0q2aBRwfj2EdBOsUbteZUkBbRf9VfvB/2k7auDINUDgaYpusIBXx6NLBwvUewKvsZaS7cxHa2g1lJNTkUYBqecTY2ROYP5WGWtPbNjPHHivZKYWrRVG4zj1qBFkkPVH0x2cKWUN7244Zepa8+mfSYL13FoEbQeVWxfiWaSmnvrlmy/7cTA/oP3yYT8CTzNA5R54zewumw3pqYCSWZYoWmmzbwpwlGPSzjd5sxKuv0VrfN4rF/UdG9Vn0Zqg0s5iJZrmvNvJAdvbl5AMimqiNlL/32pdz+SK3Vxz9MXa4uMSZk91apOvt+uANqFNjl4DBJ4SbLsRYK6BlzHshL3SAGVkCbzTZdQEhLwGrGQ2JYtZFOCF/fFQudHJmdqBN7MZrSu+sIPiGlFgk/r33UIM4OaH8yg9qSlVpi6qt9Xilk594Ovd+BqPoU6y1gCBNyzAOwTYHQXwxu/vMUWZAjxZfFL7Nrk+KIPHEipBBaeyhienLDtNae6rkTHMrtaijC9l3XLfz8u+8THrAMfzUVOqBgg8zWCUywzvkGB3FMCTALNXko47gjtRlWaw3y8aR1NC8Fk5dT+ceSOqsFSrNOWaXKdCl6400uqP3XE6NXkNfK4GI/5PPRy2Bgi8roJZS4i5A94hwu4ogCczPG+nHNsCINb1gs3tYrpTmdI0zCKqYhuB+AWHbxMbxieXUBH7AoN1OiXDMyaa++qc5FYGowBzqgjr6Vprf92VJRSnkhmk3A6R2ISvqa/Ddniev+XLtMXw2YLA0wxIuQLeIcPuKIBnnI72wQlIxTawe7C3w+nOGPCMAsZvVVswjD5jR5vIvW0LlbSN5+pmdS/aDK9ulnc2MSO1EmWR4i4scq2vFoHU2y7FwMygOnxBlWPev2NO4Mkg1uVjfoD3OR7Jnwcq/Tzl1ljZiPLQi1aCDGsZleZdWqLbk4nbfcnpSzXDi8Zx9HIZVfUzAmLBbcvai1aaAUrejizIEKNM8JWD2pMy5j9UMrrzpeDczduliVuQvWyg2rY5PhsbN/vXpUZ5PO1ODaRrgMDTDCL5AV4B5pWH2DxE2OXTqaIpz1cVLGqOfT6vN93xeS20yzBqgMDTDHp5At4wCnq/azZvV8Nqyu3SoWW9+/WB7xM21MDxaIDAI/Bie8vy74hz2NixUb481nZdo5dXUQumK11UbihTlJoayL+NjifY0G60+3FrgMDTDHbM8PrdaeUanVjrk7+UYCs/LeSh/mie2Z2m7o87ULH9fve7fPSPwNN0fAKv/4U9erkES/zckFp84onfw7NQSsn8GEz7f0w5RhyjLDRA4BF4bVN/WQiL52CAogaogX7TAIFH4BF4mhroNydmfwgWaqA7DRB4msGOU5rdCYsOSDtRA9RAv2mAwCPwmOFpaqDfnJj9IVioge40QOBpBjtmeN0Jiw5IO1ED1EC/aYDAI/CY4WlqoN+cmP0hWKiB7jRA4GkGO2Z43QmLDkg7UQPUQL9pgMAj8JjhaWqg35yY/SFYqIHuNEDgaQY7ZnjdCYsOSDtRA9RAv2mAwCPwmOFpaqDfnJj9IVioge40QOBpBjtmeN0Jiw5IO1ED1EC/aYDAI/CY4WlqoN+cmP0hWKiB7jRA4GkGO2Z43QmLDkg7UQPUQL9pgMAj8JjhaWqg35yY/SFYqIHuNEDgaQY7ZnjdCYsOSDtRA9RAv2mAwCPwmOFpaqDfnJj9IVioge40QOBpBrs8ZXjmL1Zw79YkgaY5xgwe3QUP2ol2ypsGCDzNYJgf4H2Oh39+jdev/4o//v7woFfa9uH7LqwrdP68OT/7S80OmwYIvIEFXgHGmd+i8qOA3o+oHFKmR+AxaA5b0OT15lfzBN4gA09c2yFDL1PgnSuh0nDhbZVSp2Gn7lZQf+nBXsmvwzFYcuyogePTAIE36MALoPclrLrI9Oqwvsx2ejNT4F2x4Po+/O104M0+duH7PoGnqVkG2OMLsLR9f9mewNMMHvlZw0sI7czhQI/AS9hZU08MiLQfNXB0GiDwNANUboEnrvMQoLcX8MypBTx42oDricKW6O+Vg9p6EVOmInKZ2cljlEf38RxkZtc8R/P99mKZ0ctlVBthJhgc76W0J2yxYgd9Euc3JpdgPffCPj5/Dkec/1UFix20sVgRx3qo3h5JnXplAFPGtoMNaSPa6Dg0QOBpOmSugSeu9dRvsBlNb27+avTAAbsT8CZvVkJw+D48pwZ7y4a9VYOzG4HPsTAvoXeuBEu8v+PAE7BxG9HxNqy705i6awXPa04IJbchziX+LJTOycAxgpn7tfDzuy7qO2F7dTdsz9suYVId6ybwSthwFCBvr2OtIZ57qNyQ51Yfi6gKgHtVFNXz8f8Da+k4AiDbVLU9+P8TeJqBKvfAE9fbhN6f8HDqYCJPBd5kGbUgq3NQuXk2HgjNaZS3Q3B51SJM1f4y0+tlDU9+1qlgcVK9prMoBe2JYpeJVl8k8F448JwKiufHmu+N36sF2Z5XWWq+1gyMt6oBVN0nC+3vqdfC/2kfsDAz7QAAIABJREFUaqDvNEDgaYpysIBXx6NLKhz0/08D3vUn4ZSis34hXfDmEiqvRBZVQ/m00qaEljbwRiD7UbmRMs14cTPMNrdLLcBGwPN9BxsXlT4IPZwuo5Y6rTmCO1UB6/ap1CYQNfXEzyVsT/ul+wztkoldCDxNIeUeeM3sLpsN6RI0rY3n09GUYAMPVJgl7FwMwOHDvqsEvJ6BV4ItAPXSwnyinRAorfdn5fsSeM9XMS5faz5KsCWmNc3lcDrzxSbON49V+s/XMglK/BJATR2WBgg8zSCVa+BlDDshynbgdbfGJQtRYnvqegXeuTXUBfD2/bNRkuMdAS912lIcE01dqu+bt8PpzPp9ZWpUno+PhB010PcaIPA0RZpb4B0C7NKBF2VT+xR1ZAq8L6Ipy1dOs9glLGqRxS3ycQ3X5XjLNTxRpSlfiz0uoCIKXprVmnLaNDENG/sMv5mn25J2oV36QwMEnmbAyiXwDgl26cCbiaoe957SbJb231IcodcMz2hNWaZPaSptyPHeF3gFhGuR0bRmtK7nVZdb64DyXHzs8KUhxe60FW11jBog8DSNnzvgHSLs0oEnQeGj/miPohWRPXlV3JFbE8Q49Aw8uW6YUoDSaXy7AJ4RFbuIac2wcpN775ipEOJ51gCB1ykgdng9V8A7ZNh1Ap5xUa6pObCutcr9A0cxp3GnGlVxbiamE+XUZIeikJlNJ1inS6v+HF+xwz14joXrpxJByZxG8XEVa+ovOnQDPOMCNl6E05oV8asQbqU1JdpBH3kOBux7Qjcc44HLRgk8TVHnB3if45H8eaDSzw9tGq69aCUMGpMSQB02nosbRMc2ggfjEK2bic+8EJvVa6itK1C8Vgnvtel7cMTG8mc1bDQhdhalrXB/n7/rwXkWrdvtNOAGm90dbHyhBLSugFfA+P1GsxiGe+8U+2n6DWFK2/WDBgg8TcfND/AKMK88xOYhwk4IuBPwxHvmpWVY4u4p8u4qEfysu3MY7WB381IZtnLnk9rqtPItcwQz39qtu7Xs1vCgeacVEVDGMHuvGvyiQrNiM4BfBeWrE3Hodwm85p68tP16Ha6hHxybfSBgqIF2DRB4mkErT8Cj4NsFr22TydVwy0NjDVOaWtFui+dXvtxkMHa0J+2Z0ACBlzDIfkGKwBuuQCTvGlO7x713+/kG3x8u38jjeBN4BB6/BXbQgHnVCm9J5lawqFaTdjg+jwGAfSakhkkDBJ5m8GKGN+gBooSq+HWHZrGLi9T7c2rqZpiCCq910H0kv9dH4GkGLgIvv2LvLhAvw5ZFNk4NG8lfe9DUS3dtDrpNeX3UQX9ogMDTDGAEXn8IlwGE40ANUAO6GiDwCDyu4WlqQNfJeDwDMzXQHxog8DSDHTO8/hAuAwjHgRqgBnQ1QOAReMzwNDWg62Q8noGZGugPDRB4msGOGV5/CJcBhONADVADuhog8Ag8ZniaGtB1Mh7PwEwN9IcGCDzNYMcMrz+EywDCcaAGqAFdDRB4BB4zPE0N6DoZj2dgpgb6QwMEnmawY4bXH8JlAOE4UAPUgK4GCDwCjxmepgZ0nYzHMzBTA/2hAQJPM9gxw+sP4TKAcByoAWpAVwMEHoHHDE9TA7pOxuMZmKmB/tAAgacZ7Jjh9YdwGUA4DtQANaCrAQKPwGOGp6kBXSfj8QzM1EB/aIDA0wx2zPD6Q7gMIBwHaoAa0NUAgUfgMcPT1ICuk/F4BmZqoD80QOBpBrs8ZXjmL1Zw79YkgaY5xgxO/RGcOA4ch6w1QOBpBsP8AO9zPPzza7x+/Vf88feEXtaOw/MxGFMD+dMAgTewwCvAOPNbVH4U0PsRFWZ6zHQ1tc6Anr+AzjHbe8wIPM0gkJ8MLxp4Qo+g09Q4g+beQZP2ya99CDzNYJA74InrO/MlrLrI9OqwvuT0JgNWfgMWx45jdxANEHjDALxDhF5p24fvu7CuFDB500L9lXjuw76rOuYYZu9VUXfD98T7nlPDxlfTMJP2N6dRXK/Bic4jjvVfOajdm2vL1MypBTx42oDrtc4bHLtexJSpti/+L8EW53ppYTbZpni+Ygf9dh+r7czBeinObaNkjGDmWxvurnjuYOML5fyn5lB6nOjzrgenWsJUrC0NO8Q+p7TF19t0cJAAyM8Ol7YIPM0AkssMT17jIWR6TeCtbMIRQIn+7JXIkcwZPHjmha+7DdS2bNg7jQgcHuyVs60AZs7DcqJzODXY6rHbpdZxhoBrpdmegGdw7FYNTgAkH75jYT4GvYMB78FdG17z+kLAi2BpXl1DXQJXXp/o9zMH3ovNFlx17CDHi4+xMSechgtOhzHeBJ5mUMk18MS1nvoNNqPpzc1fjR44oEjgOS88OJUizp+KO+XsYzeAnVNZwqRq68kSbAEKz0bpdPiZ8Xu1MMuqLMUzP5H13VQyr8kyagFkHFRuKsAU5zenUd4OAetVi8p5DgI8B+L6aqvzGFchahZRDfrhoXZ/RmkrbgPhuDp2OAxH5znbx4Q2GT6bEHhqEO7i/9wDT1xjE3p/wsOpg4k+BJ4P/8UmziftZ0aQcStYVEERHXd+3QkAZ6+MBOCVUKjfn9gTxNefRBBdv5B+nLmESjAlWkM5gunBpjR9eNXlNqDJ/rtJQB/QDgzEB9Mk7Uf7ddIAgZcMTvs8Hyzg1fHo0sGcQwIvFVJ3o3Uxaz4dTMl1s6+q4bShV8ODqxNtgAlFPI21hpj2bOBBE2bt11Cshlleay3xIBmeh8qNZButfqydS76XeK5rh3002MmZ+XrC7rRjut8NsV0IPM3Bzz3wmtldNhvSQ+ClAaGAqUeNcO2uufbVWuOTa33B45ZcnxvB/GaY9QWvuw1UVxcSBSjRNKJXRXGPsZPZYnMt8UBFK2lwlVmkKGjZO9Dq22Hv8xFstA810JsGCLx9glVSWLkGXsawE7aRa3iiSjNpq5kIXt4LOyoq6fD43ULss6Pnl/Bgy4EnC1BeNbB2NZz2bE5NHinw0qAWZYz79EPYpFc7JO3J5+0ao01oEx0NEHjDArxDgJ0Q2l7Aa5b6d5rS3M/2oljlSZTxuRVcD46fwUZQyZmWdbWcf7EipjQ9VG/J1/ae0hy/H2ajnbclyPPIR7llYe9+BM4op257tcN+duL7sS9MOgGQx0o9D8cjgacZLHKZ4R0S7PYF3rk11MV0ZlpBS9d2v4CNF2IqtLX3TRat1B/tUbQi9vx5VdxpFsvIisoays3XpJOP4E605tc98AoIoeqjYz/kNWZiB9lXPhJS1ECvGiDwZFDq8jF3wDtE2O0LPGMCpWiLgGMtYDRhY3OqCOvpWnOv2tSNImYT2xoMUXEZbFi3UZKguhiB1HdgXRuLf7s3p3GnGlVxbipbGYwJlJ+Fa4jO4/lYQczkSmuPnQ7wDKUfbdsjTi1go3ltenbo1Zn5OYKAGthbAwReIgjvJ5hcAe+QYSdsteeUprCt2G8n75riOeHG8y0btUYIJd/ZxEw0BrLQxG20NpLLu7PsBam0jefeVim+7y/YJG61Nqu/CNsI++HAsqI9gB3vtJLuSCosfbkBXm6sV+/qomGH/TTI99PHgnahXfbTAIE3sMD7HI/kzwOVfh7LaPYThc77+wJP2PfUHMpptwB7Usb8h7IYpYDxG2uoOV6rWGWvW5AJgF1ahrWjFLdEx1t359qySXlNkzc3gzZklWhwizOxeV2us2kCT5x39HIp3o9dD26jivLlRPbZpR1kX/nIAE4NZKsBAm9ggVeAeeUhNg8RdnTGbJ2R9qQ9qYHD1QCBN8DAo/McrvPQvrQvNZAvDRB4BF686EPTHnT4fDk8x4vjNcwaIPA0A3yuilY0r22YHYHXThBQA4OvAQJPEwoE3uA7BQMfx5gaGEwNEHgEHqc0NTXAYDiYwZDjOvjjSuBpBjtmeIPvFAx8HGNqYDA1QOAReMzwNDXAYDiYwZDjOvjjSuBpBjtmeIPvFAx8HGNqYDA1QOAReMzwNDXAYDiYwZDjOvjjSuBpBjtmeIPvFAx8HGNqYDA1QOAReMzwNDXAYDiYwZDjOvjjSuBpBjtmeIPvFAx8HGNqYDA1QOAReMzwNDXAYDiYwZDjOvjjSuBpBjtmeIPvFAx8HGNqYDA1QOAReMzwNDXAYDiYwZDjOvjjSuBpBjtmeIPvFAx8HGNqYDA1QOAReMzwNDXAYDiYwZDjOvjjSuBpBjtmeIPvFAx8HGNqYDA1QOAReMzwNDXAYDiYwZDjOvjjSuBpBjtmeIPvFAx8HGNqYDA1QOANMPDMX6zg3q1JZnCaY8xgN5jBjuPKcSXwNINhfjK8z/Hwz6/x+vVf8cffE3pdBzuziOorH/6ug40rDBBd203Tj3heaus4NEDgaTpqfoBXgHHmt6j8KKD3IyrM9LrLdAm87uyk6TfHEdzYJqGa1ACBp+m4uQKeuDZCL7MAfv27GpxXzPySQYTPCZa8aIDAG3TgBdD7ElZdZHp1WF9yerNX5yxt+/B9FxanOjP7EtHrWPBzhGwvGiDwhgF4hF4mAZrAY5DtJcjyM/2jGwJvWIB3aNAbw+y9KuovPfi+yIB8+J6LulXEeNK25jSK6zU4XnSc78NtVFG+PJYOpFNzKD0W04it4/1dD061hKng3HOwXor3bJSSbYnnVyy4oj/bpdj5VXBN3rRQj85v3xWO2X7O8HilD/I6RbsXN+GI568qWEzrg1HAYkXYxkP19kisHwyE/RMIORbDMRYEXocg1ckBcreGl7y+U7/BZjS9ufmr0QMG4LMobUegcxuobdmwtyKgvbQwq7Y9uYSKE0HDqcEWxz5zIkg6sK7GYWBeXUNdgrF57vAz3ovN6NztcIqN237AW4lgFQHMXkkH3vXvxHXZqLui/x6cnfC5vbWG68Y01hrh65UbaUGjiKq4Dq+KomoP/n9A7aXZmq/F9E+NtWmMwNMURe6BJ663Cb0/4eHUAYLEtUqYQT1fxWTMjmOY/WopysLE+SciMHqo3Z+BqRxrXrXCDEkFpKiUDGDXfnzcoQ8GPOeFB6dSxPlTqg06n1PNDNV+jN+rBeD2KkttDmbcqsITmeyThfb3FDuo5+P/6njwf+ohOw0QeJpBZ7CAV8ejSwcQ04rdOdCrdpWZVhsYRdsjuFMVWWKrGOT8epj5uZWlGBzbHb8znIJjZbupU5o+/BebOK/2M/i/8zk7Ac84XUYtdVqz/drar+EA9m/rO89F+1IDe2mAwNMMGrkHXjO7y2BD+rk11IPpQAeVWxcw2sGWM5shwGrfxqctpTBnH7sBOMMpRTlF2MDauf2ctzOcgnPvA7z6/YmUrKvzOTsCrwltD7FpTXM5zFRTwbrftfF9qQ8+UgtZaYDA6xCkOxk418DLEnaR3SZX7GDKLihW2XVQe1zCbGyKsIBikMGlFX3EX3M2Z2AYS6gERSQdClFi49UZTsH47Qm8BJya5+18zs7AK0BOXarTmubtcDozHawMYp18jK9TG4elAQKvGei6E1lugXcIsJOiND+cR+lJDe5uBLBdF9XbZ5vZU2krfN19Jos90h+tu9MwjBJskTV2VeTRGU5B3/YEXmsKVV5H+Nj5nHsCz1hARRS1NKs1RxAeX0P5dHfaiveDn6E9qIGsNUDgDQPwDhF2cUGOYXa1FmV8rUAvpyw7TWnGzyGB08CDfUEhj+2QDd6ohH1JXcPLGngFXH8ipmajzDFa1/Oqy/usQzKoxcef9qA9Dk8DBN6gA+/IYCdFKgs1fIT72pTpvi6Df7hvzUf90YVmlpgeBOR6nwvrqmy/9SiLX/bah9d+3s4Q3TvDK8CI9uSJac2wcpN779rt2xofvkdbHLUGCLxBBt5hw+7KEopTyUKUs3jwXExhqhmUhIgH+9vptoxn9HIZtqVsDr+oFMPcbE2NBs5xagEbT9eae/zCrMqHt12KbY1obncQ06NZZXjB1OxeELuAjRfhtGZF3IbMreC6pr6OOgCwPUJnmDRA4GkGpPys4X2OR/LngUo/b4NMJiKX2xLkRvItG7Voc3k7gDbhyDU+ZSO5PN7fUoBnFBArhpHn32mE64Tqnr3JEmy5Qf2luqHdg/042ieYEfDkfjt/1w022ddeVNru8DJ+vxFtpufeu0w0pumfbJMA30sDBJ6mQ+UHeAWYVx5i87BgJ+x2voRqw4UnQeb78F42UL03l7pFwZwqYmPHaTveXk9u/g6ddvRyCZZ6/K6Xeisy81I56Efz1mZuA9VvZ2BmXLRiGGex+FgpznEr7XdPkXvyfAcbFxl89go+fI/6OGoNEHgDDLyjFhPbK8CYXA33JjbWlDvNMLBRG9RAP2iAwCPw9ikMoaPqOKpcU6zdS9vUTlvq2JLHUi9Za4DAI/AIPE0NdHLCZqGMW8GiyWDVyU58ndo4Lg0QeJrBLk9reMclquFqt4SqKKqRBTW+i8qNZOUqA9xwaYLj3a/jTeAReMzwNDUQd+Zl2LJox6lhI7mN4kDnZuCM25r2oD0OpgECTzMgMcM7mODosLQfNUANHJcGCDwCjxmepgaOy1nZLkFBDRxMAwSeZrBjhncwwdFhaT9qgBo4Lg0QeAQeMzxNDRyXs7JdgoIaOJgGCDzNYMcM72CCo8PSftQANXBcGiDwCDxmeJoaOC5nZbsEBTVwMA0QeJrBjhnewQRHh6X9qAFq4Lg0QOAReMzwNDVwXM7KdgkKauBgGiDwNIMdM7yDCY4OS/tRA9TAcWmAwCPwmOFpauC4nJXtEhTUwME0QOBpBjtmeAcTHB2W9qMGqIHj0gCBR+Axw9PUwHE5K9slKKiBg2mAwNMMdszwDiY4OiztRw1QA8elAQKPwGOGp6mB43JWtktQUAMH0wCBpxns+jHDM2+N4Ubl/daf9Q7eM97C9B+i16x38EHyB0k/Pom56DMLD36CE+Mn8Uv1HJX3cPGfDiYuOiftRw1QA/2kAQJvAIBnjJu46XyCh3+Tf2dQ/OYEzG9+Fr12BssP3oxlch89+Sh67x9w9VoBrefRObbfxZimbfpJ2OwLAy01QA0kNUDgaQb1fszwxKC24BYBy3kPH5lvYe4v8vn7+HQ8coBrp/BNBMf735t4+5ej+LoJS3F8CMGkWPicAYQaoAbyrAECb0CAZxgK3CJ4ffOHt3Fi6T2Uo+flJydhGG9iZvtMlN39DJ99fAKf/SCfh3AMjzuAY1/chOP78H0X1pX084xeLqPacOEHx/nwPQe19SKmklOvqeMzgjtVL/zsdimWuebZGdn3dK3QLrRLVhog8FIDameB9WuGFwhCgVs4vfkhZj57A59+/3EEuAn8ev2nuB8B8OtHb+Ht5febz8PPCAh2vv79hTeCooRRB+BNrtjwItA5z2zYWzU4uwKQPrztEib3G5OLa6hLUBJ4BP5+euH71EikAQJP0xn6GniGCrdoKvOHd2B+9i6WY1OWn+ChmPIcextXG9Fxwftn8PV3bx3MOa5YcCWM0oB3ugTbExldAw8ujbTaMudhOSH0avcmWq+3jc8ESttRdifaIfD2sNVBvrjws/t/uaON8mYjAq8toO4t4v4GXgFGG9w+wsJSAR+sT0RZngDcx7i5/Abe+0597RM8bJzCeFdTip1sdAFrDR++W0FlJ31K8/y6E2RyzvqF9kB9rRLCsrGGqQ7jYt6qBtlhvRIdS+C127GD7fIWnNjfTn7G13vVBoGnGRz6HnhGEm6f4OFfxvDB2EksyEpOUYH58TsoxrK+EIK9Ckl8bvLbGjzfg31XZGFpwJsOgeg3sHYuzWmXUHklPldDOQ28Igt86cN3NjErM8l9gGfeDgHpPytjPHWslTZPF2Cs2AGQ3cdzqSBJv67wWsypIjZ2HHjR9Ky/66L+tIzZU2nXytcOojV+lvrpRQMEXmoQ7CymPADPMBW4RVOVYltCWMk5gbnZlG0IYupT0xYxwU2WURNTlc9XgzW4dDCUYItpyFcVLKa2NYJyh8zQMEYwb4kiFxeVGyMwugSeYRRRFf0SEBVAS7Z7oxJkjF51Obz+HoE3ebMSFer4CNclbdSiKVrfsTCfBvBkX/i8fXxoE9okQw0QeJrGzAXwUrcpiG0Jb+Kz8kmcULYlhIUqE5j7ZQoMurbNWZR3xLpaAw8mw/OkAu9cVGzibGKmw7lLWwJOPuyVeH/Mq+HaoFtZCsHUNfAKWKyEa35pa4NhgY2H6q2ovV6A11yXrMXXJQWkH4dTuJ0yxjYAd7ALj4vrgfagPXrRAIGnGWDyArz49gN1u4G6LUF9vXcHmt0Mg3r9/tnmt9FU4HUBqdnH4VaFGPAkUNwKFmWm1MW5mg4h1wbbpjWj7M+t4LrUQQ/Ak31Wr7/ZtrkcZpgvLczKNvjY1EnTTrQJbXIEGiDwNI2cH+AVYKRkcuq2hCC7c5QN6Zq2EMFKZF5iz11yO0F2wDsbVWU6sK4qVZ06wDMWUHHbpzXl+l4s+9IG3gw2gqnLDuuOxly47ujbKPVgXwKh9y9itB1tl9QAgacZhHIFPCNlrS5WqNJ+y7GkQPZ8Pim3GNgoJdbH9gTe89UOBSSFaA+fnGJsTQk6m4kiEi3gFSCzsNa0pty87mDjohIYtIEn1wjDqdjmRvrm1gz5uoONL5R2NHW35zjwXMyOqIGuNEDgaQolb8Az2qoxlX13onpTThFq2kEE4HDfXCLzis6TCjwjKlrpOL0ni1ZCOMgN6snsMQj+msAz5N1f5LSmnGpMwlcbeNE17bqobYlN9J3+LJRSK1MJQcKcGjgqDRB4moE+d8AzCu377YIsL9yfdxChdc5mZFYjH+UtxqJtBaK4JZERhv2Itgh4VRSbU4HyHPs87rM9wTAuYOOFOEdYrWlGYGtlfFHQ2RN4E3jwXJxDXo/4jJyy7DSlyWB2EI3xs9RPlhog8IYAeIaZvKPKJ3h40G0IRmGPbMZGPVgz8+DsiIynld1cfxIWpbSBRoxDVFwSbhGYRsnqlC3ZsMV+NzFt6DbCfny3sO+Uxvj9RlABWrsn1gXF3V6quJPMcKON7f5OuX2bhswKY8BTpmFvK2uMmrrK0ql5LkKCGkjXAIGnGZjymOEJ8cfvmSnusZkuiKwcJX1KswBD3gfTs1GeUgDRvLWYg40ON5yO9a3TlObFaD9gYw3nk2N7uoxacDsyO9gP6FWL7ZCUx/jJqVpZPJPM8AqtPYHJawraH8PsPRvW3cO1d8w2yevm8/Zxpk2G0iYEnqbw8wo8w2j9KoL4FYXDDpAdgSf2pkXbGMSUaPLm0c7mfHtmlTZGHYD303u1IIvz/UQxSnCOCZSfyalRF5VraRBqFcr4vsxQa2HG6liwUjfGx6/JbdSi7Ld1U2ybwDt0zR22pnn+NH/J12sEXlow3eO1/AKvAEP87p3zPibl7+LtcZ0Hde7OwBMOMoKpryzUgmnPEECeU8PGV9PdwU70uwPwggxS3NorLcMT2yiiNTq/Y+GM6N9ZLK7X4AR3aPHh7wrwbWJxstDhlmnymjZRc5QbW+96cBs2Nm5dwOgh2vqgY8XP5ytoc7x6Hy8CTzMQ5Rp4RgHvfnqC37Q1x5wBpvcAQ9vRdv2kAQJPM/jlHXj9JD72hcGQGqAGjlIDBB6Bx4xPUwNH6aBsi0CgBrLTAIGnGeyY4WUnPjoybUkNUANHqQECj8BjhqepgaN0ULZFIFAD2WmAwNMMdszwshMfHZm2pAaogaPUAIFH4DHD09TAUToo2yIQqIHsNEDgaQY7ZnjZiY+OTFtSA9TAUWqAwCPwmOFpauAoHZRtEQjUQHYaIPA0gx0zvOzER0emLakBauAoNUDgEXjM8DQ1cJQOyrYIBGogOw0QeJrBjhleduKjI9OW1AA1cJQaIPAIPGZ4mho4SgdlWwQCNZCdBgg8zWDHDC878dGRaUtqgBo4Sg0QeAQeMzxNDRylg7ItAoEayE4DBJ5msGOGl5346Mi0JTVADRylBgg8Ao8ZnqYGjtJB2RaBQA1kpwECTzPYMcPLTnx0ZNqSGqAGjlIDBB6BxwxPUwNH6aBsi0CgBrLTAIGnGeyY4WUnPjoybUkNUANHqQECj8BjhqepgaN0ULZFIFAD2WmAwNMMdszwshMfHZm2pAaogaPUAIFH4A1ohncWi+s1OLs+fN+H/2ITM2YR1Vc+/F0HG1cOIdAc9vk1tXqUgYRtHYKeON6ZxyYCT1NU/Z3hvYGryyfx7T+Lv7dwPnFto+ffwtdrf4cf/tdY8Pc/1k7iv//qDYwmjst/8BpBseqFoHMbqG3ZqG2vEXgDN86ETP599WjHkMDTDAL9Dbw38S//3wT+8z/F3xi+bl7bCdz5/oPodfm+fPwp/uUwsp1m20cr6DAAlGCLrM6r4o55HO2zTQZiaqAfNUDgaQbmPALv/Np7CuzG8e//9vfh339M4D//7e+wqGmDfhRyrE9XLLgCeDtlmIN2bbyezKe5YtqhfQfavgSepsDzB7w3sfGjzOb+Hn/8Svnmab6BS+dPDJ7AJfC2S4N3bZp6ZTBX9E7bDb0/EHiaTpBH4LWmOf8e/2PpMALACKYWVlFtuPBkkYjvw3vZwMa1eHvm1AIePG3A9aJiEpGJvXJQWy9iqm36cQ7WS3GcjZIxgqmvLNTc1ufcZxaKUyOKE0dTmeKciT/38RwMQz1fvF9GcP5N1Jxo7U983m2g+u0MzBU7OF94juTn1Oedzz96uRy3z64Ht2GheFr9PP8noKmBw9QAgTfwwCvgTvVDZUrz7/Hj9ydx9cOsHOss7lTdJmCcZzbsLfFXQ/2lB3ul1c7kzQqcCESeU2se16ykdCzMx6DXAoi17sD3PTg70bkl+Lwqis3PLGBNtL3jwIuAFfbFhnV3eg/gjWB+U5w/BKW8hlojvK56I3yvV+BNrthhf3Zd1IP+2xFYXVgDt37aGu/DDFw8N+3ciwYIvCEAnvHJT/DDv40r0BNTnOP4W+0dLH5yMMc5/6gRgsKpYHFyj3NNllELsjoHlZtTAIaHAAAgAElEQVRnlaysAMOcRnk7zKy8alFZd5PAE1mgjbKazZnzsJwQUPX7E/HzdZzSlOcTGWOrr+aNSrjm5yXaMAqYvF0N3/N99Aa8BVQCODfwIGGf0ctFLJ5r9aMXB+ZnaD9qoHsNEHhK4OtGOPmb0ozEcOpNfPu/fpqA3gT+89/H8HWv0DOXUQ0g1h7Mk7a8/iTMlpz1C3E4SfubS6iIPXJ+DeXmNJ8ElI/6/QQkjUJzqtHfSqzVaQFvBKVt0a6H6m11elQ60QgWKyGMewNeNM36qjJ4xUFy7PiYrmnape/sQuBpijK3wJPXab6Bq/dG8TdRoRlsX5jA3/71v/QmzFvVYKpOZGVJwMWfT2OtIaDSwIMmzCRQWo9y75x9V74mgedg4wv5mvLYCWydXk9dwyuG0BZTo9JGyccDreHJa/fhVIo4f0rpf7IdPt9HR7Rd3K9oD117EHiaQaa/gfcT/BBBLL4Pr90xzH8+1QTef9o/6SnQjN8PpzOdzZl9Pt8FVIwCZh+HWWBr3U8CLz4F2RR5J7B1ej0NeKdXURdrd84mZjpp4UDAK8CYLMEOstdwCtbZsVC6PLaPzdrHrHndnfrJ12lTamBPDRB4mgLpZ+BN/vMp/LsE3o/v4FJ0beeXfoLF8/EAOvX//F9N4P179e09RdIp0M5EhR71R6IgJH7++PPWRvCOWdRxAU/C8fkqxjtdw0GBJ85rTmD+biVeZfp0GZOd2uTr+2hqL73xvbj/0R7SHgSeZmDpN+Bd2nivuZFcTlGKxx/X34wCxht48DyavvyPaMP5v6lVmz/Fv/y3Hh0iAoFXWdonOM1gIygw2XtKM1wr81C9JftzBBmeEcH4pYX5DlqQmWxva3jyWlqPo5dXUYsyvtq9RMFNhz5Ih+Vjy460BW2hqwECTzPA9Bvw/ntsy0EItn+vj+Bqs1RfneZsrdsFcPyPD/DH2wfYeC6nA2NbA9KdUBat1B/tUbQiqhljtwM7CuDJNlxUEnsGQ2c6iwfPw6nIrIAnzmveDtc/2wpuNPWo6/A8Pl2ftMtw2IXA0www/Qa88zdG8C/fhzeD/uFfR/D1jTfbbgZtfngCV4sn8f/+a3Tc9+/gQfG/4B8PXEDRukmz92wVM03ICucZwdTvqrBkAcrFtXCtzHdgXUusX5nTzb18zqbYIC6dT8LoENfwjAJaWyssXI/ZZAQz92vhHrrktoSL0TaLxppyk+60/s5h8atpZatFeG2T0frn/hCVtuBjSxe0BW3RmwYIvGZw7c6A/Qa8Yxe+OY+NF2EG5Mc2VoevtQpQCmhuwBZ3YUnZeO5tlRJrWmkAUcZJrr8lbyHW6fW0opVg/Oew1ojusNJ2DQ4sq9Z2p5Wf3gtf830HGxdln9L6K9cvneBXG4KN8M+iTe6ejVJib96xj6emP7C/cuz5mActEHiaDk7gpTi2OY3rq1XU5d1PRNVjh9uFmZeWYYk7oai3IHNqsO7OtWWme98KrACjE9g6vd4ReOHm96L4/Tzllmduo4rypREYaUUrImMV17BvhncBJXErNaVK0/dc1J+WMRvLJlPsqqnNPAQc9pHjfJwaIPA0gwqBN3wOOxXdTabtji5t2knL8IbPXscZ0Ng29baXBgi8tqC1t2AIvL3ts5fY8vnehWjKtov7XsoinsYapjR1lU/bDJsWeL151ymBpxmYCLwBdPq7FdQfp/xagzmNYiVab3u+mlhfTNphBPPWPrdP09Ra3oML+5/UCJ8ftyYIPM0gROANoNNGa3T+rgf5Swn2TgOuXGd0q7iTWlxSgu02gmKU2ouo6KXtFx8G0F6aPnPcQY7tU4NSAwSepvMSeAPoPLLo5mUErehngsTv+VVXF1J+p0/aoBj9EoKPAJZbLESRgYWPUiN87CctEHgEnrLvjc7ZT87JvlCP1EC2GiDwCDwCT1MDDELZBiHak/Y8Kg0QeJrBjlOadM6jck62Q61RA9lqgMAj8JjhaWqAQSjbIER70p5HpQECTzPYMcOjcx6Vc7Idao0ayFYDBB6BxwxPUwMMQtkGIdqT9jwqDRB4msGOGR6d86ick+1Qa9RAthog8Ag8ZniaGmAQyjYI0Z6051FpgMDTDHbM8OicR+WcbIdaoway1QCBR+Axw9PUAINQtkGI9qQ9j0oDBJ5msGOGR+c8KudkO9QaNZCtBgg8Ao8ZnqYGGISyDUK0J+15VBog8DSDHTM8OudROSfbodaogWw1QOAReMzwNDXAIJRtEKI9ac+j0gCBpxns+jHDM2+N4Ubl/daf9Q7eM97C9B+i16x38IGZcKqPT2Iu+szCg5/gxPhJ/FI9R+U9XPynxGc0bXVUImY7HCdqgBroRgMEnmYQ70fgGeMmbjqf4OHf5N8ZFL85AfObn0WvncHygzdjmdxHTz6K3vsHXL1WQOt5dI7tdzGmaZtuBMdjGJioAWrguDRA4GkG9b4EnlFQ4BYBy3kPH5lvYe4v8vn7+HQ8crRrp/BNBMf735t4+5ej+LoJS3F8CMEsRFna9uH7LqwrdPIs7MlzUEfUQO8aIPAGBHiGocAtgtc3f3gbJ5beQzl6Xn5yEobxJma2z0TZ3c/w2ccn8NkP8nkIx/C43kWlOiSBl40dVZvyf9qUGuhNAwTewACvAEOBWzi9+SFmPnsDn37/cQS4Cfx6/ae4HwHw60dv4e3l95vPw88ICPYmpjQnJPCys2Waffka7UsNdK8BAm+QgGeocIumMn94B+Zn72I5NmX5CR6KKc+xt3G1ER0XvH8GX3/3Vmyt76DOROB174wHtTU/T1tTA3trgMAbKOAVYLTB7SMsLBXwwfpElOUJwH2Mm8tv4L3v1Nc+wcPGKYwnqzk17ZN0OAJvbwdM2ovPaS9q4PA0QOBpBvR+LVpRnSQOt0/w8C9j+GDsJBZkJaeowPz4HRRjWV8IQfU8Xf9vTqO4XoPzShSohH9uo4rypRHsBTxzqoiNHQfebvS5XRf1p2XMnkoIfsUOzus+noP4jPXMbbbjOXbQTtDXyaX4+dwGqt/OwEwd4zHM3rVQc7zmufxdD0G/L4/tk+VewMaLsBinci3R16it8fuNsM9PFmAYc7BeiuNtlNL6csWCK+y2XUppdwyz96qou5GNfB+eU8PGV9Mdriu9P12PZVr/+FrKuNDOedQUgafpzHkAnmEqcIumKsW2hHCbwgTmZlO2IYipT01bBII356Pg78PfdVDbsmFv1aIA3UA9AkOySnPyZgVOBEfnmfiMjZoTBXXHwryaaUrgVSzYng+3UYsf79koXSoF7/luI+xDE4oe7LsT8YBlzuDBswh0ArI7UfsNCVIP9srZ+GcStpl6pAItGfwm8OC5uBYHGxfFez0CT+2nvK6dBtzgC8L+fcxjQGKfk1ri8yw1QeAlAtl+xs0F8FK3KYhtCW/is/JJnFC2JYSFKhOY+2UvjjWCxUoICW+7jCkVUsZZLFacKHtKbEs4HcHJq+HBpREFLCOYfxx+RmRzzbGIgCeyx/ojNWM7i9J2CC7P8+A31jCj9GHy2xo8AdXGGqaa4zyCeSvq87PV2PGivdFrVgTiBtYCWHWwy+lV1MW53QquN88dHXtuLXyv2W5vwJt9HPbTqSxhUm1jUtrPRul0h/6px/P/lpZoi6G2BYGn6QB5AV58+4G63UDdlqC+3kPgNEuwRdD3qrijgKYJKnMJlWCaMw48Gcjr91OyKHMZVc+H/9LCrBwbCbw0uNyohFBrZlPqdRTDc6lTiafLqO3VZ6OAydW9sjd5/gmUn4kszkVyWlNmf7V7MrPsAXjStm4Fiym2Pb8efjGwV9QvDLJvfGxqUGqIj0MNOqkHAk/TEfIDvAKMlExO3ZYQZHeOsiFd0xbGrWoAG69a7OhM7Wt4M9gIpi5rKKcE8tTpvwh4qe2YEcBeWphv638KaGSfK0sd+2zIDM3ZxEzbOVswGb9XU9bp5Otyfc9GqXl9Kf1Qz5u2hnc3Wre05tP7Kad51UxYPSf/T7cb7TLUdiHwNB0gV8AzUtbqYoUq7bcck9+EunmUhRnO5kxHJ2oHnsy6WkUYstAl/uhg44sIInsG9yjLVDPC5pi2g0ZmX/VH0x37bBh7nVOCrQBDycKa05oXN4MpUa+6rKyJtvcjZt8U4Ml+xm2SYrOttEIXpY9NW/C1mM1plz30P7haIfA0hZ834Blt1ZjKvjtRvdnMQvRF3pqalFN37edoB14Ek103KnAJC0ZE0Ur8z0LpXHS+DIE3sxlOBWYCPGMEd6piDbE1rRlONXqo3FBtoQ882U/vRdIuieffiSpQtS3+T3tQA500QOBpBovcAc8otO+3C7K8cH9eJ2F09boEUadpN0NWK6preDL4d5rSTHFW2U7q9N1e2ZhsS9kOEE0VentNacqClGbRSUqfIt2Yt8NpXVfdftC21pjSD1V3ch1S3ZYgr7mjbTv3qauxU9vn//zSMCQaIPA0BzqPwDPM5B1VPsHDXrchqPaSU3FtAT4KxpNRJWPi5tHFICvyUL3dZcGFDP5ZAE8pWil2yG4noz10zvqFLgJhVJgjbBDZo/1z01hrhAUu1tV2UMkClNg+PLmO+GIT51Wb8/8uxqTdxvwSQJsIDRB4mgEkl8AzCol7Zop7bGbhABeiQO7DsRYwqtpS3UOWAJ4hQenZKE8loSc2Wtuw7ir9yxJ4xghC4Ppo30ohtiVsoi6qRMXevmbJ/wgWn4gtAh6qt5L9LeB68J4Le0tMlzawJqdiFXuEx4g2S7EtBuZVuQ0iufF8ornlos22YtuJ2ID/dK1Vyaq0xeCuaId24RcERQMEnmKMbgJFXoFnGK1fRRC/otDNtXZ1zJW1EBDBnrRo0/dWDY7YHO1YsHaizCb280AjmI/W0kRRhtxILjasB5/zfdiHBjxRbKJulk/ZeL7rYOOqCrYFVOSdTraW2213rRLeKUXY4FkZ42maknvnxDEvw43z9jMBSA/24+jz6pSmOIf4jLx7jSc39duoyQ3y+1SRdjV+aX3la+1jTJsMhE0IPE0h5xd4BRjid++c9zEpfxdP89o7BdBOtwgTm8Dbi1bkt+8RTH21mXJrLxsbty7Es8VMMzzZ/llcX62i/lK5tZgnbm22iuttWecIik/FcekZXmsrhY+99sWZl8qoSlhFXxCCW5/JjDcJPDE+p+ZQftqAK7JO8Rnx98pB7UkZ8x+qUJbXxcdOOuXr1AaBpxn0cw08o4B3Pz0xEN/UGLwYvKgBakBXAwTekAFPVyA8nkGFGqAGBkUDBB6Bx4xPUwP/P3vn/9vElff7559xKO3CpOImbEUFSaWVtkZ6nqRS6F2iioA22fu03CWpqFkBe8GoGIlktxuEEimMSv0IajVMlDt5kC3B3GU7UKYR8z+9r87MHM8Xjx37OE489vsHy4k9njnnc97n/fLnfBkPSudnPQiyYdMAgdeh2WV9SHPYBM760tSpAWpAaoDAI/CY4XWoAdl5+EwjpQaypQECr0OzY4aXLYHTkNhe1AA1IDVA4BF4zPA61IDsPHymkVID2dIAgdeh2THDy5bAaUhsL2qAGpAaIPAIPGZ4HWpAdh4+00ipgWxpgMDr0OyY4WVL4DQkthc1QA1IDRB4BB4zvA41IDsPn2mk1EC2NEDgdWh2zPCyJXAaEtuLGqAGpAYIPAKPGV6HGpCdh880UmogWxog8Do0O2Z42RI4DYntRQ1QA1IDBB6BxwyvQw3IzsNnGik1kC0NEHgdml27GZ4ILB+MATVADVAD/aWByclJpD3+7cSJE0h7DPO3mnaAN8zxYd2z9Y2X7cX2GjYNpMFOvEbgpWR/BB4NYtgMgvWl5gdJAwReCtiaNTCBx87fTBt8ndqgBvpfAwQegceFKx1ogKbW/6bGNmIbNdMAgdeB2THDY0dq1pH4OrVBDfS/Bgg8Ao8ZXgcaoKn1v6mxjdhGzTRA4HVgdszw2JGadSS+Tm1QA/2vAQJPAXjcW9Nfe2vYHmwPaoAa2EsD4gsJgacIvKH8NvdZEeWaDWezyGHQDnQzlFphfNhH+kgDAoYEXocNIoc0ZfCGzsgu6bBdF+4WgTd0bd9hX2F8+n94b5jaSHo2M7wOOnLPgaf9Eev/XcX6n8YUvh3m8Zf/quJZ6Q/QOqhTR6In8BTahcbXkcZ6pV2ed6i1S+ApdIBeA0/79zv48V+/4JdfOoWegN1L/PLLL/jXk7/i047rNo65exVUXzlwRQYnHo6Nql7AhDiXBJ18L/Jsb1yMdaSxC0Xo2xac3eA8rgvnVQ2Vexcx1lCui9BfieMMFHOjmL1rwPY+Z2HtixAU2lQBa9Fz7tqoPi1h7mR4DE2VsaAGqIFmGiDwGsx3b7H0GniisTqHXgi7l//1FwXYnUVxKwCdXYO5acDYNGE5LtxXOuZEnD4rQhevC+gI2Nk1GN5xBvRb0wHwRjF73/Tfd13YNdM/ZrsWQMyFs1VEPhb3EHjLt4z6Z13Xhn7Jb4/812VYAWCtHVE2A6YVwNTSsaDt3W7NOgFfZ+yogeHQAIEXM972Gv0ggNcZ9PL433rVy+zUYDeC3Jdlf17u+UoCRuOYu7qEqWicZKaXMoenzQfze46J5fOjsawvd/Iy9ABS1QfnIu9J4FmwXjgwVxYwEQXYJ0UYArwN5xzFwoblZaLJDJMG1p6WGSfGaZg0QOBFjbzNvw8KeJ4Qf//XPYY39wF2ot53DA8cTnkpAqImZtAUeJMo7Yisy0HlegJ2Mrb5FVS97LCMr+RrOQk8F07lZsPc49yG7ZWtev9sY9m0m6hEs9D6OZuUne83xpAxYUyGRAMEnkJDHyjwRPmaQm8M/2vdz+yq+p8VhjEjUPhs1QeRa6F87VzKPFvk2KbAK/jweVPGYtO4TmO1JqAYnZ+TwHNQvhK5jneOWax5WaGJUjTrq59fflbM/yU/y/+H6ds760q976UBAk/BJA8ceKKMDdDbR9gFMcjficyf7VowN4rpC0KaAU9Cs7YaHwJNxLi4JYAXzs/l6hleDcufJDttANHIApn6gprYa1GAJs/B//cyAr5PjQyDBgi8hBm30+iHAjwJvf/nr9788ck+ZXaJ+mtnFlB8bNYXmLi7NirXE0OJzYD3xbq/sEQZeGlZWhGGANuuHSyk8ResyMUy4bOO4mc0rXb0y2Ook2HVAIGXMPx2hHBowItB7xdU1/8T/0Oh/O3UMZcbx9yKXG1pohTNvJoBLxfAqeWQ5iSWn4sMr4bVOqBaDUvK95oNadK82mtPxolxogYIPAVgHCrwRHlP/g7/PvW7HsJOdoxR3Kj4WxWMW/K1yH68hlWakUUr1/ZYtPJiHTP12EuopWV4Iyh4ZWixEKZ+nkgZ+RoXYlAD1EBCAwReIiDtfAs8dOAplHnPel1aQmEqCamzQTYWnW8bQU4OXcag5cNGu1bx99E5BkrJ8528jLWaAKgD49ZkpDO2Bl59w3vaOUUmek/sAyTs9mzjXuiG54zomBrsdw0SeAoddiCBJ7clWMFG8cjG7saN4pdRtsWwpAvnhTjehPlQ3mllFAvr/t448X7axnNrfSGx9WAP4OWanFNsjA/u5BLLQBXatN87KstHmFAD3WuAwFMwx4EE3kwRFfELCG3dCmwE2vkSDHmnE9eFuSLvtOKLMv/lSvx8uw7sWgXLl6cTsBPH7wU8ccwopq6uw7Qitz3zzmlgba9tFAptTHPp3lwYQ8aw3zRA4CmY4UACTyEO/SZmlocGSw1QA600QOApGD2Bx07VqlPxPeqDGuhPDRB4BB4n3RU0QEPrT0Nju7BdWmmAwFMwO2Z47FStOhXfoz6ogf7UAIFH4DHDU9AADa0/DY3twnZppQECT8HsmOGxU7XqVHyP+qAG+lMDBB6BxwxPQQM0tP40NLYL26WVBgg8BbNjhsdO1apT8T3qgxroTw0QeAQeMzwFDdDQ+tPQ2C5sl1YaIPAUzI4ZHjtVq07F96gPaqA/NUDgEXjM8BQ0QEPrT0Nju7BdWmmAwFMwO2Z47FStOhXfoz6ogf7UAIFH4DHDU9AADa0/DY3twnZppQECT8HsmOGxU7XqVHyP+qAG+lMDBB6BxwxPQQM0tP40NLYL26WVBgg8BbNjhsdO1apT8T3qgxroTw0QeAQeMzwFDdDQ+tPQ2C5sl1YaIPAUzI4ZHjtVq07F96gPaqA/NUDgEXjM8BQ0QEPrT0Nju7BdWmmAwFMwO2Z47FStOhXfoz6ogf7UAIFH4DHDU9AADa0/DY3twnZppQECT8HsspThaf/zDu5dyxNqCu3cquPwPRorNZA9DRB4CkaYHeD9AX/771/wyy//wo//h9CjQWXPoNhmbLP91ACBN9DAG0Hu939B+aWA3kuUmekx01XQ+34aDs9FgB2mBgg8BQPIToYXdC5Cj6BT0PlhGhOvTTD2QgMEnoIRZA54oo6//zP0qsj0qtD/zOHNXnQmnpMmTQ30twYIvGEBXg+hV9xy4bo29Esj0M6XUKnZcF3xmgvXsWA+XEI+Jc5jF4rQty04u8GxrgvHMrH29dn0jEybRuGhCcsJj7drFZTOjyJahqTpjF1IK1MBU1pj55TH1su068Cu6Sh80nhs8jr8nzGiBvpbAwReihHvJdpMZniynj3I9OqwuavDEpCzTBibBoztGuwAZs5WMQG9IowAitaOERxvwfFes1G+MhqHnraAtRcB6HYtmOL8myaqtgt3t4aq954P3bD9RjF73/TPuWujuh35jIBrokz5O0biWAOm5dRhHp63vzs1y8n2oQbSNUDgSRB08Jxp4Il6nvxPrAfDm+t/GouDpYM4yE7lA0/AyIFxdxpa9Bz5IgwvI3NQuRaF2E3omyXMnYwLU7tW8aGzVYycZxSLZT9rdLZKiczsLG5UZEaZAN4lHbYH4DIW89HrnEVxS4DMgXFnMqj/ZZQFPN0almPHjmDsQgGLn0U/z79l2/OZWsiSBgi8qDm3+XfmgSfqWYfe/8XfprrrtBJ4TuVmBFLhObXrPsScSqENuAaZ3ysdc7I9tOA1p4IbKcOQOW0J5TcCVlHghcOcDdmiOO/n6342WgdrcI03ZSzK6/K5jfYK2zlLxseyDme7EXgKpjZYwKviwfnuxC+BZ9xqch6tBFNkWlGIeXEfxcR8AaUHZW940nrjRObzDBRl2wRZXytg1odVL8kyhOBckOeJPYfv+2CdxmrNHzK1ygXMJDJPGqSMK5+phexqgMCLmWB7DZl54NWzu/3ZkN4Im2Qck3AZQS6/hLI37+ZDxn0jFoeYMJ6a/jCkGwJv4n7NWwBjrc82zTgayvDZKqrBHGF9AU3q/+F1cmL41csUA/Bt6yheGG96TRpfsp35PzXR3xog8IYNePsMO9HBG2DTENMk8CZR2hFQcVDdSGZTwbER4M1t+HN01ftyvq2xUzWU4YtgyPKN5S+I8Ra5BItjYn+v4qtoebVJLNwqw/Tm83zw2U9vJhbcNF6fRseYUAP9rwECL2p2bf6d2QyvB7ALgeegfKWJ4CV8nq9gQsT4kxU/+6qtYqoh5o3Ay90xvAzP1heaZFuTWH4u4BSdwwshmz6k2aSskfKMXViBGWR85r3msKXR7R1Lxogx6gcNEHgRg2u3QTIJvB7BTsTMz65c2I8vpwJp5qHlD0k+POe/L1dPbhUbjpcLXNxIhpeTx9vleDYm2y4fADQGPDknZ2Htc3WzqZdns7Gs7eqFx6nHn7Fj7PZTAwSeNM0OnjMHvB7CTohRAs91Lehfxue8xr4M9uY5Bopy87bM8BwTpegWADGv98ofRowBL3cuXFCiX8ZYtK20WSzviC0GyQxvBBNyX52l46vkIhSxiX2jgtX6IpeLWLya2FKRG0E+mD+0Ny42wHk/OyLPRWOnBnqvAQIvap5t/p0p4PUYdiHwbBibfibnLT7ZNGDW77gi9rtF754yieJmACm5iTzYpO5sGcFik8hiEtEul1ZRlXdYsWv1jeeW2Nhu6dC3G4GXy52NXMdBuMFdboi3sPaF7GTBEKi4M4yc49vx6+MKWEfB3KZOaGAytnymFvpDAwSegnllB3h/wAP580DF/0jdI7cfHTFcMDKK2bsV/+4nwYpI79ZfaSsdtWnceCzBI+6WYsPcELf7SpnDC9pImypgLXorMnH3lKclzGoyy4zO4ckONo65exVUX8ksUFxLwK+M0vxkJCbnUHxagx1Zpek6/vmTm+P3I2Y8h2wfPlMLB6cBAm+ggTcC7dLfsN5D2InOGgLv4IQbNwk5X1fDshw2VWjX+DkPqy68LtuBGuiVBgg8BWPMToZ3MB3n0IEn75rSsLH9YOrfq87J87L9qIH91QCBR+B1vRjjIIBXLNegpywqEcOcZctf6FK9H50n3N+OQuNhPKmB7GuAwCPwsgE87yeIgp8bChaVhItiXNgVbg6nIWffkNmGvW1DAo/AywTwtKnLWE4uKvF+q66C5cuN2wloHL01DsaX8c2iBgg8Aq9r4GVR+CwzDZsaGD4NEHgEHoGnoAGa5fCZJds8+21O4CmYHVdpZl/4NC+2ITUwfBog8Ag8ZngKGqBZDp9Zss2z3+YEnoLZMcPLvvBpXmxDamD4NEDgEXjM8BQ0QLMcPrNkm2e/zQk8BbNjhpd94dO82IbUwPBpgMAj8JjhKWiAZjl8Zsk2z36bE3gKZscML/vCp3mxDamB4dMAgUfgMcNT0ADNcvjMkm2e/TYn8BTMjhle9oVP82IbUgPDpwECj8BjhqegAZrl8Jkl2zz7bU7gKZgdM7zsC5/mxTakBoZPAwQegccMT0EDNMvhM0u2efbbnMBTMDtmeNkXPs2LbUgNDJ8GCDwCjxmeggZolsNnlmzz7Lc5gadgdlnK8LT/eQf3ruUJNYV2psFl3+DYhmzDqAYIPAUjzA7w/oC//fcv+OWXf+HH/5Md6GnXKnBcF+6LdcxF2qe45cJ1beiX2ImjnZh/Uw/UQHsaIPAihtquaLIDvBHkfmX9kyMAACAASURBVP8XlF8K6L1EOSOZHoHXXudtV688jvGkBnwNEHiDDjxRv36E3mdFlGs2nM1i28OtzPBo3DRuaqAbDRB4wwA8D3p/hl4VmV4V+p/7YHjzkg5bDFtuEXjddGB+lgCgBtrXAIE3LMDrN+gReG1ntjS09g2NsWKsWmmAwBsm4PUEehehvxKLSQwU02KZBJv8X2R3iYe9cdGHgDwmkf01G9LUpgpY27bg7IbndCwTJS5uIVTTNMnXhlYXBJ6C+DO1aCWtfif/E+vB8Ob6n8a6FH+HwPusCH3TgCEAJYBn12CI/zcN6LemOwaeNq/DCsBp7fjnMWu2B1PjDr/ttvq2y/eoj2HTAIGXBoQ9Xss88ET96tD7v/jbVDcdv0Pgydg2yeK8DtjkvcYMbxKlHX+rQvnKaAzcIutbZIYXi8mwmRvr202/HszPEnjSgDt4HizgVfHgfDfiPkzgyWvXsPxJN3XgZwkHamAYNEDgdQA6KYjMA6+e3e3HhnQJnTbn8GS8m2RxXoybvNeY4Y2g8NTxhi+dnRUsnIlnebK9+EwzpwaoAaEBAk8acAfPmQbevsJOdKLDBV5OW8Dai3Cxil2rYPnyNLQO2pNmSDOkBoZDAwSegjFmFnj7Drs+AJ7XfuOYubICw/KzPbH603m+igVtODoxzZrtTA20pwECb1iA1xPYtQG8K2V/NWZii0GuybCl13GbvJc2pJns6GKxSjnI+OzHl7loQ0HfyZjy//bMlHHq/zgReAqGkLkMr2ewEwKfxmrNXympzzcKfuah5e+3OyDgeabz+bq/VcFax6xC+9K4GtuRMWFMBkEDBJ6CIWYKeD2FnW8CXz329705W0XkI/GM7pFruIXYFwGUXqxjJvIZr1O1neFNY/HqRYwlPq9dKddvW8a5PBr1IBg167A/OibwEmbZjrCyA7w/4IH8eaDif/RuIUe+CMMJFo68Mv2N5Dsis3NgbITwicf2Msq2/xnnhfiMCfNhp3daCRbM7Nqobvubzo3tGmzvjisW9Hmu2ozHfH9Mg+dkHLOqAQJvoIE3Au3S37DeS9gF8dPOl1AJ7nDi3TLMrqFydxZak2xNdBjxGcMKV1iaK53eaWUSiw9MWG/CxSrurgNrex2FKcIuq6bEchOovdIAgTfgwOuVcHhemhI1QA1kTQMEHoHHlYwKGshaR2d5CSdqgBvPlcw+O3N47OTs5NQANUANSA0ww1P4dk/gsQPJDsRnaoEayI4GCDwCTynLZSfPTidnW7GtqAFfAwQegUfgKWiABkKIUAPZ0wCBp2B2HNLMntBpTmwzaoAaIPAIPGZ4ChqgedI8qYHsaYDAUzA7ZnjZEzrNiW1GDVADBB6BxwxPQQM0T5onNZA9DRB4CmbHDC97Qqc5sc2oAWqAwCPwmOEpaIDmSfOkBrKnAQJPweyY4WVP6DQnthk1QA0QeAQeMzwFDdA8aZ7UQPY0QOApmB0zvOwJnebENqMGqAECj8BjhqegAZonzZMayJ4GCDwFs2OGlz2h05zYZtQANUDgEXjM8BQ0QPOkeVID2dMAgadgdszwsid0mhPbjBqgBgg8Ao8ZnoIGaJ40T2ogexog8BTMjhle9oROc2KbUQPUAIFH4PU8wytuuXBdG/qlsMNp1ypwXBfui3XMKbSBZ16XdNjiHFvFntehbbPUCqi8ceHuWliL1Lftz6vGgp/rHw2wLfq2LQg8BXH2d4Z3BPM3j+Put+LxAWYS9Rub+QC3V0/g2U/j3uOH1eP45k9HMJY4bj8NmsALQb+fceW5GFdqoDMNEHgKRt/fwDuKR/+cxLt34jGO2/X6vYcbTz4OXpfvy+dTeNTDbCQNePvSUfsxw6vHu7OOuC/x4LX7NrNg+/ZHfyDwFEwii8CbWf0oArsJvH192n/8Ool3r09gUSEO7XZiAq8/Onu77cXj2F6DqgECT8Hoswe8o1h7KbO50/jxaqRDa0dwfua9nn4zJvAi8VbQ26CaD+tFXRy0Bgg8BQPKIvDCYc7T+GGpBx1Nm0bhoQlLLNgQC0lcF3atgtL5UaQCr+lw5DjmbukwLad+HnfXgbW9jsV8otxNzyGOSz+PV6YL400AP4qpq+vxa9s1VO7OQrtj+HXauNjks7JsF6G/EvU3UExoa+xCCZWaDWc3iNGuA7umo/CJ/CyfD9oAeb3h0hyBlzCldjpA9oA3ghuVM5EhzdN4+eQ45s/sk9i1Bay9kCZuwdw0YGyaqNritRqq3nvxVZq5ZrAKwCJWOfrnMWC+COBnl7GoRcrc7BzaLJZ3gs/s2qhui/IYMGt2AFEHxp2zCXCNYmHdqkPW2ol/plrz37MVgZe/Y/irUqPl8aCeiIuCHtvRLI+J6IYxTmh/eGJD4CmIP4vAy316DM9eT0SgJ4Y4J/Cz+SEWP+1G8KNYLPsgcbZKmIoCKXcWi2UJkYSxN4PVX3UY9y4mVo2OolDxAWbcGQ07a+o5RrGgB+XZWcFsrDwjGPtSh+VloDWsfh7WW7tS9rc4OAZKU5Fr5EaQv17x3xNZqxLwLqMcwH85kaWOXShg8bOwHAQTY0EN9E4DBN6wAE/U8+RR3P3pVAJ6k3j3dhy3VaGnFWEIgDgV3EjAxeu42hLK3jBnm8Br1h5pQ4ppwPukBLNVeQTAVmr+8OTjywE85bCrg8r1OOx88xFQ94GrBrwgRm/KPV0cRKPsnVEytoMRWwKvmcG2eD2TGV60PtoRzN8bw89ihaa3fWESP3//fpg5RY/d6+9gA7lTKTT9fGdzeCPIaZNYuFbC6mMDxo4F500wPClAFt1kngY8WZ7yUtPy5D5bRVWcy1rHrFe/AiqOD+1Cs/qmATf12LQ5vGms1vwhX6tcwMzJwTAPQoDtmDUNEHipptVayP0NvGN4FkAsvg+vsU7atyfrwHtnHGsOiBYxmrjvZ0vW+mzTz3cCvPzXZVhyUYfrwnnjz8FVdoL5tz2AN/XAL0/1wXTT8uRyQcb1Svfv8vLJSgKAjbHKdQW8EeTyRRiRBT3Wto5i08UzKddv0QZZMx2Wl+17WBog8BSMpJ+Bl//2JN5K4L38EOeD+s0sHcPiTLyjTf39t3Xgva38pgUg4p+LinVuwwdR9f5k08+3Dbz6cGQN+rVz8Xk8uZhlD+DNBgtPOgKezBSfr2CimR66BZ44r8hcb5VhevN5fsZnP72JfLNr8vWmmopqkH8375+MTTw2BJ6CqfQb8M6vfVTfSC6HKMXzy4dHA8M4guXnwfDlr8GG89fRVZun8OiPcWG03VEkCPSFJuY0ieXnwtz3nsOT2WIqrNoEXu6Wv33AaTWkKTO62iqmvPYPM76FJnqQZVObw2uM7diFFZhBxmfea/5loe12aFJufr4x9ozJ8MaEwFMwin4D3jexLQc+2N5WRzFfX0QSHeYM5+08OP76MX683sXGc5kd2WV8lRbLfDBc2AbwZLZo3El2yFHcCFZp7jmHV88SKyjU6x8/X14Owz48F0BazrvZKH8ZP9Y3x7MBtFVXaaadcwTa9eAG2pt9dPPrtDbka02+zKW3K4Hav3Eh8BQ6c78Bb+bKKB498W8G/ez7Udy+cjQ+HJgbgXbmPcwXjuMf3wfHPfkQy4X38buuF1CcCxdk6Jfj143uh2sDeDKLcrZLsWE+Ma/n/SpCO4tWcuEWhsZtEmJbwjqq3gIVA8XIhu+ZYO7PtXR8FYvJKGbvm/4euuS2hM9LMMW5aquRm3RLeEY3nl/E4tVpaAmtSfDunTX2r4HQ3Nk2WdIAgZcwoXYar9+A106Ze3rMpVUfIgJIdq2+8dxbfGLp0LfbG9LMfVKEIQDiraA0I5vFHRhb/mKUPTM80Z6xjfApG8/FT/fMJ7cfXMRqLWWzuiXKY0HXTX8rQ2Qf3ql7/mvi/bX6nr404MmtG+FmerH61KunY6CY2JvX07ZS0DvLQ6gNigYIPAUDIPAaDUCbKmBt24rcNstG9WnJ2/jd9qIVkYlO3US5fkcUAVATusiO2p3Dq7fnWXy1UkH1VWRLgyPKtIKvEhvL651Z3h5NQjdye7TUVZqfr6IqVpTumeGdQ/FpDXZklabrlaWEuVg22RjXetnq9eIxjAk1oKoBAk/BSAi84etw9e0OLVaj+p0wLcMbvnipGhI/R630UgMEHoHHCfk9NXAuuFdoYqVp2ucaVoDSwHppYDw39dWJBgi8NNPa4zVmeAPYyW6VUd0oJO4FKuYDp1GQ9wN9vhJbTNPY0cL7eFr1FaADGKs9+kdjXBgDxqQ/NEDgKXReAq8/xLuvJiLnCMVPEQW/lGBs12DLu77YFdxIXVxShBEs1Kn/qoOlY6HJloh9LbOCdnn9AdQuddD2KBWBpyAWAm8ATUObblzkIm5t9qqGysrlxsyvrptC8EsILrzf7dvkQhRCdQD7R13v2a4bgafQkARetkVPQ2b7UQPDqQECj8BreziAJjGcJsF2Z7sPigYIPAKPwFPQwKAYAOtBmA2TBgg8BbPjkCZNYphMgnWl3gdFAwQegccMT0EDg2IArAdhNkwakMBrVud/O3HiBNIezT4wDK8zw6NJDIPOWUfqfNA0QOApfLsn8GgEg2YErA81PQwaIPAIPA5pKmhgGMyBdSQEB00DBJ6C2THDoxEMmhGwPtT0MGiAwCPwmOEpaGAYzIF1JAQHTQMEnoLZMcOjEQyaEbA+1PQwaIDAI/CY4SloYBjMgXUkBAdNAwSegtkxw6MRDJoRsD7U9DBogMAj8JjhKWhgGMyBdSQEB00DBJ6C2THDoxEMmhGwPtT0MGiAwCPwmOEpaGAYzIF1JAQHTQMEnoLZMcOjEQyaEbA+1PQwaIDAI/D2KcMbxezdCqq2C9cVv/5t4EZuBMUt8b8N/RINpR8MRbtWgSPa58U65hS03w91YBnYl1Q1QOApdPr+zvCOYP7mcdz9Vjw+wEyifmMzH+D26gk8+2nce/ywehzf/OkIxhLHdSqomQe1AHQWzE0DZq1M4HUZ007boJ3jCTzCoh2dDOoxBJ6CKfU38I7i0T8n8e6deIzjdr1+7+HGk4+D1+X78vkUHnWVgc1izRKZnIW1z+OGcpgZ3tStMqqvHBh34mUa1M7MerGdqYHWGiDw6kBoHaiokLIIvJnVjyKwm8Db16f9x6+TePf6BBYV4hDGpAhDDJO90rGQOM9hAm9uw/ayTgKvfW2HbcrPMBaDpwECL2HQ7Yg8e8A7irWXMps7jR+vRoSsHcH5mfe6nMcLgZecFyLwIrFW0Fo7euQxjDE10J4GCDwFE8oi8MJhztP4Yak9cbTTifRXwSIVkeFFH1tFD6ItgadN46uVijfsWP/srgNrex2FqdEUCI9j7pYO03LCawXHL+bDOsnMrn7Oerkii2fuGN457I2L0KYK0Hf8bFB8xrEMlM4H188vYW3bgrMb1M+uoXJ3FlqabrRpFB6asJwwFnatgtKF8URdLsKPm4FibhRTV3WYcrGP68Le0RvrHylvWru0jHO0rJd02CIeQfuE5xrH3L1EWzg2qnoBE9HP8+9EW4a6C2PJ1/o1FgSeQgfOHvBGcKNyJjKkeRovnxzH/JnuO2ZRN2Bs1nwTdfwFK8amAeO7y62Bl19C2Zv3c+FGPmfK11wL+nwCeoHpu7vhdcwXAfzsMhY1vz5Tt3SIMkgw2jVRRvHQUfwsqLMESFmH4biwa2bwmQBWjoHi+aL3nmvXvIU4Rh2KDoxbk3Hji9bH8s9l7FgBmJN1CYGnPxTHCMiL8pnhKlengkJQH888ZHk3LsavG+i3O+CdRXFLxjGo62YA7lc6V3MqeES/Gv6wl4vAUxBzFoGX+/QYnr2eiEBPDHFO4GfzQyx+2i34Oh3SPIvStm+wVnkJ+VgbjGLqruEvnU+a/l91GPcuJlaUjqJQ8c9l3IkDUmZ6qXN4Ep6ui+qDaMYWmr/jOHBrq5iNgCd/1/TLVlvFVL3ckwEwHJj3o+cagTavwxIZVQwcEngu3DcGStFsVluAHkC/ej8C1V4C78uy/4Xl+UqiLcYxd3UpUs9udcLPDztwDrv+BF7dtNrvjJkEnqjnyaO4+9OpBPQm8e7tOG53Bb0OgScN9sV6w7YJv0OMYrHsQ8y8FzH9Zm3VBAZtAc8u46vkea+UfailrDrN5QqoeEOWYjgy0IwcJmwAhnh/FDc8IEeGU3Mh8Kr3zzZkbJqE8aY/LOzFpEkdpYF0leEF53bKSw1lkefnc/v+wFj1b6wIPGlaHTxnFniyjtoRzN8bw89ihaa3fWESP3//fhdm1xnwpoI9e7EMRpZNPssN0lHTF+9pk1i4VsLqYwNiyNB5EwzFpcxLtQM8p1JorLdWghlkZclVp7k6rELgza77Q5fm3XiGKY2vsRwSeBbWvkgxBwnQ6DxbL4H32Sqqor6uhfK1c4kMOqV8so343KgdxqSvY0LgKQi0v4F3DM8CiMX34TUal/btyTrw3hnHuhBqZ8DzhyAdVK41lklCIpdi+vmvy7Dk4hGxuOSNjeq2gYqcW4sCIjeCRtBErtcSIM3rkwY8OaTauEgmXLwi3rPWZ4MYS+CF0KzXW+gxpe65luXt4I42aefOjSB/JxhGFuATc6QbRcydjMRLoZ/E6sTPd9G/2A77pSUCT6Ej9jPw8t+exFsJvJcf4nxQv5mlY1iciXecqb//tg68t5XfdNEhmwMibaituClA0CHwPgmyLqcGPZmFBDBIrjw8KOD59RGrK+XimPRn/dZ03wJPGIp2ZgHFxyZs+aVi10bleuOQ636ZD88T74+MR+/jQeANAPDOr31U30guhyjF88uHRwODPYLl58Hw5a/BhvPX0VWbp/Doj92IrTPgySHAlkOawTyaHHKcuO/fuqz6QEIjUt5DBp4Ea7MhzUYj2+8MbxLLz8WXiOg8YSQ+UY03yfDiZRzH3EqwOMc1Ufqkybmi5+XfXXxhZHzj+utdPAg8hY7abxneN7EtBz7Y3lZHMV9fXRgd5gzn7Tw4/voxfrx+wBvP5aKV2mqLRStiX5yDynV/XkxCpXHFpVwU0ri3rPlnRtB6iLA5wNOGNHPBfKNTuZm+P69BYwrAk3Oa26XGa2g3g4U0+wU8YThhXI1bvTOggzI6XodtKDRA4DWY0d7C6DfgzVwZxaMn/s2gn30/ittXjjYsPNDOvIf5wnH84/vguCcfYrnwPn63L/M0zQGRNqSZy53Das2f37L0y4myjmLqrxV/mbwV3tFfZnjOdim2dF7M63kbqVMWrchM0np4rvHbd8s5seb1SQVefSGLA+PudAOQxi6UYOiRFZf14zuYw5NDug37E8NtFMkMb+aen6VVv4vUPy3Du7TUuNE9d7b9rFGhDxFAe/sMY7T/MSLwFDprvwHv8DtGc0CkA28EuXwRxptgUUfaxvM3BoqRu6fkPgk2gQuwBRu7zZqfBRpbwS81JBat5GQmKTd275hYkzfJ3lfgif126+GCGrlR3dv8HtQxttpUIcPLjWJhQ25kT2xUt3To28khzVMo7QTXjm7/SANeEAtHbpiPlNvZKsa+YBy+1vbfBFmn4YkpgUfgNWY/HcdEAXjiGtosbmyYsCT4BMzeNF8hqE3dRNmDXGDktgn96jTq+9aSwMuJ3+gzQhDtmlhO3mkl9c4lzeuTnuH5hiFuURa7DZlYSfqqBuNhATOxTFoFeOIaZ7EYvXVZ5LZqaV8sZr4L5j33yvBmiqjU7PD2aUG5Kw2b/IfHGAnBwWxrAq9jcx8BM7zB7AxDYXIyw4tlnGzPoWh7Ba8btLgQeAoiIPBokFk1AjkXmrraVaEvZDUOLPdw9mECT6GTE3jD2Vkyb5LiPp3er1s0/lBv5uum0I9Z5+HrxwSeQkch8Iavo2TWHO8YwS9BhHOl1sZCw0rSzNZPof+yrsPbfwk8hQ5D4A1vh8mcWV4th3dOcayUX5tgW2auTRU8i3X0dU7gKYiHwKNJ0kCoAWogexog8Ai8fdiWkD3h06zYZtTA8GmAwCPwCDwFDdAsh88s2ebZb3MCT8HsOKSZfeHTvNiG1MDwaYDAI/CY4SlogGY5fGbJNs9+mxN4CmbHDC/7wqd5sQ2pgeHTAIFH4DHDU9AAzXL4zJJtnv02J/AUzI4ZXvaFT/NiG1IDw6cBAo/AY4anoAGa5fCZJds8+21O4CmYHTO87Auf5sU2pAaGTwMEHoHHDE9BAzTL4TNLtnn225zAUzA7ZnjZFz7Ni21IDQyfBgg8Ao8ZnoIGaJbDZ5Zs8+y3OYGnYHbM8LIvfJoX25AaGD4NEHgEHjM8BQ3QLIfPLNnm2W9zAk/B7JjhZV/4NC+2ITUwfBog8Ai8LjO8c1ituXBdB8atyS7PtUcHvKTDdl24W8XeXqepJg6wrk3LsEeM+LlD0gbbJQtfIAg8BYPo7wzvCOZvHsfdb8XjA8wk6jc28wFur57As5/GvccPq8fxzZ+OYCxxXPviPUAIEHg0c2WdEkjt9+nBjRWBp9CB+ht4R/Hon5N49048xnG7Xr/3cOPJx8Hr8n35fAqPLmVA5IcOvAzEqN7eLCsNnhpIaoDAUzCILAJvZvWjCOwm8Pb1af/x6yTevT6BRYU4JMXU8/8JPGZ4WdApy9i3OiXwFMSZPeAdxdpLmc2dxo9XI9/8tCM4P/Ne3wo0BlECLxvtpNCnYu3Mz7Ode6QBAk8hsFkEXjjMeRo/LEWAp1D/pDkVt8SiFRt6dFg0CidtGoUNE/auOM6Fu2vD3ChgSksvx9iFEio1G4483rFgPlxCPnrOZLnFNR6asJzgGq4Lu1ZB6cJ4aB7aEsq2X9byldHwde9cZ7H8XLznoHIt+V5YztS65kagTRWwtm2FZXZdOJaJUjQmyTLz/0QbhHFOaoz/Mzb7oQECT8F0sge8EdyonIkMaZ7GyyfHMX9mfzpRKgTqcNKx9sKF+8aCuWnA2K7VwedUCtAS8c/fMeAIKHrAMmGIz+xY3v9OrZa+SjO/hLIVgM6Kf8Z1LejzIcC0axX//LXV2IIe+bqzWcREokzRjpZWV21ehxWU2doxvDKbNdsrs3Fnf2IcLQP/ZkypATUNEHgtzK2ZqLIIvNynx/Ds9UQEemKIcwI/mx9i8VM18cj4pEEgJ4EnMp2tUiybCwFRw/InkWvnV1D1wGFB/zKSmYkM6vwKTJm9xbYlTKK45XiZmXl/NgbQ+nVe6Zirt/Mkipv+8fVMTmZ+joFitDz1z4RlbKzrJEo76VmjyPoWmeExi0vRkew7fA771kHEgsBTEGMmgSfqefIo7v50KgG9Sbx7O47bXUCvEQIjCIFXw3I+KepR+J9xYdwK35vb8LMi6+G5VJPMr9T8IdEo8CRYn68g39CWo7hREXBLDLdKsAYgnHkgzuvAvHs29brRjthY14vQXwngJeDdUJawntHz8W/GhRo4OA0QeArGlFngybpqRzB/bww/ixWa3vaFSfz8/ft7mn2zjtkIgQjwrHXMyutGniXcwiG/6WADew2rnzXpABJuEeDNrvvDnebdcNgyWs7G6/jn9iHnwvxuBYbIHFOB2ViOtLoWngqounB2VrBwJr0c0TLx78a4MiaMyUFogMCLmHC7Ae9v4B3DswBi8X14jR1K+/ZkHXjvjGO9AV4ETtH4NoJoCeU3IlMyUGzWJinAK3gZXDB/F8yjeQtjEn9b67OJ+l3Empz3E9lZQxbaGC9R/jTg5bQFf54yuKZYLLN8eTo2vBqtO/9Ojy3jwrj0WgMEXjNzbfF6PwMv/+1JvJXAe/khzgf1mFk6hsWZeIea+vtv68B7W/lNAgjxY1sJMRUCKXCKnqMReEUYAhhvys33BKacs7jpw84OFot4i1zEQpfEQ781najfWZS2/czMFXN33QDPi/E4Zq6swLCCc4qM7/kqFpqsRI3Ggn+3rzXGirHqRgMEXguwNQtsvwHv/NpH9Y3kcohSPL98eDQw+SNYfh4MX/4abDh/HV21eQqP/qjekfYHeHIuzESpGSSulP0VlpGsUYKz2ZBmszbM3zW9c1WfVryVn3utzpTnSa1rQkNisUr5RQDix5cToFWPsywDnxlDakBNAwRewqzaEVK/Ae+b2JYDH2xvq6OYr4MjOswZztt5cPz1Y/x4vbuN56kQSMnGorGVoArn8MKFLOa9tJtQj2Kx7C9qid08Othm4FRutj+EmC/5Kz69RSspqzZbaCK1rmnHf77ub1VoMocZjQX/VjMvxo1x61QDBF6aWe3xWr8Bb+bKKB498W8G/ez7Udy+crThZtDamfcwXziOf3wfHPfkQywX3sfvTnbfaVIh0DHwRiD3wokhxtJUfPFH/utyfa9bDHg5mRk6MO42zpuJTeyGHv11BTmUaaO++Vyu2nQqKMgvCXKrwpvIa6lzeNNYvHqxMd5XyvU9g8m9hp12Uh7fvUYZQ8ZQaIDA2wNuaR2l34CXVsaDfG2/gJfLTaLwNMjiXBfxTdwOjI0QItH6afPrsORdWeyav8F904ApF6VshsCTQ5nJIUyZcdrlJT9T/DK4luvC+GtoFo11DYC7a6O6Hcwd1jfXxze9R8vMv8OYMhaMxUFpgMAj8LqeY2qEQGRbQmS+LSpqCZhwSFN2+nHM3aug6t0CzJ8HE7foWvv6bLi3L+Wcqbf2elWD8bCAGZnFyqHMtFWZMqMTe/bEnVm0Aipi1eieGd4kFh+YsN6Ei1XcXQfW9joKiSw1Wn/+Ldubz9TCwWmAwCPwugbeMHVYH+4W1r44uE46TPFlXamrXmqAwCPwCLy2NRDsFRRzfW1/hgbWSwPjuamvTjRA4CkYF+fwhrOT1ef/OlkRqqCvTjowjx1OLbLd1dqdwFMwJAJPTWzZ66QXsfYi+JWHnWAxTQeb1LNX32FpV9ZzWLVJ4BF4HNJsqoFpLMu7sYifK9rRuRClaawIkWGFSJbqTeApdGBmeDS3LHVylpV6pQZ8DRB4BB4zPAUN0EAIEWogexog8BTMjhle9oROc2KbUQPUfChehQAAIABJREFUAIFH4DHDU9AAzZPmSQ1kTwMEnoLZMcPLntBpTmwzaoAaIPAIPGZ4ChqgedI8qYHsaYDAUzA7ZnjZEzrNiW1GDVADBB6BxwxPQQM0T5onNZA9DRB4CmbHDC97Qqc5sc2oAWqAwCPwmOEpaIDmSfOkBrKnAQJPweyY4WVP6DQnthk1QA0QeAQeMzwFDdA8aZ7UQPY0QOApmB0zvOwJnebENqMGqAECj8BjhqegAZonzZMayJ4GCDwFs2OGlz2h05zYZtQANUDgEXjM8BQ0QPOkeVID2dMAgadgdszwsid0mhPbjBqgBgg8Aq/rDK+45cJ1beiX+qxDXdJhuy7crWJYR62AyhsX7q6FtT4pr3atAkeU88U65hT0SCPvM92xDcP+1mexIPAUGqS/M7wjmL95HHe/FY8PMJOo39jMB7i9egLPfhr3Hj+sHsc3fzqCscRxnZgogded4RJ43cWvE63y2OGONYGnYPT9DbyjePTPSbx7Jx7juF2v33u48eTj4HX5vnw+hUddZDuZAl49HsPd8Wn8bP9h1ACBp2CAWQTezOpHEdhN4O3r0/7j10m8e30CiwpxkB2GwKN5Si3wmVroZw0QeApGnz3gHcXaS5nNncaPVyOdUjuC8zPvdTXmTuBF4qmgp342CJaNbTtIGiDwFAwqi8ALhzlP44el/e3ErYCnTV3G8tMabEcsbAkebyyYDwuY0lLKoU3jq5UKqq+c8PhdG9WnJcymHZ8bwdiFEio1G85ucH5HnH8J+bRFK7mL0F+J4wwUo21/x/CuZ29cRO7kRZQ2rdj5jHsXm8xzjmLq6jpMK1Jeu4bK3Vlo0XNGr5X8O7WcIjbjmLuXiIVjo6oXMJE8B//v6kvbIJk665LiK0H/IPAUjCJ7wBvBjcqZyJDmabx8chzzZ5oLo5NO0wx4+a/LsALIOZYJY9OAsWnCkmCydCwkIDa3Yfugs2swveMNmB6gXLjPV5BPtFf+juGvcHRd2LXgGjuWdw6nVmtcpbkX8MrrMMQqzlfxcwlYVx+cS5jqKBbW/WuJ960dUT8DZs2vQ7Xmv+dBNFHuWHxTgXcWxa0AovVYmLDEF4dXOldztoon30vodH/6eUyzGY0xgafQcFkEXu7TY3j2eiICPTHEOYGfzQ+x+Gl3HSIVePkSTC+rs1D++my8A2rTKAVm7lQK0CJtMLtShn51OvZaLncOqzWRlSW2PuRXUPWAakH/cjx2De38SnD9xLaEPYDngUu/HMvm6lB9U47NdWpXyj5QHQOlqdHY9fPXK/57AsQia4zUseHvNOB9GZy7AfLjmLu6hKlW5+N7rePN+AxtfAg8BfFnEniinieP4u5PpxLQm8S7t+O43QX00oD31WM/y7EeJrOiAK7aEsoik3JNlD7ZG7gy8zPuhMfK15pdI79S87PF6D68vYBnl7GYyDpz9c9YWPtCXn8Ufr0dVK7HYecDbRSLZT9DUwJeMBzqlJeG1pwavhgo9FWeQ+qVz0ILBJ5CJ8os8GRdtSOYvzeGn8UKTW/7wiR+/v59ZWNtBN50kJHVsNwCZoWKDwTjVqIznjyHxVsr0J/6w4OOB0Z/fi6ER3iN1c8Sn5f1TMuc6vBKn8NzNyOb1OV5ciMB3KIZZgEVkcE6FRQix8UMtps5vM9W69lr+dq5WMYZu0aza/N1ZT0zvk360wBoisBTaMT+Bt4xPAsgFt+H1yhi7duTdeC9M44pG0Qj8NqAQW4EMkMLs7ZRzN4363Ny7q4DRyxwEXN5tWS2JDPEBLii7akAvBCo8Xg11PGTYDjVWsds9JrRv7sBXm4E9aFUMWy7a8HcKGLuZLxcNGfGgxpoXwMEXtSg2vy7n4GX//Yk3krgvfwQ54M6zSwdw+JMXBhTf/9tHXhvK7/ZR+AVYQiTbpX9pAFPzlvZBkrzk7F5PAnHEEjBNRLzarHO30vgyXM/X2m+YrJL4Im6aGcWUHxswpYLfXZtVK4n5kTb1G0sNvyMst4Zx7iPZCkeBJ5Cx+834J1f+6i+kVwOUYrnlw+PBp36CJafB8OXvwYbzl9HV22ewqM/qou4IfvJzWLNEkOQrYc0/TkuB5Vr/rWT/0c7UiPw5PYCE6WGObegLlfKfrbYwRxeCNR4PBrrGAD3lY6FJhqauO/PITY7Z71+Ep6xcsav721RWJHZb3vznvXzNykf30/GmP8PuiYIPAUz6DfgfRPbcuCD7W11FPN1EESHOcN5Ow+Ov36MH6/v/8ZzuWilcSl/YCpi0YrtZ4E3gnI2QkUa0DmsvUjO4clFIy7Me5Mp39bFopFgi0MMJBKUiaHQPbKxxrLJ89gofynLGX0+i+XnyTJH34/83RbwxPGjuNFs3lNBx4NubqxfRGPUh+cRBJ6CEPoNeDNXRvHoiX8z6Gffj+L2laMNixy0M+9hvnAc//g+OO7Jh1guvI/f7cOcUCMMRpD7PFx0kdwykNOmcaMSrOJcD5fs11c16guR4cxRzK7U6vN60WypftPltG0BkT2AsV9L2GPRSvT8UcNMq+PMg2AVqKXjq1gc43OR0XPO3POztOp3kdWracC7tIRCYqtDLichGl08Q1OLthP/ph5aaYDAGwDgtWrgg3gvDQbiutFFF2kbz53NYnwj+aX1+kZ1uYnc9IZGLRjbPiCj8MjlJlF4GmRxDRu/HRgbwV62nmR4wlguYjVYTOOKu8FsBxvPgzLruhnevcXT2SmUdvysT/wUUP2XLNKAF2ScYdwM+LFw4Wwl4qag4YPQBa9B+PSbBgg8BbPotwzvsEXVDHiiXNr5m9C3I7fpcl0IE9dvpd+qa+zLldhtuhzLQOnCeH1FZxx4wlCC22+J4dHIXV3WxGb3NJDsY4bnxV2bRuFhcAeU4Pp2rYLS+VHkUoZJZ77zs8I9M7yZYvx2aSJur2qoNL3FGc31sPsBr9//GiTwCLyU+a/+F24WzGUqGPKs3k+bY4zEWIK5yR7ALNSVZYy0p4KnMH4HEz8CT0GczPAORpzZNgG50Gbv+Ta5mrP6YJpfPhT6Y7Z1wr50kO1H4Cl0MAKPndTrpLfKqG6k/OqDGOYsBzeVbrgXZiJ22kLw6w0W1j5PvKegzYM0D16L7ZU1DRB4CqZC4LGjex09mKMTd4SRv5RgbNfCTeJ2BTfyKbG6YwS/7GDCCm6bZm1EV6amfEZBp1kzI5aX7d5rDRB4CkZC4LFjeh0z7bf75OKSlcvpv/cn9Ha1HELRsdD8t/YY514bIM8/XBoj8Ag8zhspaIBGOVxGyfYejPYm8BTMjhneYIifJsZ2pAaGSwMEHoHHDE9BAzTK4TJKtvdgtDeBp2B2zPAGQ/w0MbYjNTBcGiDwCDxmeAoaoFEOl1GyvQejvQk8BbNjhjcY4qeJsR2pgeHSAIFH4DHDU9AAjXK4jJLtPRjtTeApmB0zvMEQP02M7UgNDJcGCDwCjxmeggZolMNllGzvwWhvAk/B7JjhDYb4aWJsR2pguDRA4BF4zPAUNECjHC6jZHsPRnsTeApmxwxvMMRPE2M7UgPDpQECj8BjhqegARrlcBkl23sw2pvAUzA7ZniDIX6aGNuRGhguDRB4BB4zPAUN0CiHyyjZ3oPR3gSegtkxwxsM8dPE2I7UwHBpgMAj8AYnw7ukw3ZduFvFvqrTzHc1uOKHYTeLmFDQG015uEyZ7d279ibwFAyovzO8I5i/eRx3vxWPDzCTqN/YzAe4vXoCz34a9x4/rB7HN386grHEcZnsdAReX4E+kxoahH7AOjTtBwSegjj6G3hH8eifk3j3TjzGcbtev/dw48nHwevyffl8Co8udfOt6jJWdyw4L9YxV79eN+dT/GyfAo/Gr9ieh6klXrspNLKsZwJPQdhZBN7M6kcR2E3g7evT/uPXSbx7fQKLCnEIhV+EIYYSX+kEXldxJBhCTTEWjMX+a4DAUzCo7AHvKNZeymzuNH68GhGSdgTnZ97r8tscgUdzimhKoU8xfozfQWiAwFPonFkEXjjMeRo/LO1f5/IyO5HdJR/JhSPaNL5aqaD6ygmP3XVgba+jMDXaANziljinDf3SCLTzJVRqdvg5x4L5cAn5ZNvFhjTPYvGhCcsJy2bXKiidb7xWLrVsNqpPS5jVErG6Y3jlsDcuIpdfgv48qM9mi4Uy0c9Ey6xNoyDK+CYso/vGgnnvYkM8DsIMeI1EW0fbin8PhCYJPAUhZw94I7hRORMZ0jyNl0+OY/5M9x18ddOAsVnzV0cKEHn/GzC+uxx2kPwSylZg6pFjTPmaa0Gfj4OoDry7OiwBU8uEIc69XYO965/L2SrGoVcH3gqKWw7cXRvVbVE+A62uNbcRwNSu1ctvvgrK+3wlfo06vIpYq5d/j5Wh9c9EQKYtQJefT9Yt+WVBQaOEV/faZgwHL4YEnoKZZBF4uU+P4dnriQj0xBDnBH42P8Tip90Ku9WQ5lmUtv0syCons7JRTN014AigORUUItmUDzwBHQfG3Wlo0XbKF2F4mZuDyrUIKCXwPEDq+OpktF6jWNiw/CyxthpbvTq7UoZ+NXGN3Dms1sT1/Syzbn4SXi8sOFYZhZnxEOzRMkb/lp8RWWHw+sQ9088Uy0vxuoms7+vwOHk8n6Ntyb+pBzUNEHhRY2rz70wCT9Tt5FHc/elUAnqTePd2HLe7gl4L4H1Z9rO/F+sxyIQddhSLZR+I5r3JOhAk8JzKzTgQgjbSrlc8UDqVQv0zuTrwLKx9ntYhzmHthYBYDaufpb0ff01mfsadyOsBvFy32TUix0o9pQBPnrt6P6xzGJOUc8hz8Tlsb8aCsehQAwRehwETppRZ4Mm6akcwf28MP4sVmt72hUn8/P37XXSe5sCbeuBvum5p7Nd8eLmReTAJPONWE/PXSjBFJhddGSqBZ61jVtY18byg+8OXMYiJY06ew+KtFehPDZg1G05kXs2br5PnkcB7vtL+JvIU4OWuBnV2TCzPT6ZCnQBs0vayLfjcRZ8dztgSeAqdpr+BdwzPAojF9+E1Clz79mQdeO+MY110nubAK1RE9iaGHhuvXzd0CarI3FV9Dq/p/sCUa6acp36NoJ1lZhUCbxSz901/WFUAdNeBIxaOiPnCmp95pgHPKS+1H6804OVGsbAeDLGK69o1VFYuYyoyrJssO/9voSGFfsx4Dl88CTyFjtLPwMt/exJvJfBefojzQf1mlo5hcSYu8Km//7YOvLeV37Rv4A0xS4FPcExx05+H61vgySFX20ApkWlJOKYBL/ZaQzzicc6lAs8/ZmxmCcubFpxgIY77pobVxAIeGnMinnvFm+930ZcHO9YEnkLn6DfgnV/7qL6RXA5RiueXD48Gwj+C5efB8OWvwYbz19FVm6fw6I/dCL058GaDLKblkOaVcsN8nJ/hOShfaVKuL9b91ZvRoUWZ4UVfS7SvBLA8rz9/mJ6BHgTw6jATi1UeBxmfXcZXiXLXj+PrNHNqQFkDBJ6CePoNeN/Ethz4YHtbHcV8fXgsOswZztt5cPz1Y/x4vYcbz2UGlVgZGRq4WLQi5tUcVK6HKy7lHJ79OLK9IdJWMw99OFgPz4Xil8BzTZQ+SQGldhMVsbrTqeBGEJvmQ6dygYuLWDbXIlsL65S4dtufkde0sPZF4hyRuje9Do8JtcBYMBYpGiDwUoKyl6H0G/Bmrozi0RP/ZtDPvh/F7StHG24GrZ15D/OF4/jH98FxTz7EcuF9/C62dF/VZIMMLwKSMIZyeb8LS7+cKNcopv5a8VdxWvH7cErgidWQ+pfxpf9jXwZ78xwDxSjY6sBz4WyV4vNh2jRKYm+eGweYXCFq6wuRhSOjmF2p1ef12gfeKBYfB/CObpdIAd7UlQLmkrHXllC2xRCwgWL9y4pqm/BzoQYZC8bC1wCBNwDAO3wxT6K0I4xarJoUG8RNWOXInUfEvjm56jFt4/kbA8V83JRk5mVs+pmcXfM3nosVlP5dXRwYd87Gv8VK4D03/H16u3IjvAlLzpG9WMdCFCaXgqFRAUJ5DW9DuAVj279W+8C7HADLhbt5MyxbCvDqw6XBNUXMqh7sXFgbUfjG43L4bc3ysA2yqwECj8ALjVkhFvXOL26ztSNh5MJ+HNkfJ86rzeLGRspttDaKjZlObgQSePqlUczerdRh4GVo4hZhF+JZn1cOCTyx2jNRHte7HVkhnvUF9R37cgWm5Wd/4vyOZXjnr0MpsmG81QKUXG4UhadyVWo4PJv2mYkrq94164tVvOuaWGvYAJ9dc6lroxtd8bP70z8ZRy+OBJ6CEPptSHMQjSUE3gAYfpDhWeuzNC+F/jaI+madDqdfE3gKHZDA671YBwl4rVaC0vh6ryXGmDGWGiDwCLy+zDoGBnj5EszEylDZ+fhMI6YGDlYDBB6BR+ApaKCVUc2tW7B2xK80mMEvO6QssNnna7YqD987WFNlvPs33gSegvFwSLP3gs5yhje1YoZ3TrHNlF9i6H38aLqMMTXQqAECj8DrywyPnbWxszImjAk10J0GCDwCj8BT0ACNpzvjYfwYv8PQAIGnYHYc0mRnPYzOymtSd9RAdxog8Ag8ZngKGqDxdGc8jB/jdxgaIPAUzI4ZHjvrYXRWXpO6owa60wCBR+Axw1PQAI2nO+Nh/Bi/w9AAgadgdszw2FkPo7PymtQdNdCdBgg8Ao8ZnoIGaDzdGQ/jx/gdhgYIPAWzY4bHznoYnZXXpO6oge40QOB1CTwRQD4YA2qAGqAGsqGBVl8a/u3EiRNIe7T60KC/JzO8Qa8n69fdt0nGj/GjBrKlAQIvJQMk8LIlYpoO24saoAba0QCBR+BxUUuKBtrpPDyGJksNZEsDBF6K2THDy5aIaTpsL2qAGmhHAwQegccML0UD7XQeHkOTpQaypQECL8XsZIbHVVnZWJXFdmI7UQPUgNDAXl9ACLw9gLdXAPl+tr7hsb3YXtTAYGqAwEuBWTtij2Z47Rw/rMdo1ypwXBfui3XMRWKd5V8zH9a2ZL0HEwLD1K4EXsSEO2l4Aq+9zk/gtRenTrTHYxlTakBNAwQegbfnmPaeneuzIso1G85mse1zMcNT67B7toWinnletscwaIDAUzQIZngRg7ikwxbDllsE3jCYBusY0b6ifzCGhxNDAk9RsD0HnvZHrP93Fet/Gms7awo7UR5/+a8qnpX+AE2xfuG52hAmgafQRm3E9SDajtdg2w2RBgg8xcbuNfC0f7+DH//1C375pVPoCdi9xC+//IJ/PfkrPu2ofhehv3LhugaKaZ9Lgk3+L7K7xMPeuOgbiTwmkf01G9LUpgpY27bg7IbndCwTpUsEREdfQtLaj68RbkOuAQJPUQC9Bp4wt86hF8Lu5X/9pUPYCaB0CLzPitA3DRgCUAJ4dg2G+H/TgH5rumPgafM6rACc1o5/HrNmezA17hB4BB41QA10pwECr4+B1xn08vjfetXL7NRgpwA8GbsmWZzXOZu815jhTaK0I7I6G+Uro7Fv4iLrW2SGF4sJja8742P8hjN+BJ407Q6fDyLDq3fK3/91j+HN/YDdYQNPZpc1LH8ynJ2x3t4dapGfo16ogfY0QOApmsuBAk+UsSn0xvC/1v3Mrqr/WWEYMyoUCZ025/Bk7JpkcV4nbPJeY4Y3gsJTxxu+dHZWsHAmnuWxQ0fbiX9TD9SAigYIPGnaHT4fOPBSobefsBMd6HCBl9MWsPYiXKxi1ypYvjx9MCtNO2x/lc7Gz9CkqYHD1QCBp2h0hwI8Cb3/56/e/PHJfmV2UoSHDDyvLcYxc2UFhuVne2L1p/N8FQuaLCOfaZrUADWgpgECL2vAi0HvF1TX/xP/Q7EOjZ1mD+BdKfurMRNbDHJNhi298zd5L21IM1kesVilHGR89uPLXLSxb+2sZhbJ9uH/jGPWNEDgKZrIoWV4srwnf4d/n/rdPsJOdN5prNb8lZL6fGNnnnlo+fvtDgh4Xmf6fN3fqmCtY1bWnc+EPzVADShogMBTCJow4kMHnmK59/pG9tVjf9+bs1VEPnKN6B65hluIfRFA6cU6ZiKf8a7VdoY3jcWrFzGW+Lx2pVy/bdmB3DUmcf294sX3G78YMSaMSb9qgMBTNLhBBV4uX4ThBAtHXpn+RvIdkdk5MDZC+MQFfRll2/+M80J8xoT5sNM7rQTDqbs2qtv+pnNjuwbbu+OKBX2eqzbjMaepMh7UQKcaIPAIvIahEe18CZXgDifeLcPsGip3Z6E1ydaE6MRnDCtcYWmudHqnlUksPjBhvQkXq7i7DqztdRSmCLtOOzaPJwyogUYNEHgEXgPw2FEaOwpjwphQA9nXAIFH4BF4ihqgAWbfANmGw9WGBJ6i2Q3sHJ5iPGgcw2UcbG+2dxY1QOApGjyBxw6fxQ7PMlO3w6wBAo/A45CmogaG2ThYd4Izixog8BTNjhkeO3wWOzzLTN0OswYIPAKPGZ6iBobZOFh3gjOLGiDwFM2OGR47fBY7PMtM3Q6zBgg8Ao8ZnqIGhtk4WHeCM4saIPAUzY4ZHjt8Fjs8y0zdDrMGCDwCjxmeogaG2ThYd4Izixog8BTNjhkeO3wWOzzLTN0OswYIPAKPGZ6iBobZOFh3gjOLGiDwFM2OGR47fBY7PMtM3Q6zBgg8Ao8ZnqIGhtk4WHeCM4saIPAUzY4ZHjt8Fjs8y0zdDrMGCDwCjxmeogaG2ThYd4Izixog8BTNjhkeO3wWOzzLTN0OswYIPAKPGZ6iBobZOFh3gjOLGiDwFM2OGR47fBY7PMtM3Q6zBgg8Ao8ZnqIGhtk4WHeCM4saIPAUzS5LGZ72P+/g3rU8wdZuW1/SYbsu3K1i5mM2810NruvC2Sxiot3687jMt3sWYXQQZSbwFDt3doD3B/ztv3/BL7/8Cz/+H0KvrU6lBLyL0F+5HlwEYNIexp2DzwoIvIOPeVsaU/Qdnru79iTwFIWXHeCNIPf7v6D8UkDvJcrM9Pb+9t4l8Jw3DtIelb9211lpdowfNdCdBgi8YQCeqCOhtzfopBa6Ap6BojwPn9uPOWPFWB2ABgg8xSBnKsOTdfz9n6FXRaZXhf5nDm82/bZM4NF8ZZ/h80BpgcBTFHQmgSfq2jPojWPuXgXVV044f+XYqOqFxsUS2jQKD01YTjjXZdcqKF0Yb+hc2tRlLD+twY4c69o1VO7OQku23R3Du7a9cRG5/BL050FZNqOLT0YxdXkFlZoNZze8vvOqhrUvg+GSKPBEWTdM2PLYXRvVpyXMasmhFTmH116GV9wS17ahXxrB2IUSDCuMm2MZqbHwAH3yIkoiHvXyOLC217GYb3L9aEzq8YoeO4qpqzpMO4yFvaOjMDXa0Bbi+tpUAWvbVhi7IB5zJ5Px4P9Nv1DV24ExOugYEXiK4sss8ER99x16Z1HcCgzbrsHcNGBsBkB7pWMuGuP8EspWYK6WCUMcu2MFkLSgz0eNVhqzC7sWHLsZwqd6/2zclOvmXsSavEZsteVZ3KjYdSBbO6KcflkFqOuLSurAW0dpx4G7a/l12g5B07jqUZa1M+CV1w04rgs7KItZL3cNq58nDDFfhPEmiF00zgJ+b2qoeotmEtevx+RiJFZhWfWHIvYCmkEcJPicCgoJqOe/LsMKFuTI2NXLa+lYSBx/0GbG6yX0Eu13/NvTP4GnKIRMA0/U+eR/Yj0Y3lz/01jEDBU6zZdlfxn/8xXkY/Ecx9zVJUzVX5sMwOjAvB/P0LR53TfTGCBnsVxOyTY+X0VVGG/s2BHkpLm/sOBYZRRm4hnjzAN/ib5rlbGYb1FPCTyxnH9nJZbNaV+s+9d2a1j9LHqOECLtzOH5GZ7rwVT/MlrO8MuDU16KtMtZLD/3YWfplzFWj+kIctoCVmsyQ+wEeAKUBkrRbE5bgB5At3p/Mrz+J0UYIst2TCyfj34pGcXChv+Fxcuso+Xi32H8GIu+iAWBpyjEzANP1LsOvf+Lv01FzbvDvwPQxA065RwSJA1gFMeO4kZFmLY/zNf623oTuATlcF0La8nsSLuJijcsWsNyK9iJuMhyumnHjkLCqp4RehqSZQqHBmNbExJwluewy0uNQ7Py+tY6ZqU+5Wsv1jEjX4s+51cCEHcGvIYsWQxbyjhGhoLnNvzMOO34nIxtoo6t2zBFH9H68O++AMSgtSGBp9ixBgt4VTw434UBfRZkXK6F8rVz8ewjEt/ZdT8TMO9GM4TwutJU4yAZwdjMEoorOiqbpjdHGM69JeAojfr5SuO84bWKN3ToVAp7G4mESxQ4kXqklzMEXtqWBOf5agiv3EgIzVth/UNzKcJIZLBTQXZafTDdpPzy+p0Az8LaFynXl/Wvb7yfDYaITZRShy2bXDsSs7BuKdfjcU3alLHab90QeIqdLfPAq2d3+7MhPX/Hn4vyshox57VRRHIhQ8HL4JpkQMHckPi8tT7rG4A2i+VtOVQnhtMcOMG8X9Wby0oHXlqmOXHfH86sn7tVuzcYftx4WgMvAZwm14kuWmns1I3AWyz7cTBSASnK1wQ6wZeA+HBjk2NlWRvqXwiy473arglA5Xn5TLAdsgYIPMUGyDTw9hl20rC1MwsoPg4Xlbi7NirXw4UlxU3fMOUCDX/BiFw4Ej7rt/ws5qvH/jCavVnCwploVigNOx14cXP3YSWzy+YZUgRqDYYfeS83gsMAng9IB+Ur8bLI2PcWeAGAd+1gQVLYVvE21FGMzWs2KytfD9uNsTjIWBB4wwa8HsEuLtpxzK2Y3hCi65oofeJ3agmKZkOa8XMsoSyyOLFasKGNOgeeXNCSlv3FrxuZw6sP6cVNSdYjPvQqy9SbDE9es3nsgni5ievvS4Yn69ZsSDMen4Z4NrQfj2eMDkcDBJ5iZ8xkhncgsJNClotQXNSH4erzaDcbF2o0tEPjsF7dJD5fD5bHt5/h5T4JFnWkLLevn1eWoQ8zvPpCkp1S4/ykWGhyJVgp2xPgjcAfjnZQuR7NtGVb87lBQ1JzqeRxAAAgAElEQVRLfO6rYVwCT1GQmQNeL2F3aSllo7JcRh+FkswUHBh3pxug523A1uUmcZmx2PG9eWJeT24oT67oTM1mpBmPBqbduNVArBCd+msFupwf60Pg5TQ5j5YSu+jexh4Br75y1UlsY/D6j7jpgBHGT7FPERpSq3zulRYIPMXOmSng9RJ2In4BaOSCEjGvIzckO1vF2N48bX4dlrxLSH3zdHi8G10KH6zqFHOB1WBjtPdZy4DpbbKOwjQsR9ocnteBtAWsvQgWXtTPGV67PkTZFfDc1BtHeys3n96sf9vtdNGKKP/EtYq/31Es8JGb9oPN8M6WjrLCxvPUPYOp9R/FgmwPsVE+ciMA2Z71TF6xT/XK5HheAlRqgMBT7JzZAd4f8ED+PFDxPxqyKimErp5niqm36qrcu5i6RaHh9lRig/erGoyHBczEblE1jq9WIrcg23VgbZYwd1Jmih0CT7S1No2vViqoyjuKCHi8sWA+LGBKLrlPNfzQNOR8Wh2QnoZkmVqsZIzMCaoAT7SRyILFbdHqe/wcUfYl5Hu6SlPWXdyGbB1m5DZo7q4Du2ZgrcV2lK60pdg/eU3ZZnyOaoHAU+xQ2QHeCLRLf8N6r2CnGL+oCPn3fphSMOT5poxFtkk9k6a29kNbg3MOAk/RHLIEPHb6wemwzdpSu+5vrBe/0t5wU21FjTe7Fl8ffD0NahsTeIpmQOCx0x+sKVzE2nb6ryiMXViB6d02zUb5CldRHmy7sB9kKd4EHoHH4R9FDRxsR4/MEcYW+8g70TioPlhgdpeJtiQkD7bvhPEm8BQ7CDO8UESHJd5hu+7YhSJ08Vt00d8GdMRP++gopvyW4LDFh/Vln9xLAwQegccMT1EDe3Uuvk8Dpgb6SwMEnqLZMcPrLyHTWNge1AA1sJcGCDwCjxmeogb26lx8nwZMDfSXBgg8RbNjhtdfQqaxsD2oAWpgLw0QeAQeMzxFDezVufg+DZga6C8NEHiKZscMr7+ETGNhe1AD1MBeGiDwCDxmeIoa2Ktz8X0aMDXQXxog8BTNjhlefwmZxsL2oAaogb00QOAReMzwFDWwV+fi+zRgaqC/NEDgKZodM7z+EjKNhe1BDVADe2mAwCPwmOEpamCvzsX3acDUQH9pgMBTNDtmeP0lZBoL24MaoAb20gCBR+Axw1PUwF6di+/TgKmB/tIAgadodszw+kvINBa2BzVADeylAQKPwGOGp6iBvToX36cBUwP9pQECT9HsmOH1l5BpLGwPaoAa2EsDBB6BxwxPUQN7dS6+TwOmBvpLAwSeotkxw4sLubjlwnVt6Jfirx9Uh5/5rgbXdeFsFjGh2KbNyqpdq8BxXbgv1jG3z+dudk2+fjg6YtwHO+4EnqKB9TfwjmD+5nHc/VY8PsBMoo5jMx/g9uoJPPtp3Hv8sHoc3/zpCMYSx3XS+Qm8wTaKTrTAY6mFftUAgado8v0NvKN49M9JvHsnHuO4Xa/je7jx5OPgdfm+fD6FR11kZ4cNvH7tYCwXzZ8a6B8NEHh1GHTWKFkE3szqRxHYTeDt69P+49dJvHt9AouKsRAdmsDrTD80QcaLGjh4DRB4iiafPeAdxdpLmc2dxo9XI2LTjuD8zHtdLV4h8CLxVNQUDZAxpAZ6qwECT9Gcsgi8cJjzNH5Y2l9htQKeNnUZy09rsB2xsCV4vLFgPixgSmtSjpMXURKf2Q2O33Vgba9jMX8R+ivxmoFitO3uGN657Y2LEXBHjx3F1FUdph2Wwd7RUZgajRzfpCyXdNii3FvFxLHjmLtXQfWVE9bLsVHVC/u+cIZG2KRtohrg3wl9MmbJfkPgKXaS7AFvBDcqZyJDmqfx8slxzJ/Zn07RDHj5r8uwAsg5lglj04CxacKSILN0LCShly/CeBOAya7BjH7mTQ1VBeDpDy24roCmf/2qBJ9TQSF5/aQmUoF3FsWtAHTRMgqov9K5mjMZQ/5PGPWBBgg8xUbIIvBynx7Ds9cTEeiJIc4J/Gx+iMVPuwNfKvDyJZheVmeh/PXZeIfXplEKgOFUCtDq7XAWy8992Fn65fjKUW0BqzWZTXWS4blw3xgoRbM5bQG65V+nen8yXrZ6WYKYpAHvy7Kf9T1fQT52/Djmri5hKvZad7FNfkvl/4wnNaCmAQJP0ZgyCTxR15NHcfenUwnoTeLd23Hc7gJ6acD76rHtDfVZD8+lA0VbQtnL5EyUPknA5cV6w3YKr5PnV1D1MsbOgFe9nwBubgRaMAzqbiaHKhOdKQ14wWed8lJ63RR1RSNLxJ5xpL72UQMEnmIwMws8WV/tCObvjeFnsULT274wiZ+/f1+5czUCbxqrNZFB1bAsYSavHXkuVPyMzbjlG93UA38DefXBdJOyROflIubYcg7PwtoXkWPl9dNAJt+LPqcd99lqAF4L5Wvn4plo9LP8u0k7prQHY8VY9VgDBJ5igPsbeMfwLIBYfB9eo8lo356sA++dcUy5wzUCr4CKGM4Uc2QtYjy34WeBxh2/bIvlOAAbMx4V4CWyQVmeNJDJ96LPTY7L3zH8O7CIjHPXgrlRxNzJxhg31oHHMCbUwGFogMCLGlsHf/cz8PLfnsRbCbyXH+J8UK+ZpWNYnIl3tKm//7YOvLeV3+wj8IowBAg6BJ4PTgflK/Fyhp2jf4AnyqSdWUDxsRlZTWqjcr1x+DQsf7N68XXGiBrotQYIvA4gF22MfgPe+bWP6hvJ5RCleH758GgAsSNYfh4MX/4abDh/HV21eQqP/qje4RozvFmseYtCWg9p+hmdg8o1/9oy4zPvNtsuIOf9EllbyyHNxLGyzZtkbtF29v5u67hxzK2YQcYXmZOU1+Kz8pephvZgLBlLRQ0QeIqB6zfgfRPbcuCD7W11FPP1JffRYc5w3s6D468f48fr+7/xXC5aqT5osWhFbA9wKrgRlLO+kGSnlLqXTbsSrI7seB9eCszbAtkIcu0elxvFjcScJM06Je6KfY6xZCy71QCBp9j5+g14M1dG8eiJfzPoZ9+P4vaVow0LKbQz72G+cBz/+D447smHWC68j9/tw7xTY4Y3gtzn4cIO/cvx+LdSbRo3KsEqzvXIZnEtmPtzHRh3pyPbFUaQyy+hHGwl6HzjeYpZpIBs5p6fpVW/i0A65bjcpaWUTetyS8Xh/WpEt4bAz6foRNEjGMv+iyWBpyjmfgPeYXeuVODlRhBd2JG28Vz8nE98H9sIJq5V/D1uYg5Qblbf9u+64mzpKCtsPI/dlUW2eQPITqG0E2x4j26LaDhuBDm5LUGWb9OAGcDY2Wqs02G3D6/ff+bLNjn4NiHwpPl1+EzgxcXaDHiiU2vnb0LftuDIu6uI362zTOi3LjZkodIExi6UUKn5GaB3OzJH3IpsCflcbxetyN/V2zPDmyl65YvV6VUNlXvN6yTrxue4dhgPxuOgNEDgdQg62TAE3mF10mDI8025q193kO3Y1rPM8PbaoK6opbbKwHPHh8QZD8ZDQQMEnkLQhEEReIcDPO168OvjW8X4/J5iO7YDm4n7e22GP5xYtFN2HsO2oQZCDRB4ikZJ4IUi2t8OdRFr2wZKFxKLXHIjGLuwEtyb00b5SrNtC/tcLnHPTW/O0MLa5/t8bkXt7W+8WSfGc3g0QOApmg6B16tOIufoXLj1XyEQC0LkTaMdVB8s9Da7u2PArolfdjBhBb/aYG30+JqKOqRZ90qHPO8gaovAUzQaAq93hjB2oegvcon+fp4jftpHRzEl89v3jnm1HN45xbFgcCEK54sUfWLftclydKVFAk9RQARe74BHk2BsqQFqoBcaIPAIvK6+MfVClDwnzY4aoAZ6oQECj8Aj8BQ10IsOyXPS6KmB3mmAwFM0Ow5p9k6U7PCMLTVADfRCAwQegccMT1EDveiQPCeNnhronQYIPEWzY4bXO1GywzO21AA10AsNEHgEHjM8RQ30okPynDR6aqB3GiDwFM2OGV7vRMkOz9hSA9RALzRA4BF4zPAUNdCLDslz0uipgd5pgMBTNDtmeL0TJTs8Y0sNUAO90ACBR+Axw1PUQC86JM9Jo6cGeqcBAk/R7Jjh9U6U7PCMLTVADfRCAwQegccMT1EDveiQPCeNnhronQYIPEWzY4bXO1GywzO21AA10AsNEHgEHjM8RQ30okPynDR6aqB3GiDwFM2OGV7vRMkOz9hSA9RALzRA4BF4zPAUNbCfHXLmuxpc14WzWcREH5RnP+vGcxFe/aIBAk/RXPo7wzuC+ZvHcfdb8fgAM4k6js18gNurJ/Dsp3Hv8cPqcXzzpyMYSxzXLyIdhnIQeITCMOj8sOtI4CmafH8D7yge/XMS796Jxzhu1+v4Hm48+Th4Xb4vn0/h0SWazr51yM+KKNdsL2Pbt3PW25HtxJhSAyoaIPAUTSSLwJtZ/SgCuwm8fX3af/w6iXevT2BRMRYqwhv4z1zSYbsu3K0ih4ypK2qgTzRA4Ck2RPaAdxRrL2U2dxo/Xo18Q9SO4PzMe+yUilpIhTeBRz3tp554rn3RE4GnKKQsAi8c5jyNH5YiwFOMQdToi1suXNeGfmkE+a91VN+I/10Yt6LXGcfcvQqqtv+et0jDMrF2dRpaWhlOXkTpaQ22Ex5v7+hYzF+E/kq8ZqAY+dzchu1f8070mvLv9M/4deikXMGxrxzvWqIOrmOjqhf8xSYSdOL1xMPeuNi8094xvOMbjtGmUXhowgri6Z3zjQXzXotzRWISbSP+LbXA52HVAoGnaA7ZA94IblTORIY0T+Plk+OYP7M/nb8OvDvrsCJGb0j4aLNY3gkgYddgbhowtmuwdwUYHBh3zsZhkC/CkCYvj980YYnjnRqq+wW8jsp1FsWtRB1EmQSQX+mYE1r6rAjdq5sFR8TBrsEQ/28a0G9Nx+sY1V4a8LQF6FYATsv0zyNjxqHS5rGMxpV/M04RDRB4kWB08q0ni8DLfXoMz15PRKAnhjgn8LP5IRY/7Q58EnjWCwdWuYCZk/HzyezLKi8hH425AJsAhmOg+In8zFksP/eN3tIvx1ePagtYrcnsqvsMr6NyfVn25+Wer8TrkBvH3NUlTEXrJTO9dsGUAryJe6af9ZWX4hmwyPq+ZobXSX/lsbJvDfczgRc1qQ7+ziTwRP1OHsXdn04loDeJd2/HcbsL6PnAc+G+WG/YBpHTijC8bKeMRa2xw808tDxjN+6M+t9GJSzSziXqkF9B1csiuwRep+UKoOSUl/b+1izr0AXwJIyr9yf3vl4H2qX5N2qQMRmOmBB4ikaRWeDJ+mpHMH9vDD+LFZre9oVJ/Pz9+8rGKoGXas63gvkpfSH9/InsZuqBvwm7+qDZEGD6fJwERH0YVdbVe075TIflyn22GoDWQvnauXjmGbvWCHL7ALzc1Yo/LOqYWJ6fjGd5yevx/3RtMS6MS0QDBF4kGJ18y+tv4B3DswBi8X14jd/itG9P1oH3zjim3Dl84DkoX2m8hgRYchFHw/+b/hL+xbI/ZBlf8BI9bwq8ciPoFHidlkvoI3/H8CEkMsxdC+ZGEXOJ4VtPR/sBvNwoFtb97NeLlV1DZeUyplKy5E60y2OjWuLfw6QHAm8AgZf/9iTeSuC9/BDngzrOLB3D4ky8g0/9/bd14L2t/KZL4PmrNJMdaDYwbeeFv3hDLuJoeP7usnf9VvD0z70/wOu0XLJe2pkFFB+bwYIbAT4bleuJRTf7Ajy/rcZmlrC8acHxFvi4cN/UsDofDP8q6lfWhc/x/sB4DHY8CDxFw+i3DO/82kf1jeRyiFI8v3x4NIDYESw/D4Yvfw02nL+Orto8hUd/VBe7D6l04OXkkGWzIc1EG8hMzbzbzNQXFLYlLKHsrfqMzPt1WK5GMxzH3IoZZHwmSvVFN/s0pJmIS04sVnkcZHx2GV8l3+f/yl/YGttWvS/wXP0bOwJP0ST6DXjfxLYc+GB7Wx3FfH34KzrMGc7beXD89WP8eL27jectgSfnvpotQkm0gRaAyN0ppd5IWbsSrJZM7MOTQ5R2Glg/l9slIsDrsFzpRjaKG5WUIdh9zPDi1z2HtRdiBauFtS/611jiZWY5GY/+0ACBlzDbdoXZb8CbuTKKR0/8m0E/+34Ut68cbVhUoZ15D/OF4/jH98FxTz7EcuF9/C5tDqrDuLQEXm6yvn+tYZtBbgTaVAH601V/H5u4rlZAxdts7sC4m9iUnl9CWe5NSwAvJ7cNiC0O+UgHi+5ni32mw3JdWkJhKpl1yi0Uiez2iwCwDZAfxeJjsUHeQeVa5Fwy24xsTp+6UmicH9SWUPY27hso1r/MROraYbu1q3cexxgPggYIPEWD6DfgHbYYWwNPbCWIbCR3LH/j+aYBs+bfHcW11jEbaYuJaxV/z5tYHCI3Xe/481jOlo5yysbzXC6yMXzXDq7hb1Zv+plOyhVAyZHlEeUP4OtsFRN78y4HYHLhvBCbxk2YD8XeufB1d/NmOASXAjw5tGvXgk3nm2b9LjXWxgJXbUb0ctj65/Wz8YWAwFPsNAReXOB7Ak/EOeVWYa64TdbjEhbORLKdoE3GLpRQkUAU4BOgfCg2rqcvWvFMR5v1b0cmF3js2qg+LWFWa/GZdss1U/TKU188In6/7lUNlXsXG7JpURbtfAlGPRt1Ya6IbRajKDwVQ6B7Z3gTV1ZhWk64WEVcr9Wt2BS1TLOOa5nxGNx4EHiKJkHgHWanaAEvxfY8dJMLMjxrfTbM+rJaF5abbdinGiDwFBuGwCPw9hOS/t5DkfUdZlx57f1sU56r//RE4BF4Gfw2OmAZXr4E07ufaAU3uBAlg3rsP2MnbNPbhMAj8DJoMNkH3ty6BWtHbMSXG9hTfjFCUZs0u3SzY1wYFwJP0VQ4pHmYnSf7wJsSG9blwhrbhN7sNwEV9UlzP0x98tr9qj8CT9FQCDx26n7t1CwXtUkNpGuAwCPwMjikmS5mdnLGhRqgBlppgMAj8Ag8RQ206lh8j8ZLDfSfBgg8RbPjkGb/iZkGwzahBqiBVhog8Ag8ZniKGmjVsfgejZca6D8NEHiKZscMr//ETINhm1AD1EArDRB4BB4zPEUNtOpYfI/GSw30nwYIPEWzY4bXf2KmwbBNqAFqoJUGCLx9AJ4IIh+MATVADVAD/a+BVkAU7/3biRMnkPbY64OD/L7M8Aa5jqwbvy1TA9TAsGmAwEvJAgk8GsGwGQHrS80PgwYIPAKPC1tSNDAMnZ91JOSGTQMEXorZMcOjEQybEbC+1PwwaIDAI/CY4aVoYBg6P+tIyA2bBgi8FLNLZnhcndX/q7PYRmwjaoAaEBpoBXECr03gtQoi3+M3ZWqAGqAGDl8DBF4K0PYSZlqGt9dn+P7hi51twDagBoZbAwQegdcyxe9Xg5j5rgbXdeFsFjGh0Ib9Wi+Wa7gNme3f2/Yn8BTM8mAyvCOYv3kcd78Vjw8wkyjn2MwH+P/tne9vFFea7+8/08ZAoJqwmCRkwOZqZwZzZ9eOxkTCysZwY88OeIWNkkY3MIJmQqMbnM0417IVaEFagrRiykvKYt1aKAXRICqIen9f7av9M+6L79WpqlN1qup00912u3/4+6LV7eqq8+M53/N8+jl1nvK1xYN4+NOQ9/phcT+++NMuHEqc168TiMBrr2PoV92wXztbNwReC4DYHuDtxp1fRvDmjXgN4VrYzkFcvv9hcFx+L9+P4M7ZnS1oOjSOPzVADdTSAIEXgqRxkXQSeBOL7yuwG8arF0f9168jePPiIOZa6E8tcfB445qgrWgraqD7NUDgtQCIzgFvN5afymjuKH78XBGYsQunJwZ78n4cHYUyji3okfaj/aiBxjRA4LXgYDoJvGiZ8yh+mG9skBufDEOYulqEZTvehhCxKcR97cB+tIK50URdZ4uoiu/X8shkTmJuyYLtuOF11UoZhdPZFIDza+KcKopnB2CcLqBcqYbXuI4Na2keo42MyXXTu656+0y8DmMcOdGWl1Fb3Jc2rJuJ8xqpg+fEbUt70B49rgECr4UB7BzwBnC5fExZ0jyKp/f3Y/pYAkYt9MmDYgAR97UNa9WEuWrCehLAr1rCnKHUEwJvAfk1B+7rKjYeBdfYEjY2itNx6IXAu1GELYBpW1495qMKqq/965y1/NuhpwOeMYOirDtZrgdmpf2t2ojX0elTAz2rAQKvBfF2EniZE/vw8MWwAj2xxDmM59YBzJ3YpEP/SxHmzTOJnZ5Z5Mo+9MzrCrwk8DxoFXH+sFp3FjO3bT9yqyzGdpj6wBNgc2DeGIeh2n80D9OLEh2ULyl1qefIzxrgDd+0/KivNB8vV0R9FxnhNR7pq2PJz7Rb/2iAwJMOtIn3jgJPtPPwbtz46UgCeiN482oI1zYLPZ0dNHDJhMCzsfyxbkKcwvITAbYKFj+KvpfAc8pX4lAK6jW+LMMR+XXlXP1fkZo2Td32l0c3vh6pf62ujzxGm1EDfa8BAq8FkXcceLLNxi5M3zyE52KHppe+MILnd/dsTrTGCGYuFbB4z4S5bsN5qdzPU5cFJfDsFUzK9iTeZ4o+gMzraeCZV6NjsV/QRgGWiBqfFTGVKC92ngZ4mc99WLqOhVvTI1qgxsqoVz6/25yOaD/arws1QOC1MCjbA7x9eBhALJ6HlwaF8dXhEHhvzH0tT7TRiyXYwX007ykmL/37cuX1YGOJDnjqsYQtZcSVBp6/aUUPnzzMVoGXyWJmJVhKFWVUKygvzGJMvfeYaKO+DWkb8zzahBrofQ0QeC04wO0A3uhXh/FKAu/pAZwO2jkxvw9zE3Hhjf3reyHwXpXfaQ14x4PIyqmgeOlU/D5eEE35OzKDumWE11XA89t2aGIet1ZtOBLeLytYTGyeofOKa4j2oD12ggYIvC4C3unl98NEcrlEKd6fLu0OILYLtx4Hy5e/BgnnL9Rdm0dw57PWJu7w1/6zKTe+G08Dsx7wHi/UfJZlftXfnFK6ELXJv4fnQD0Wm2ifrPi7N+uU652vW9JMjqXYrHIviPiqJZxPfs+/02NNm9AmfawBAq+FwW1XhPdFLOXAB9urjSymwyU5dZkzum/nwfHXD/Hjl60nnuuWH30QZXE52KWpjfBcC4XjEdBCeBlXUBY7Lp0yLoftH4DctFK9N6t1LBNLPqDspVPa78PyGwGeN7Zy84yN5U807Wxh/MM28Nr6Y0T70D5dpgECr4UBaRfwJi5kcee+/zDoh3ezuHZhd3xpMTMA49ggpnP78be7wXn3D+BWbg/+PpYW0LxjlxGe86gQy4ET9/W8BHNxT0xdvpRLmmJH5Vohfp/MGEdB5Oa5LpKJ4RJ4rmujeG4o5hAOnQty8xwT+RCiWczdE/cQE6kKGuCNXchhKmkHYx6lqog0TeQV8BJazWuENqPNel0DBF4XAa+jYjouc+CiZHDLewqKA3PNX+7UAu+x6efOhcnqVrTx5ckKZhKQ8YFXhbnqR3LVip947tcV5OddP6mAcDYAlgt39Up0XAM8GaXKMs1VCxse7FzYt2e4a7MFrXdUk2xvpHfaYktsQeC1IKR2RXiddi7G2BWU1Ed9VS0UPx+HEcBFCzwR9Y3OY/mRsjvSe0RYLh71BXaWwCuezWLyRjkEkhcNiseRfRqP+jKZLHIPRLT49ghv+MKi91i0cLOKiD5tC8uiDy2Mc6fHg/UzoqIGtlYDBF4LjrBfgdfU5JJLmuoyZwO2jIC3SSEHELZXJrfkl19TfW+gnyxvk+NLG1PXbdAAgdeCUQm8AYRPWukQ8OZKMuqjYyVcqQFqoDENEHgEXmu/JDsZ4Y0WYGl2gHLSNzbpaSfaaadqgMAj8HoCeFMrNux18d8YrOC/KjgwY5tb6MR2qhNjv6n9RjVA4BF4PQG8sQUrenKK3EzTwtg1OjF4Hp0oNdB/GiDwWnCavIfXfxOBzo1jSg30vwYIPAKvtQivBbvRofS/Q+EYc4y7WQMEXguOmxEeJ3U3T2q2jfqkBvQaIPAIPEZ4LWiADkXvUGgX2qWbNUDgteDsGOFxUnfzpGbbqE9qQK8BAo/AY4TXggboUPQOhXahXbpZAwReC86OER4ndTdParaN+qQG9Bog8Ag8RngtaIAORe9QaBfapZs1QOC14OwY4XFSd/OkZtuoT2pArwECj8BjhNeCBuhQ9A6FdqFdulkDBF4Lzk4X4QlD8kUbUAPUADXQ3RqoB+T/dvDgQehe9S7q9++SwOv3/rJ//NVODVADO0EDBJ4mAiTwOPl3wuRnH6nznaYBAo/A4z0+jQZ2miNgfwm/naABAk/j7NoZ4RmXhnCh9EH0Kh7A+5m9GP8+OFY8gA+NxOT73X6cCa6ZvbUPg8P78U9qGaX38fH/TFyj6ddOEDT7SB1QA9RALQ0QeBowtBN4mWEDF+0T+Oa5fP0eub8Owvjrb4Jjv8eVW7tjUddv7/02+O6/Y/rcAKK/gzLW3sWQph+1Bp3H6RCoAWpgJ2qAwNOAoq3AywwocAuAZb+P3xp7cebf5d8f4A/DwYQ8dxh/DeD49X0D7/zTIVwLYSnO9yG4E8XLPtNpUwPUQDMaIPA6ALxMRoFbAK+/fv8OBuffRyH4u3BvPzKZ3Zhc+30Q3f0Gf/zdIP74UP7tw9E/j6JvRvQ8l3qhBnamBgi8jgBvABkFbv7y5jFM/nEX/nD/dwHgRvDPS0fwdQDAa9/txTtXPgj/9q8RENyZwqXD4rhTA9RAsxog8DoFvIwKt2Ap8+EBGH98F1diS5Yn8I1Y8hx6B9OV4Dzv+9/j2rd7Y/f6mh18nk+HQQ1QAztJAwRex4A3gEwKbr/F7PwAPlwaCaI8Abjf4eKVXXj/W/XYCXxTOYzh5G5OTV92kpjZVzpvaoAaqKcBAk8DiXZvWlEHJA63E/jm34fw4dB+zMqdnGIH5u8OIBeL+nwIquU09nkIU1eLsGwHruv6r9cO7EcrmBtNTJSzRVTFOWt5ZDInMbdkwXaCa1wX1YOS+mAAACAASURBVEoZhdPZVISZXxPnVFE8OwDjdAHlSjWqy7FhLc1jVGPzqP2nsPzEL6N0LtGm4LrhrytemdV7s179U7f9OszruvPPoPhMlGcin6p3CFM3y9ioRv1ybAvLn4/DSJ2rK5vHonGjLWiL7tcAgadxbNsJvIyhwC1YqhRpCX6awgjOTGnSEMTSp6bdb51w180AcjasVRPmqgnrSQC/aglzasQYAm8B+TUH7usqNh4F19gSEDaK03HohcC7UYQtgGlbXj3mowqqr/3rnLV8XeiNfRcHWrxfI7j1WJRjY/ljf4K1BDxjErfWZd8rvj3CNjowr59MwTzeju6f3Gwvx4gaiGuAwNOAY1uBp01TEGkJu/HHwn4MKmkJ/kaVEZz5p/ggNizqvxRh3jyDQ7E+Z5Er+47fvK7ASwLPg1YR5w+rdWYxc9v24VlZxIRSng88ASQH5o1EpDSah+lFiQ7Kl5S6lOu9vhxfwIaot1rC+eR3Hy3631UWMRZ81wrw5DV2KRFxyjY6JvLH1T7zc8M6S44Z/+aPpy7RAIGnGYjtBl48/UBNN1DTEtTjW+x8g8ivevtMNDFD4EWRVNzhyaXHChY/itojgeeUr2ijUOPLMhzXhVPORXWlxmAEhXUBzSqSy5oy+rNujoTXS3g1vKRp5GEGQI1FtUE7JpZ8mMd+AKTaGPU5bhcepz2ogW7VAIGncWTbD7wBZDSRnJqW4EV3tpKQrml3QyIzRjBzqYDFeybMdRvOS+V+nne/LpisEnj2CiZr1DVTTN87k8Azr9aY9EYBloDNsyKmapQr+jF804rdp/P7JiFrIq8svzYNvKv+0m61OBNCM2Y73Q+AOm2NXcvz9DalXWiXLtAAgacZhI4AL6O5VxfbqJJ+5Fizjnb0Ygl2cB9NbFpxXvr35crrwcYSHfDUYwlb6UAT3sM7WwN4mSC6egvwMkoUFi5rfrzi3RdMRo+6dkS2SW9akVFiuHFHAFj3WhUbdmr1g8dpG2qg1zRA4GkcWqeAl0ntxlTy7sTuTSWqaVpox4PIyqmgeOlU/D6e3Myiwk1GeOqxhK10oNky4GWyuOzdW4yWNf2lRgelC3FHo2tHZJ808CZX/CVL54m/CUds3tG+vvV3gUZlxevlcdqDGugtDRB4CScuBNwx4GUG0vl2XpTn5+dtZnLJrfwb342no5Z6wHu8gGGNjURb8qv+5hQVQD7w0lAK2/6JH6W5dcqV58r7fX76QQAuzUaW+sCbR+mlaKeSliCXLGstadbor2wX33vLyXG8OF5SAwSexrl1EngZI/lElRP4ptU0BKVvtaEgIymZcxdMDhnhuRYKut2KxhWUxY5Lp4zLSuQp7+HJHDkpNPkuN4TYS6fS4FXa658fwEpALmiP7jq5RKm9Jxcsg8aAJ3d6PlmJ7TCVbeQ7HSQ10J8aIPBSTrazEZ6YaPFnZopnbG5efDLCcx4VYjlw4r6el2Au7mGpy5ch8Fw4awWMKVDLGOMoiNw8kYCu7uwUUZ+XeC4iKhvFc0MxqB06F+Tmxbb8ZzF3T9xD1KcqnPe+q8JcFcuQ8R2hoVM6F/RBlKsm0BszKIY5g0qElxnxcwtdF3ZxNr68K9JExnIoPlisu6kmrFujH363eb3ShrRhOzRA4GkcVkcjPK890X9FEP9FYUsG/rjMgYuSwS3vKSgOzDU/0VsLvMemnzv3WiarW9HGlycrmFFBGAJPAko8kcVPPPfr8pdA40ndsyjJJ52sXkn3VcJMAHm9UGN59WQIMJEg7yfV++101ooo6Z60IvLtvKVOEaXKvpkI21lnd+qWjIdGdyyXTp4aaK8GCDyN4+k88AaQEf/3zv4Ao/L/4mna2ezkMMauoKQ+6qtqoSgeo1XvHp6I+kbnsfwoSDQX4PEeEZaLR31B+6JNK1lM3og/tst7HNmn8agvk8ki90BEi/oIL5ORm05c1M2LMyZReBA9zcV7MsyDAiYNeb0a4QWT6vAZ/xrlkWnuSxvWvQJmjtVJjN+CsWh27Hh+ex0h7bsz7EvgaZxXVwAvM4B3/zCYjng07W3LZJVLmuoyZwN1R8DbGROoLbZvwM6sl/qiBprXAIGncS7dAryOCprA69yPDY0mO6oFtoda6BMNEHiagSTwBpAh8OjkNHOD4G0+qqDNusdmBJ5mUhN4BB6dVPc4KY4Fx2KrNEDgEXj6SIYRnt4uGr1s1WRkOXTs1EB7NUDgaRwYI7z2io6TmvalBqiBTmiAwCPwGMloNNCJycg6CQFqoL0aIPA0zo4RXntFx0lN+1ID1EAnNEDgEXiM8DQa6MRkZJ2EADXQXg0QeBpnxwivvaLjpKZ9qQFqoBMaIPAIPEZ4Gg10YjKyTkKAGmivBgg8jbNjhNde0XFS077UADXQCQ0QeAQeIzyNBjoxGVknIUANtFcDBJ7G2THCa6/oOKlpX2qAGuiEBgg8Ao8RnkYDnZiMrJMQoAbaqwECT+PsGOG1V3Sc1LQvNUANdEIDBB6BxwhPo4FOTEbWSQhQA+3VAIGncXaM8NorOk5q2pcaoAY6oQECj8BjhKfRQCcmI+skBKiB9mqAwNM4O0Z47RUdJzXtSw1QA53QAIFH4DHC02igE5ORdRIC1EB7NUDgaZwdI7z2io6TmvalBqiBTmiAwCPwGOFpNNCJybg9dZ7CYsWF6zowr45w7HfU2BOyBJ5G8NsT4e3C9JX9uPGVeO3FRKIdhyb24triQTz8ach7/bC4H1/8aRcOJc7bHifJidI/dibw+mcsOS+bHUsCTwOQ7QHebtz5ZQRv3ojXEK6F7RjE5fsfBsfl9/L9CO6cpcibFXnPnv9RHqVKFc5qnpFYOD+o/57VcxeMIYGnGYROAm9i8X0FdsN49eKo//p1BG9eHMScpr2cAH3qBM8WUXVduGsEHjXepxrfZn9G4GkM3jng7cbyUxnNHcWPnysiN3bh9MQgf+lrxqtvnSGBR73vJL1vQ18JPI2ROwm8aJnzKH6YV4CnaWdrjj6LsdkFlMVS2WuxecF/Oc8qWD4Xr88Ym8WtBxVUneg896UNaymHMSN+biZzBsVn4jwT+cwQpm6asOV1r6uwbs9j1OtDFpM3ytioRmXaj1YwN5ooL+bsT2JuyYrKc11UK2UUTmf1DtEYx/mFMjaeOWH/3NcORD25Mc01103vvOrtM8gcPoPCqh3ZxrFh3jxT496p6Ge8L45tYfnzcRiJ8cqvif5WUTw7gEOfFmDaUdsc20Th06GoL7LvwdjIMRLvXhuDso2xHJYfKW11XYj6C29Z9lbbomqo1fLUMvg5oeOEDmifztqHwNMIsnPAG8Dl8jFlSfMont7fj+ljWyWSk7hcroYQsNdNmKviZXlwMK9H9YxeLMGWMLSt8DxbQtIuYiYGPQk8C8XbNtzXNixR9qMKqsE19soMZsR3rgu/bgv2ywB89gqm1LGQTn9tAfk1B+7rKjYe+e21bAlLG8XpBMBG51GS3ztBG1ZN1L1GAq+0AlO051nQ33W/raK9G9+dioAk2mlM4tZ6AK1qJdFXB+b1k7HzJWRKKyYcAa7A9lG7Klj8OLD/R3kUPdvZ3rlutRLY30Tx6rhXrjFdDMdHjqNV8cdWHUedg5VtEfCV32+mPFkG3yN70hbdaQsCT3WywedOAi9zYh8evhhWoCeWOIfx3DqAuRObE9HEdxUfdnYpHVGpdhgtwPKiMxuli3HHnTHGURAAEtFEOadEMhJ4LtxqGZeViC10po4Dx62i/KVSpjETRIYOypeU/kngCejaRZw/rHyXyYbgdCuLyg7Xkyg88ttml2REKa/LYuyGDxvXKSOnwjoAngfi4mwsmhu9HlzzshS7fzp124dLqp7RPExhO8dE/risewA+ZFzvh0DxnBLNZU76QBf2LM2HAPIcprRB6h7eCArrfsRYuhAHvojS5hSQ6RxvGnibK09XB49FY09bdI8tCDzV0XcD8EQbDu/GjZ+OJKA3gjevhnCtVegZV1D2IFbBLQVGusl4/l7gzJcSUY20lTGPkheZWSiETj0CnnUzmd81gluP/ajMKV9RIOlPhLEAxPbKZOTwpbN3bSzLyEfW772fwvITUWYFix8FE+pcyd/k8WRFgaA62bKYK/lAjLVRAq9awpwKQq8e2S8by58EZRl5mALE2vMHMLHkR4bm9QhGEnjV0nyq/xnZV3sFk2of5fEU8GSbKrgV2l/tZ/3PaeBtrjydhnis/hjQPp2xD4GnOpjgc0cjPLU9xi5M3zyE52KHppe+MILnd/dEUFDPfdvnS2VveUxEZfUn23iQmFzfmebKPjjMq1K4kdMMAaS0aaboQ9S6EUEgbIdcUhT30OQ10tknISC/zwxAlimX8CQ4N75OAle2cQCZwA6uutVfAk89ptSTAsTV4J5fcSZqr3J+RtMfCbzIXkqbMgFAnxVrLOumd2nmHgRR9voCZo5pbKq2J/E51Z/MADZTXjhmiXp4XB1jfu4GPRB4mkm6PcDbh4cBxOJ5eOmJYXx1OATeG3Of3slq+qEKbPhrfzkzFkVpr8n5kaBY9tN+77dPLulJ2MQ3raT7kD5fOUcDiDDqSUU30XXJMn0IJ5ZGk32QIFXL1dWvXJcEhASrWAKt+1IAmixDHZtMC8DLGDNBhOu3QWziuTWb3iwTr8e3nbYtmyhPVwePRTqlLbrHFgSe4tikMLcDeKNfHcYrCbynB3A6aMfE/D7MTcQFMvav74XAe1V+pyXgTa74y2wb3/mbHmRf0+9BtNGDwMuvCufffuBJWzpP5KafGu/fzoZjpYVMqL3mIzx/3IYwcWEhvuPz8WJiM1FcS+K62m1prby0htJ18hzapBs0QOCFTicSZLuAd3r5/TCRXC5RivenS7sDx7gLtx4Hy5e/BgnnL9Rdm0dw57OonU0JKIhiUhsjUv2fxLK3y7H+kqZ/L0yFi1zSFGkJ6TYmo7FY23URlozEHi9gWFOeuF4CrnTBr0+CqO6S5oVSemlXV79SZwoQ8vxaS5rKtbKfqTJi57QKvMjOYrNKybun6aJ6LwKtrF99r98Wv8xmylPL5udoTGiL7rMFgRdzPP4AtQt4X8RSDnywvdrIYjrcKKEuc0b37Tw4/vohfvxyE4nnxxewIZbgkjsUNf2Xm1ZSW/HluWLTisijc8q4HLa9TcBz1Y0xygSSm3DUNshNK7Gdm8o1GbFpRdxLdFD+UrnvJQGm3kOUfdVFRB8t+rasuTlGrdP/XB8ymwee51w/XvFTFerc9xTn1W+L0vYGy6NjV2ym6IZ26T67EHgagbYLeBMXsrhz338Y9MO7WVy7sDu2BV5MEOPYIKZz+/G3u8F59w/gVm4P/j62Lb8VIWUhN5o46wuYDEElyspi7C9lFOUGlI8Dh+7aiG+hF/ln42Eun72ibDKJJZ6n29dyhCe2668V4onuSmqEmoidycgHI7uwE+kFso/eo7qSOX/NAi8zEqYSpOsZgIiOig8WYxtQ6kOmBvA+CQCWAus45j5PJ8MbF4Jdqmv5YCdoFnPejlsRiUeAT7el0fLS40qnTpv0kgYIvG0EXseFoW5M0CRyRxtQBhDmnwngaBLPxQON/SenyAnfpgjvsenntclE9lULYfL7k5X0/SqRByeT2XWJ5y9N5JNpGU0DbwCZWvUEyd9uIspKQ0baTbzXAF5m1o+kxRg8EcnwFqwl8SMjsLUyhlGCv5qMH13vrl6pcz+x0fLUNvNzx+ezxnexTfV1SeBpRNOuCK8rxCgfu6U82qvW48KM01dQ1Dy6qng1HV2ETth7tFhadC1HeGI35ei89witcEekAJn28WZBvcYkLt9WnuIilnLFI9Fu5zGli5RbAZ7QjXgMme7Ra/cKqVSB1oA3AOO0eAxZtBvUWhCbjkYw953on5+a4NlF++i0bJBu8LYIr9Hy0uPaFZrWzGG2i2Ol0wCBp5ksfQ08TX91wuj4MblpRU0f6JW2d3k7ffgqifRd3t6Oa5H2CVcHen0sCDyNmAm8Lvh1SOC1yckET8l5S9pJrzs2tr8L5rDGt3Z6XAg8zaAQeF0wWQi8tgBv9IYVpGWkH/HWaWfE+rtg3mn8YT+NC4GnGWACrwsmHoG3RcA7g+UnwX+NWPcf7+Y92Dq5cUczD/rJ0bEvXTCnu0BjBJ5mEAi8LpgcBN4WAW8ct4L/ICE2t1TXi/r/CaiZB4REF8wDjssWzQN/LAk8jaAIPE50OntqgBroPw0QeATelv6CopPoPyfBMeWY9osGCDwCj8DTaKBfJjj7QVhRA5EGCDyNs+OSZiQQThbaghqgBvpFAwQegccIT6OBfpng7AdhRQ1EGiDwNM6OEV4kEE4W2oIaoAb6RQMEHoHHCE+jgX6Z4OwHYUUNRBog8DTOjhFeJBBOFtqCGqAG+kUDBB6BxwhPo4F+meDsB2FFDUQaIPA0zo4RXiQQThbaghqgBvpFAwQegccIT6OBfpng7AdhRQ1EGiDwNM6OEV4kEE4W2oIaoAb6RQMEHoHHCE+jgX6Z4OwHYUUNRBog8DTOjhFeJBBOFtqCGqAG+kUDBB6BxwhPo4F+meDsB2FFDUQaIPA0zo4RXiQQThbaghqgBvpFAwTejgHeKSxWXLiuA/PqSHujui745635NdHXKopnu9RZXTfh/UPW22faOxYaffeL82I/ulTbXaw5Ak8zONsd4X3/hz34ItaOXfjx1B5cHthKQRN4XeUgCTyCPjbnt3Kus6xac53A04hu24A3sAs/Th3Af83uxeVYO3ZhffYg/uvPe5Ef7EHx9myEN4vFdRvOkxVMxcajDWNA4BF47dYYy09pjMDTiGJbgDcwCPOzA/iv/+WDLRnhrf/5oP/dv7yD/7OnDQ5X0+9av4qaPt6zwMvDdF24z4oEXjv1wbJTjrjpOUYbtmRDAk8jnLYDb3AQIdAu7seP2TTQju7bjZfzAfTm9+GHfelzunaSEHhvn4yM8N5uI83c7FrNs609MZ4EnkaobQXenkH88i8ByP68F9/Ui972DOI//vldP9KrAcZmHIB2I4cKJ2McudsWqq/Fhg8X7usqrNs5jBl62B76tIBypQpHnu/YsJbmMaqWmbSvqGPJgu0EdbguqpUyCp8ORRPGmEep6m86KV3IRse9sk7i1mPxnYPypeR3UTvVvop2mrbj98l14dgWli+eVMoNIjvR5+RrLR+cdwbFZ+J7E/nMEKZumlEfPDvNY9RrXxaTN8rY8Nrvl2c/WsHcaNQ2b8wIPMX+CdskNcO/aast0gCBpzFku4DnRW0Xfdj952cNbkqR9/nE0mfOwPrB1p2DCoEQlCGcilh+4sJ9acNaNWE+qoTgc8o5GAk7jV434QRwqFYsmOKaddsDhlOpoCq+C2ERtHl0HiU7gIodv8Z1bRSnI4AZl8p++ZVFTCh1y+POah7DyvGwP8GxsK8LJa8tso2WrN+1sRzu4JzFomj/atBuAW7vbxPmt7MJ4Fko3rbhvk7byV6ZwYz4znVhr4vyLNgvZX8T9wUJPDrxOvpN6pl/t+73VNsReBrRtQt4l//B8KK1/zy9G//c5A7Mb/7oX/t//2FXy44ihEDo6AeQkcATkc9aIRbNGdNF2B7UKrh1XBHc6AI2vOM2iueUyCwzAOP0AiwZvcWAN4L8moiyHFhfT8YAGtYTu3c2gvyqf34YycnIzzGRV9ujGUO/ryJKtVGKRXNDuFz2oz0BcnUyZDL17uHJCM+FWy3jshKxhe13HDhuFeUvlejRmAkiQxGRKjYk8BK2V2yjGc/4OPFc2qM1DRB4msm1M4FXwS3FifsTKgsJDvNqJLCp21U/ilk6pXVaowsVf2lQBZ4E6+OFYOkvKi+TyQYQSuTNSbAGIJz4TpTrwLqhAEUzfqLtst1OaT4GV69fsi0xwIr2NAY862Yyj3EkWGZ14ZSvpOob89rtwl6ZjOxF4EW2qDGGdOrqHOHnrdADgaeZbO0CXlcvadormNTYQsLNvC4n3HiQwF7B4kfyWOJdAkUB3uSKv9Rn3YiWLVUBp+vxy/Qh58L6dgGmiBy1wEzUrwBPBXVUXy2w1TouypcRnr7fM0X/R4C2fzq46Y5p7B+1Od1HfkebUAPNaYDA0ziZdgHPE2c3b1rR2CINonmUvPtSYvNGDbFpgJcLlhFTm0KC+4DyeCwK8so/g+XwvpsuCtW3Qbt8G7a3FthqHRd1SODp+522k9IuHdx0x8L2KdfyGCNBamDLNEDgacTUVuCJ+jqUlqCFgAZO6q/GtCMPoPCyhDmN7bxrNWXmV/3NG1VvM4fY0KF/Fa+OJ8R9EoVHwQ5Lce8uteyqh4O2r2F7a4Gt1nECT9UEP+s1R7t0v10IvNAJRoPVduCJOjuQeK6FgAZO6sRNA09GOhYKNdIVMhdK/g5LZUlTlqNd8tOMgWzD6A3LK2vjQdnbbfm23ZnyOm1fw3pqga3WcQJP2pXvkZ+gLXrPFgRe6ASjwdsW4HnQ295Hi2kh0DTwoo0s6c0bwoZZzJX8+1mxtIQgzUC3qaOm4xgt+Ds+vc0lml2bmrGTZWn7Gp5fC2y1jot+SdBzSVPamO+Rz6AtesMWBF7oBKMB2zbgBXVvz8Oj5c7FxE7IpoE3AJkL5zomCmPxTSijF0tBKkMyD08Cw4F5Yzy1k9FLDi/KJG8xFnIps4ow+Vzu2nTKyMnoUqYqvFSOhZtWEn0Nx7oW2ILjThmXZfnhNbL9BB6de+QraIvesgWBFzq0aOC2G3jbNWm0UU8LwMtkRpB7EERxYZK1Casijjkwb/vJ3rEIT+ToTa/Alk9lqVbC5O4wGXw1Ap5cykwuYcql0apMNzgX1OW6MP8SjaG2r+FY1wLeCArrQaL4M5EYb8EuyTYReNulU9YT6Zi22FpbEHihE4wMS+BFtpCAidIS5Hfi8VrxR2iFj+yqA1FjLIflR3b0ODKR8P6sAnMph4nDQdlyKdPV7MqUEZ34X3fiySxGDmWxa3RLIrwBZEbnUVyPYF69J5PTCTw6X6l9vveqFgi8HQS8XhUp200HSw1QA1uhAQKPwEukAXBibcXEYhnUETXQfRog8Ag8Ak+jATqr7nNWHBOOyWY1QOBpnF2/3sPbrFh4PR0ONUAN9LIGCDwCjxGeRgO9PKnZdkKJGtBrgMDTOLtkhPf/3nsPfNEG1AA1QA30ngZU+BN4DQJPNRo/63890S60CzVADXSTBsQPFLU9BB6BFxOEKg5+pvOiBqiBXtYAgacBXHJAdUuayXP4Nx0BNUANUAPdrQECj8BjRNeABujIutuRcXw4Po1ogMBrwNkxwuNkamQy8RzqhBrobg0QeAQeI7wGNEBH1t2OjOPD8WlEAwReA86OER4nUyOTiedQJ9RAd2uAwCPwGOE1oAE6su52ZBwfjk8jGiDwGnB2jPA4mRqZTDyHOqEGulsDBB6BxwivAQ3QkXW3I+P4cHwa0QCB14CzY4THydTIZOI51Ak10N0aIPAIPEZ4DWiAjqy7HRnHh+PTiAYIvAacHSM8TqZGJhPPoU6oge7WAIFH4DHCa0ADdGTd7cg4PhyfRjRA4DXg7BjhcTI1Mpl4DnVCDXS3Bgg8Ao8RXgMaoCPrbkfG8eH4NKIBAq8BZ8cIb2dMpolvK3BdF85qHsMN6KKRCcZzdoZ2OM69Mc4EXgOObXuAtwvTV/bjxlfitRcTiXYdmtiLa4sH8fCnIe/1w+J+fPGnXTiUOI8Tr/WJR+C1bjvqjrbrBQ0QeA0AY3uAtxt3fhnBmzfiNYRrYbsGcfn+h8Fx+b18P4I7Z/thos1icd2G82QFU2G/+6Ff7EMvOEG2cefolMBrwMF2EngTi+8rsBvGqxdH/devI3jz4iDmGmh/90/oPEzXhfusSOD1xXjuHAfa/XOLY6GOEYHXgIPpHPB2Y/mpjOaO4sfPFfEau3B6YrBPNpwQeOqk5GdF5w3MT9qL9mpUAwReAxOqk8CLljmP4of5rRV2fs2F61ZRPDuA0YtFbLwUf7swr6r1DGHqahGW7Xjfie/d1w6qlTIKnw6lgDt1u+qXcV0tQ34+g+IzUYeJvGf3AHSizORrLR8v2xhHbsmC7UTn1mpDRp4b9Mcr+6UN6+aZeJnJsb9ueu2o3k6c12p5yfL5d3370z60T5s1QOA1YODOAW8Al8vHlCXNo3h6fz+mj0mAbO49BN71FdgKcEwJK2MSt9YD0L2uYuORCXPVhFXxoea6DszrJ2OTtDngzWJxVZRZQVXU79iwvL9NmN/ORuWOzqNkB6CzLa8N5rodQNJGcTobnWvMoJg891EF1dcu3CREk2OvA95mykuWz7+jcaItaIsOaIDAa8DonQRe5sQ+PHwxrEBPLHEO47l1AHMntgZ49hMHdimHicNqeVnMFH2wOesLmDTU7wZw6FwxgGQFix9H3zUHPHldvSXNEeTXBHQdWF9PwlDGy5gO2qDc+xu+aflRWmk+dq4X9V1MRG5KWd6SiAZ4myovWT7/ppOnBjqqAQKvAQF2FHiifYd348ZPRxLQG8GbV0O4tgno+RGeC/fJSioNInO8AMuLusq4nICdXC8fXfDz1qr3omhsy4F3tuhHf48XMJoaqywulwUM/WVZ0S5Z/8bXI81PLA3wNlVeqr0S8HyXGuI7tbCdGiDwGnBKHQeebKOxC9M3D+G52KHppS+M4PndPc079qA8CTwtHC6V4Ygk7NJ87fI/WsSGgKK9gsmgTAmIcFlUtt17T97Dk5O9doQ3ueIvXVo3lGVLpcxUfZ/77XYdC7emR+JRnnKddpJpgJfZTHlvq4/f19YWbUPbtEEDBF4DRt0e4O3DwwBi8Tw8CYXo3fjqcAi8N+a+lieGDzwHpQtR2RIEY9/50dvGd+N1yk+DKgWgmH2bB17Oi+CijSqpzS3BvUd7ZTJoZxYzASS9c6sVlBdmMVYjSpX99d51wMtsorxY39M2jtXNc+vojLajVrZGAwReA45mO4A3+tVhvJLAe3oA2AfzJwAADbVJREFUp4N2Tczvw9xEfLDH/vW9EHivyu+07CjCTSua5HUZWXUaePlVH3bVdX/DjNg0o3sVr8bBfGhiHrdWbThis4qA4ssKFtXNLbpx1wLPt31L5enq4LGW9UqnH/cDtEfz9iDwGnBA7QLe6eX3w0RyuUQp3p8u7Q6cwi7cehwsX/4aJJy/UHdtHsGdz5ofdDlR6gEvc9Xfol93SfP4gr+kWVnEWGDH+hHePEpeqoBMS5BtT0eKso2yvFpLmvK8mu8ipeBesKOzWsL5euNdB3hh+c2UV68ufkfwUQPbrgECrwHRtQt4X8RSDnywvdrIYjpcflOXOaP7dh4cf/0QP365ucTzusBTNq3kwvZIQPnvo1/7y5720qlQuHIptFqcCY+FsPhYpj80DryMvJdYvtLc/bjYuJ7C8hMR6dlY/iTeh7Bt4vxGgOeV22B5sTbUqZfnpbVCm9AmbdAAgdeAUdsFvIkLWdy57z8M+uHdLK5d2J16GLRxbBDTuf34293gvPsHcCu3B38fSyFozZnWBV4mC3n/zFkrpO6BHTq3gg2RBO6YyB9X6j9XCnLqTORHleNqPluYeC6/DyI8R7cjVN73c2DeGE9B79CnBZjFKEl97EIOU0nbGPMoVQXwTOQ9eGcxd0+kXDgoX1I2w2iA11h5sh98j/2AaGBu8XxqZjs1QOA1MCnbBbztHGhdXfWBN4CMMRNERuLpKprE89c2llP3xU4GeXP+NX4iuQX7tQtnrYhS7EkrcrKPoLAe3Gt7JhLLLdilCGLG9Ip3vdyEIpPTLZlgvhqdK5dAq5UgQX3VwoYHOxf27ZkAmLMBAF24q1eiX9Ia4DVWnuwH33U64zHqols0QOAReN6jxWoL8iTOL5Sx8Ux5tJhTxcaDBZwfU6Ij1Y7GJAoPgqebiA0jApYPCpg0ZLSWXNIcQGZ0HsV1+QQXF9V7uQhEmQEYYzksP1I2oYiUiWcVmEvxhPnhC4veY9DCzSriPNvC8udqdJhF7oGfzP62CK+x8ujQauuHtqFtukcDBJ7qqGt87tcIjxMxMRGDCC9KcUh8X0MftCPtRA30hgYIvAacGIHXG2LerNOZK8mob2f0d7P24vXUSa9pgMAj8GJLh70m4C1r72gBlrcJR7dxho5ty+zcwHxjXdRbuzRA4DUwARnh9ecEnFqxYXsJ7Zb/3xQ0//2hXROP5fanpjiu3T2uBB6Bt2MjvLEFK3oSS9VCMbaxpbsnLh0rx4caaF4DBB6Bt2OBR4fRvMOgzWizXtYAgUfgEXgNaKCXJznbTkhRA74GCLwGnB3v4dFh0GFQA9RA72uAwCPwGOE1oAE6u953dhxDjiGB14CzY4THiUJnSQ1QA72vAQKvReAJw/FFG1AD1AA10FsaUH+4/LeDBw9C91JP2mmfkxHeTus/+9v7v2w5hhxDaiCtAQJPE/EReGmhcPLQJtQANdDrGiDwCDxuYtFooNcnNttPOFEDaQ0QeBpnxwgvLRROHtqEGqAGel0DBB6BxwhPo4Fen9hsP+FEDaQ1QOBpnB0jvLRQOHloE2qAGuh1DRB4bQKecWwQ07n9+NvdIfz8b4fx8KchPLybxY3cbgwbnDi9PnHYfmqYGug9DRB4Wwm8w7sxt/B32Hh+DG/ejNR+/XoED7/aDUNTNydR700ijhnHjBroDQ0QeBrotLKkOXXzEJ7/moDcr0fx6oXyejWsQPAofsz1hkg4mTlO1AA10A8aIPA2Dbxd+OL+bwKQHcObEHrH8OOXyUmyG6dns9gIor/n3+/mhhGN/fthYrEPSe3zb2qi8xog8DQOt/EIbxBzdz/AmzdHsfH9O5g4sR8/y6XM5+/ivKbsqfwQngfnPF3eOuDl11y4bhXFs+0T1XbUkbluwnVdVG+f4Y8BjX7oNNunb9q2/21L4GmcSkPAM3bjb+YQfribxeV/9IVifHkIrzyYDWPjfw+mHfaJfXj4Si57HsGdLYTTdsBoO+og8Prf6RAsHONOaYDAaxV4hwcxcSIu3MvlYLPKq0O4nNyJeeId/Phc3sMbxtO7ezCsqbtVIWwHjLajDgIvrqlW9cDraEdqIK0BAk8DnYYivOR1x41wOfPpUnyp0jht4OcwshvG0+/34FDy+k3+vR0w2o46CLz0JKXjok2oga3RAIGnAU0rwDt/V25c+QDLH/uDM/zZO/jb/feDZU6xlHkEP3w+2JZ0hO2A0XbUQeBtzcSmg6QdqYG0Bgi8LQHeHvzwIrg398tBXLv6Ln4Oly/lPTsfeHc+Sw/CVghThZFxuoBypept/hAbQFzHhrU0j1FNXw99mkfxkQ3ntdj04r8c28LyxZOpe5Ct1iH6d+hTXZtyGEsu/Wo3rZxB8Zlom4l8JovJGyaqXnttLH+i2PPwGeRvW7BfRn1xXzuwy3mMafq+FXZnGYr9aePUnKE+uksfBJ5mkjYb4UWbVVS41fj8agjXjm+9CEIY3SjCFuCyLZirJsxHlQAOLpy1fAJ6eZgB5Ox1MzjfhuMdq6J0IRubwK3VkcXk15Zf5usqNh6JeixsVAO4Jtv0FuDdumoG7RPXR7tSjelFbDgB6KoVWKLv4rVuw3myginNONMZbb0OaVPatJs1QOBpHGFzwNuFG5bcjBJA7tejePpvB3DtT7u8e3WHJt7BD79IAB5rS8K5DyPh8B2YN8bjy6ajeZgeDByUL6kQu4LiagFTh+OT1LhU9qGylo+V01IdZ4uoegAuYW5Ureck8muO397rIxFY6wLPhv3EgbUwE388m5FDOeif9fVkrM3dPPnYNlUP/Ew9tF8DBN5mgfdxFk+9VIRjXi7e9P/YpXG4u7H8HwHwdDs4NW1oVvwSRk75iqb+ARhf+hBzyrkILjXrDSK/Z8VYZNR8HVn416SjRa9/H6/40agK1rrAc6Hr38SS7efulea1fW/Wljy//Y6HNqaNO6EBAk/j9JuJ8OZKwWaVXw7E4KAO5umFw1F+3mJ8B6d63mY+SxiZV2tMJKMAS0RaCYhlMlkMT+dQ+K7kLTXaLx3lfp64ZxaV13wdEThnlHKifkbfh0uOdYHnoHQhao9fzjgWKyKyrWDxo+R3/DuyNW1BW1ADBJ7GETcMvDAV4Rge5nelIydjEJfLHwaPHRvG09LexD20rROgjKRqP2lFA5fReZSeBPe9BAxfOqhWLJgPLH8Z0tskErWx6To+WsSGdz9QqUP7twLWusCr4Fbq/uc8St4mFaUMzZjS2UXjSFvQFjtVAwSexjk2CryJJfFYsRG80UR3xj/uxQ//Ie/tHcXG0tbn3qmibRpGmREU1v17fhu3c5iI3ccL4LhZ4H0SLFm+tP0NJHIjSep9MXoMW13g6aAWtNUpI6cZS9VG/ExHTw3sbA0QeBon2RDwjHfwo5dMnojujEF88f17Ue7dq/ew/Of2i8wHnm7JL6hbwufxgv+El+MLfvRVWdRs2a8HvCbqyERRpX5JU2OXpoEnUxZ00Z+mfM140wnSTtTAztAAgadxgI0Ab2LxfT+6Ux4SPXX1XWy8kFHdCF5tZHE+Fjm1T1Q+8FxU782ml1YzA5AbO+ylU/73cvfkWj51vtzg4ue9RW1uuo6MvL9mh8n4b3UsTQNvAHMlsdvTxcZ3Qd80Y/rWenlNSge0WaR92qI/bEHgaRzdW4EXRnfD+HlB/tNXCbphvHnxAX5eaNMSpjGPkshhe1lGTknaljByXRvFc0Mx53XoXJCb55jIy3tgMsJzLBTUdAFxX89L8hbLnfElxKbryAxg+HqQN2cX0/A3xpG7Xcai+hDtFoCX+VjeK7RRSibMH57F8oPFmhuK6Mj6w5FxHDmOjWiAwGsBeGF0F/ybH/+/mw/jlQDd3f2pvLZGBqLhc86Vgg0lLsy/RCL3YVSFuRps0RebT1ZNWOETVxyY19Wnp4wgv+pHRu5r20/UDpLUnTUz2GyiA14zdYj2nVTqcRAluMuE+MTTUloBXmYAoxKsYlNMMuk+tTM1slvDdtfohNfSjtRAb2mAwNM4sroRXhjdySTz32Djfhbng38R1PYJIJKsxa5EbYQnnjziP3rLlk8dEf9brlJG4dN41Oe10xjH5XsSPC7c11VYt8Xjvurdw2uyDs++Q5i6WcbGswCwAkrikV/rJRSmR+K5cy0CT/Qn9Zi012LXaY2+a8a97WPHOmMrD7R3b8GiH8aLwNM4oXrAG80fxM//dgSvnv4drv1pMP7ED01Z/SAS9oGOiRqgBvpBAwSeBlL1gCcGfWp5CO16CHQ/iIp9oHOkBqiBbtQAgdc08Pbi2lXNfzPXlNONA8420RFRA9TATtUAgacB1dsivJ0qFvabjpIaoAZ6WQMEHoHHjQQaDfTypGbbCSVqQK8BAk/j7Bjh6cXCSUS7UAPUQC9rgMAj8BjhaTTQy5OabSeUqAG9Bgg8jbNjhKcXCycR7UINUAO9rAECj8BjhKfRQC9ParadUKIG9Bog8DTOjhGeXiycRLQLNUAN9LIGCDwCjxGeRgO9PKnZdkKJGtBrgMDTODtGeHqxcBLRLtQANdDLGiDwCDxGeBoN9PKkZtsJJWpArwECT+PsGOHpxcJJRLtQA9RAL2uAwCPwGOFpNNDLk5ptJ5SoAb0GCDyNs2OEpxcLJxHtQg1QA72sAQKPwGOEp9FAL09qtp1Qogb0GiDwNM6OEZ5eLJxEtAs1QA30sgb+P0kNQGKGTe8fAAAAAElFTkSuQmCC;" parent="1" vertex="1">
          <mxGeometry x="-9970" y="-8360" width="264.95" height="947" as="geometry" />
        </mxCell>
        <mxCell id="g50-K30Fox4ZiZ33WrxE-1" value="out" style="swimlane;fontStyle=0;childLayout=stackLayout;horizontal=1;startSize=26;horizontalStack=0;resizeParent=1;resizeParentMax=0;resizeLast=0;collapsible=1;marginBottom=0;align=center;fontSize=14;" parent="1" vertex="1">
          <mxGeometry x="-9210" y="-8631" width="160" height="56" as="geometry" />
        </mxCell>
        <mxCell id="g50-K30Fox4ZiZ33WrxE-2" value="webpack打包输出后的位置" style="text;strokeColor=none;fillColor=none;spacingLeft=4;spacingRight=4;overflow=hidden;rotatable=0;points=[[0,0.5],[1,0.5]];portConstraint=eastwest;fontSize=12;" parent="g50-K30Fox4ZiZ33WrxE-1" vertex="1">
          <mxGeometry y="26" width="160" height="30" as="geometry" />
        </mxCell>
        <mxCell id="g50-K30Fox4ZiZ33WrxE-5" value="app.js" style="swimlane;fontStyle=0;childLayout=stackLayout;horizontal=1;startSize=26;horizontalStack=0;resizeParent=1;resizeParentMax=0;resizeLast=0;collapsible=1;marginBottom=0;align=center;fontSize=14;" parent="1" vertex="1">
          <mxGeometry x="-8960" y="-8114" width="405" height="190" as="geometry" />
        </mxCell>
        <mxCell id="g50-K30Fox4ZiZ33WrxE-6" value="init()  // 初始化，用于创建App之前，全局工作等" style="text;strokeColor=none;fillColor=none;spacingLeft=4;spacingRight=4;overflow=hidden;rotatable=0;points=[[0,0.5],[1,0.5]];portConstraint=eastwest;fontSize=12;" parent="g50-K30Fox4ZiZ33WrxE-5" vertex="1">
          <mxGeometry y="26" width="405" height="34" as="geometry" />
        </mxCell>
        <mxCell id="g50-K30Fox4ZiZ33WrxE-7" value="registerGlobalComponents()  // //注册全局组件" style="text;strokeColor=none;fillColor=none;spacingLeft=4;spacingRight=4;overflow=hidden;rotatable=0;points=[[0,0.5],[1,0.5]];portConstraint=eastwest;fontSize=12;" parent="g50-K30Fox4ZiZ33WrxE-5" vertex="1">
          <mxGeometry y="60" width="405" height="30" as="geometry" />
        </mxCell>
        <mxCell id="g50-K30Fox4ZiZ33WrxE-8" value="routerHook()  // //路由钩子" style="text;strokeColor=none;fillColor=none;spacingLeft=4;spacingRight=4;overflow=hidden;rotatable=0;points=[[0,0.5],[1,0.5]];portConstraint=eastwest;fontSize=12;" parent="g50-K30Fox4ZiZ33WrxE-5" vertex="1">
          <mxGeometry y="90" width="405" height="30" as="geometry" />
        </mxCell>
        <mxCell id="g50-K30Fox4ZiZ33WrxE-9" value="create()  // 创建 App&#xa;&#xa;在创建 app 实例的时候，将router，store挂载到 el 上&#xa;使用 render 函数 将 App.vue 直接替换掉 index.html" style="text;strokeColor=none;fillColor=none;spacingLeft=4;spacingRight=4;overflow=hidden;rotatable=0;points=[[0,0.5],[1,0.5]];portConstraint=eastwest;fontSize=12;" parent="g50-K30Fox4ZiZ33WrxE-5" vertex="1">
          <mxGeometry y="120" width="405" height="70" as="geometry" />
        </mxCell>
        <mxCell id="g50-K30Fox4ZiZ33WrxE-10" value="app.vue " style="swimlane;fontStyle=0;childLayout=stackLayout;horizontal=1;startSize=20;horizontalStack=0;resizeParent=1;resizeParentMax=0;resizeLast=0;collapsible=1;marginBottom=0;align=center;fontSize=14;" parent="1" vertex="1">
          <mxGeometry x="-8960" y="-7740" width="400" height="160" as="geometry" />
        </mxCell>
        <mxCell id="g50-K30Fox4ZiZ33WrxE-11" value="定义了的五个组件&#xa;&lt;TopBar/&gt;&#xa;&lt;FloatMenu/&gt;&#xa;&lt;Loading/&gt;&#xa;&lt;Dialog/&gt;&#xa;&lt;router-view&gt;&lt;/router-view&gt;" style="text;strokeColor=none;fillColor=none;spacingLeft=4;spacingRight=4;overflow=hidden;rotatable=0;points=[[0,0.5],[1,0.5]];portConstraint=eastwest;fontSize=12;" parent="g50-K30Fox4ZiZ33WrxE-10" vertex="1">
          <mxGeometry y="20" width="400" height="90" as="geometry" />
        </mxCell>
        <mxCell id="g50-K30Fox4ZiZ33WrxE-12" value="前四个组件直接展示在页面上，最后一个组件随着路由的变化而出现变化" style="text;strokeColor=none;fillColor=none;spacingLeft=4;spacingRight=4;overflow=hidden;rotatable=0;points=[[0,0.5],[1,0.5]];portConstraint=eastwest;fontSize=12;" parent="g50-K30Fox4ZiZ33WrxE-10" vertex="1">
          <mxGeometry y="110" width="400" height="50" as="geometry" />
        </mxCell>
        <mxCell id="6fhWIYDgG0x7a7dML8SJ-1" value="routers.js" style="swimlane;fontStyle=0;childLayout=stackLayout;horizontal=1;startSize=26;horizontalStack=0;resizeParent=1;resizeParentMax=0;resizeLast=0;collapsible=1;marginBottom=0;align=center;fontSize=14;" parent="1" vertex="1">
          <mxGeometry x="-8970" y="-7290" width="260" height="110" as="geometry">
            <mxRectangle x="-9620" y="-8920" width="90" height="26" as="alternateBounds" />
          </mxGeometry>
        </mxCell>
        <mxCell id="6fhWIYDgG0x7a7dML8SJ-4" value="路由配置信息&#xa;默认路由为 {&quot;name&quot;:&quot;activity&quot;}&#xa;即当第一次进入页面后，会默认跳转到该组件" style="text;strokeColor=none;fillColor=none;spacingLeft=4;spacingRight=4;overflow=hidden;rotatable=0;points=[[0,0.5],[1,0.5]];portConstraint=eastwest;fontSize=12;" parent="6fhWIYDgG0x7a7dML8SJ-1" vertex="1">
          <mxGeometry y="26" width="260" height="84" as="geometry" />
        </mxCell>
        <mxCell id="6fhWIYDgG0x7a7dML8SJ-5" value="components 组件" style="swimlane;fontStyle=0;childLayout=stackLayout;horizontal=1;startSize=26;horizontalStack=0;resizeParent=1;resizeParentMax=0;resizeLast=0;collapsible=1;marginBottom=0;align=center;fontSize=14;" parent="1" vertex="1">
          <mxGeometry x="-8370" y="-8900" width="250" height="180" as="geometry" />
        </mxCell>
        <mxCell id="6fhWIYDgG0x7a7dML8SJ-6" value="dialog 组件&#xa;" style="text;strokeColor=none;fillColor=none;spacingLeft=4;spacingRight=4;overflow=hidden;rotatable=0;points=[[0,0.5],[1,0.5]];portConstraint=eastwest;fontSize=12;" parent="6fhWIYDgG0x7a7dML8SJ-5" vertex="1">
          <mxGeometry y="26" width="250" height="34" as="geometry" />
        </mxCell>
        <mxCell id="6fhWIYDgG0x7a7dML8SJ-7" value="floatmenu 组件&#xa;" style="text;strokeColor=none;fillColor=none;spacingLeft=4;spacingRight=4;overflow=hidden;rotatable=0;points=[[0,0.5],[1,0.5]];portConstraint=eastwest;fontSize=12;" parent="6fhWIYDgG0x7a7dML8SJ-5" vertex="1">
          <mxGeometry y="60" width="250" height="30" as="geometry" />
        </mxCell>
        <mxCell id="6fhWIYDgG0x7a7dML8SJ-8" value="loading 组件&#xa;" style="text;strokeColor=none;fillColor=none;spacingLeft=4;spacingRight=4;overflow=hidden;rotatable=0;points=[[0,0.5],[1,0.5]];portConstraint=eastwest;fontSize=12;" parent="6fhWIYDgG0x7a7dML8SJ-5" vertex="1">
          <mxGeometry y="90" width="250" height="30" as="geometry" />
        </mxCell>
        <mxCell id="sneEUQHFN991EdI4Ddz8-56" value="topbar 组件&#xa;" style="text;strokeColor=none;fillColor=none;spacingLeft=4;spacingRight=4;overflow=hidden;rotatable=0;points=[[0,0.5],[1,0.5]];portConstraint=eastwest;fontSize=12;" vertex="1" parent="6fhWIYDgG0x7a7dML8SJ-5">
          <mxGeometry y="120" width="250" height="30" as="geometry" />
        </mxCell>
        <mxCell id="sneEUQHFN991EdI4Ddz8-57" value="forms 表单组件" style="text;strokeColor=none;fillColor=none;spacingLeft=4;spacingRight=4;overflow=hidden;rotatable=0;points=[[0,0.5],[1,0.5]];portConstraint=eastwest;fontSize=12;" vertex="1" parent="6fhWIYDgG0x7a7dML8SJ-5">
          <mxGeometry y="150" width="250" height="30" as="geometry" />
        </mxCell>
        <mxCell id="6fhWIYDgG0x7a7dML8SJ-9" value="dialog.vue" style="swimlane;fontStyle=0;childLayout=stackLayout;horizontal=1;startSize=26;horizontalStack=0;resizeParent=1;resizeParentMax=0;resizeLast=0;collapsible=1;marginBottom=0;align=center;fontSize=14;" parent="1" vertex="1">
          <mxGeometry x="-7930" y="-9110" width="355" height="110" as="geometry" />
        </mxCell>
        <mxCell id="6fhWIYDgG0x7a7dML8SJ-10" value="onClickConfirm()  // 点击确认按钮后触发的函数" style="text;strokeColor=none;fillColor=none;spacingLeft=4;spacingRight=4;overflow=hidden;rotatable=0;points=[[0,0.5],[1,0.5]];portConstraint=eastwest;fontSize=12;" parent="6fhWIYDgG0x7a7dML8SJ-9" vertex="1">
          <mxGeometry y="26" width="355" height="44" as="geometry" />
        </mxCell>
        <mxCell id="6fhWIYDgG0x7a7dML8SJ-25" value="onClickCancel()  // 点击取消按钮后触发的函数" style="text;strokeColor=none;fillColor=none;spacingLeft=4;spacingRight=4;overflow=hidden;rotatable=0;points=[[0,0.5],[1,0.5]];portConstraint=eastwest;fontSize=12;" parent="6fhWIYDgG0x7a7dML8SJ-9" vertex="1">
          <mxGeometry y="70" width="355" height="40" as="geometry" />
        </mxCell>
        <mxCell id="6fhWIYDgG0x7a7dML8SJ-13" value="floatmenu.vue" style="swimlane;fontStyle=0;childLayout=stackLayout;horizontal=1;startSize=26;horizontalStack=0;resizeParent=1;resizeParentMax=0;resizeLast=0;collapsible=1;marginBottom=0;align=center;fontSize=14;" parent="1" vertex="1">
          <mxGeometry x="-7925" y="-8968" width="350" height="260" as="geometry" />
        </mxCell>
        <mxCell id="6fhWIYDgG0x7a7dML8SJ-14" value="toggle(item)" style="text;strokeColor=none;fillColor=none;spacingLeft=4;spacingRight=4;overflow=hidden;rotatable=0;points=[[0,0.5],[1,0.5]];portConstraint=eastwest;fontSize=12;" parent="6fhWIYDgG0x7a7dML8SJ-13" vertex="1">
          <mxGeometry y="26" width="350" height="30" as="geometry" />
        </mxCell>
        <mxCell id="6fhWIYDgG0x7a7dML8SJ-15" value="hideAllToggle()" style="text;strokeColor=none;fillColor=none;spacingLeft=4;spacingRight=4;overflow=hidden;rotatable=0;points=[[0,0.5],[1,0.5]];portConstraint=eastwest;fontSize=12;" parent="6fhWIYDgG0x7a7dML8SJ-13" vertex="1">
          <mxGeometry y="56" width="350" height="30" as="geometry" />
        </mxCell>
        <mxCell id="6fhWIYDgG0x7a7dML8SJ-17" value="hideFloatMenu($evt)" style="text;strokeColor=none;fillColor=none;spacingLeft=4;spacingRight=4;overflow=hidden;rotatable=0;points=[[0,0.5],[1,0.5]];portConstraint=eastwest;fontSize=12;" parent="6fhWIYDgG0x7a7dML8SJ-13" vertex="1">
          <mxGeometry y="86" width="350" height="30" as="geometry" />
        </mxCell>
        <mxCell id="6fhWIYDgG0x7a7dML8SJ-16" value="overItem($evt)" style="text;strokeColor=none;fillColor=none;spacingLeft=4;spacingRight=4;overflow=hidden;rotatable=0;points=[[0,0.5],[1,0.5]];portConstraint=eastwest;fontSize=12;" parent="6fhWIYDgG0x7a7dML8SJ-13" vertex="1">
          <mxGeometry y="116" width="350" height="30" as="geometry" />
        </mxCell>
        <mxCell id="6fhWIYDgG0x7a7dML8SJ-18" value="leaveItem($evt)" style="text;strokeColor=none;fillColor=none;spacingLeft=4;spacingRight=4;overflow=hidden;rotatable=0;points=[[0,0.5],[1,0.5]];portConstraint=eastwest;fontSize=12;" parent="6fhWIYDgG0x7a7dML8SJ-13" vertex="1">
          <mxGeometry y="146" width="350" height="30" as="geometry" />
        </mxCell>
        <mxCell id="6fhWIYDgG0x7a7dML8SJ-19" value="gotoPage(path)  // 跳转到哪一个页面" style="text;strokeColor=none;fillColor=none;spacingLeft=4;spacingRight=4;overflow=hidden;rotatable=0;points=[[0,0.5],[1,0.5]];portConstraint=eastwest;fontSize=12;" parent="6fhWIYDgG0x7a7dML8SJ-13" vertex="1">
          <mxGeometry y="176" width="350" height="30" as="geometry" />
        </mxCell>
        <mxCell id="6fhWIYDgG0x7a7dML8SJ-20" value="getMenuLlist()  // //根据配置文件获取菜单" style="text;strokeColor=none;fillColor=none;spacingLeft=4;spacingRight=4;overflow=hidden;rotatable=0;points=[[0,0.5],[1,0.5]];portConstraint=eastwest;fontSize=12;" parent="6fhWIYDgG0x7a7dML8SJ-13" vertex="1">
          <mxGeometry y="206" width="350" height="54" as="geometry" />
        </mxCell>
        <mxCell id="6fhWIYDgG0x7a7dML8SJ-21" value="loading.vue" style="swimlane;fontStyle=0;childLayout=stackLayout;horizontal=1;startSize=26;horizontalStack=0;resizeParent=1;resizeParentMax=0;resizeLast=0;collapsible=1;marginBottom=0;align=center;fontSize=14;" parent="1" vertex="1">
          <mxGeometry x="-7925" y="-8473" width="350" height="56" as="geometry" />
        </mxCell>
        <mxCell id="6fhWIYDgG0x7a7dML8SJ-22" value="该组件负责加载时的过渡页面，表示正在加载中" style="text;strokeColor=none;fillColor=none;spacingLeft=4;spacingRight=4;overflow=hidden;rotatable=0;points=[[0,0.5],[1,0.5]];portConstraint=eastwest;fontSize=12;" parent="6fhWIYDgG0x7a7dML8SJ-21" vertex="1">
          <mxGeometry y="26" width="350" height="30" as="geometry" />
        </mxCell>
        <mxCell id="6fhWIYDgG0x7a7dML8SJ-39" value="topbar.vue" style="swimlane;fontStyle=0;childLayout=stackLayout;horizontal=1;startSize=26;horizontalStack=0;resizeParent=1;resizeParentMax=0;resizeLast=0;collapsible=1;marginBottom=0;align=center;fontSize=14;" parent="1" vertex="1">
          <mxGeometry x="-7925" y="-8683" width="350" height="180" as="geometry" />
        </mxCell>
        <mxCell id="6fhWIYDgG0x7a7dML8SJ-40" value="该组件为微信端顶部区域，含有回退，显示 floatmenu 功能" style="text;strokeColor=none;fillColor=none;spacingLeft=4;spacingRight=4;overflow=hidden;rotatable=0;points=[[0,0.5],[1,0.5]];portConstraint=eastwest;fontSize=12;" parent="6fhWIYDgG0x7a7dML8SJ-39" vertex="1">
          <mxGeometry y="26" width="350" height="34" as="geometry" />
        </mxCell>
        <mxCell id="6fhWIYDgG0x7a7dML8SJ-41" value="backBtnDown($evt)  // 回退按钮函数" style="text;strokeColor=none;fillColor=none;spacingLeft=4;spacingRight=4;overflow=hidden;rotatable=0;points=[[0,0.5],[1,0.5]];portConstraint=eastwest;fontSize=12;" parent="6fhWIYDgG0x7a7dML8SJ-39" vertex="1">
          <mxGeometry y="60" width="350" height="30" as="geometry" />
        </mxCell>
        <mxCell id="6fhWIYDgG0x7a7dML8SJ-42" value="backBtnUp($evt)" style="text;strokeColor=none;fillColor=none;spacingLeft=4;spacingRight=4;overflow=hidden;rotatable=0;points=[[0,0.5],[1,0.5]];portConstraint=eastwest;fontSize=12;" parent="6fhWIYDgG0x7a7dML8SJ-39" vertex="1">
          <mxGeometry y="90" width="350" height="30" as="geometry" />
        </mxCell>
        <mxCell id="6fhWIYDgG0x7a7dML8SJ-43" value="menuBtnDown($evt)  // 菜单按钮" style="text;strokeColor=none;fillColor=none;spacingLeft=4;spacingRight=4;overflow=hidden;rotatable=0;points=[[0,0.5],[1,0.5]];portConstraint=eastwest;fontSize=12;" parent="6fhWIYDgG0x7a7dML8SJ-39" vertex="1">
          <mxGeometry y="120" width="350" height="30" as="geometry" />
        </mxCell>
        <mxCell id="6fhWIYDgG0x7a7dML8SJ-44" value="menuBtnUp($evt)" style="text;strokeColor=none;fillColor=none;spacingLeft=4;spacingRight=4;overflow=hidden;rotatable=0;points=[[0,0.5],[1,0.5]];portConstraint=eastwest;fontSize=12;" parent="6fhWIYDgG0x7a7dML8SJ-39" vertex="1">
          <mxGeometry y="150" width="350" height="30" as="geometry" />
        </mxCell>
        <mxCell id="6fhWIYDgG0x7a7dML8SJ-64" value="worklist.vue" style="swimlane;fontStyle=0;childLayout=stackLayout;horizontal=1;startSize=26;horizontalStack=0;resizeParent=1;resizeParentMax=0;resizeLast=0;collapsible=1;marginBottom=0;align=center;fontSize=14;" parent="1" vertex="1">
          <mxGeometry x="-7560" y="-7530" width="350" height="210" as="geometry" />
        </mxCell>
        <mxCell id="6fhWIYDgG0x7a7dML8SJ-65" value="展示工单列表" style="text;strokeColor=none;fillColor=none;spacingLeft=4;spacingRight=4;overflow=hidden;rotatable=0;points=[[0,0.5],[1,0.5]];portConstraint=eastwest;fontSize=12;" parent="6fhWIYDgG0x7a7dML8SJ-64" vertex="1">
          <mxGeometry y="26" width="350" height="30" as="geometry" />
        </mxCell>
        <mxCell id="6fhWIYDgG0x7a7dML8SJ-66" value="getStatusName(type,code)  // 获得状态" style="text;strokeColor=none;fillColor=none;spacingLeft=4;spacingRight=4;overflow=hidden;rotatable=0;points=[[0,0.5],[1,0.5]];portConstraint=eastwest;fontSize=12;" parent="6fhWIYDgG0x7a7dML8SJ-64" vertex="1">
          <mxGeometry y="56" width="350" height="34" as="geometry" />
        </mxCell>
        <mxCell id="6fhWIYDgG0x7a7dML8SJ-67" value="searchList(isAdd)  // 查找工单" style="text;strokeColor=none;fillColor=none;spacingLeft=4;spacingRight=4;overflow=hidden;rotatable=0;points=[[0,0.5],[1,0.5]];portConstraint=eastwest;fontSize=12;" parent="6fhWIYDgG0x7a7dML8SJ-64" vertex="1">
          <mxGeometry y="90" width="350" height="30" as="geometry" />
        </mxCell>
        <mxCell id="6fhWIYDgG0x7a7dML8SJ-68" value="addMoreDown(evt)  // 加载更多数据" style="text;strokeColor=none;fillColor=none;spacingLeft=4;spacingRight=4;overflow=hidden;rotatable=0;points=[[0,0.5],[1,0.5]];portConstraint=eastwest;fontSize=12;" parent="6fhWIYDgG0x7a7dML8SJ-64" vertex="1">
          <mxGeometry y="120" width="350" height="30" as="geometry" />
        </mxCell>
        <mxCell id="6fhWIYDgG0x7a7dML8SJ-69" value="gotoDetail(id)  // 进入详情页" style="text;strokeColor=none;fillColor=none;spacingLeft=4;spacingRight=4;overflow=hidden;rotatable=0;points=[[0,0.5],[1,0.5]];portConstraint=eastwest;fontSize=12;" parent="6fhWIYDgG0x7a7dML8SJ-64" vertex="1">
          <mxGeometry y="150" width="350" height="30" as="geometry" />
        </mxCell>
        <mxCell id="6fhWIYDgG0x7a7dML8SJ-70" value="searchDown(event,pagenow)  // 按下搜索按钮i后触发的操作" style="text;strokeColor=none;fillColor=none;spacingLeft=4;spacingRight=4;overflow=hidden;rotatable=0;points=[[0,0.5],[1,0.5]];portConstraint=eastwest;fontSize=12;" parent="6fhWIYDgG0x7a7dML8SJ-64" vertex="1">
          <mxGeometry y="180" width="350" height="30" as="geometry" />
        </mxCell>
        <mxCell id="6fhWIYDgG0x7a7dML8SJ-71" value="workdetail.vue" style="swimlane;fontStyle=0;childLayout=stackLayout;horizontal=1;startSize=26;horizontalStack=0;resizeParent=1;resizeParentMax=0;resizeLast=0;collapsible=1;marginBottom=0;align=center;fontSize=14;" parent="1" vertex="1">
          <mxGeometry x="-7560" y="-7256" width="370" height="450" as="geometry" />
        </mxCell>
        <mxCell id="6fhWIYDgG0x7a7dML8SJ-72" value="该组件为工单详情，包括 基本信息、异常信息、操作记录" style="text;strokeColor=none;fillColor=none;spacingLeft=4;spacingRight=4;overflow=hidden;rotatable=0;points=[[0,0.5],[1,0.5]];portConstraint=eastwest;fontSize=12;" parent="6fhWIYDgG0x7a7dML8SJ-71" vertex="1">
          <mxGeometry y="26" width="370" height="34" as="geometry" />
        </mxCell>
        <mxCell id="6fhWIYDgG0x7a7dML8SJ-73" value="requestDetail()  // 请求具体的参数" style="text;strokeColor=none;fillColor=none;spacingLeft=4;spacingRight=4;overflow=hidden;rotatable=0;points=[[0,0.5],[1,0.5]];portConstraint=eastwest;fontSize=12;" parent="6fhWIYDgG0x7a7dML8SJ-71" vertex="1">
          <mxGeometry y="60" width="370" height="30" as="geometry" />
        </mxCell>
        <mxCell id="6fhWIYDgG0x7a7dML8SJ-74" value="gotoActivity(iActivityId)  // 跳转到活动" style="text;strokeColor=none;fillColor=none;spacingLeft=4;spacingRight=4;overflow=hidden;rotatable=0;points=[[0,0.5],[1,0.5]];portConstraint=eastwest;fontSize=12;" parent="6fhWIYDgG0x7a7dML8SJ-71" vertex="1">
          <mxGeometry y="90" width="370" height="30" as="geometry" />
        </mxCell>
        <mxCell id="sneEUQHFN991EdI4Ddz8-1" value="gotoSerial(iSerialNum) // 跳转到流水号" style="text;strokeColor=none;fillColor=none;spacingLeft=4;spacingRight=4;overflow=hidden;rotatable=0;points=[[0,0.5],[1,0.5]];portConstraint=eastwest;fontSize=12;" vertex="1" parent="6fhWIYDgG0x7a7dML8SJ-71">
          <mxGeometry y="120" width="370" height="30" as="geometry" />
        </mxCell>
        <mxCell id="sneEUQHFN991EdI4Ddz8-2" value="doOperate(op)  // 处理操作" style="text;strokeColor=none;fillColor=none;spacingLeft=4;spacingRight=4;overflow=hidden;rotatable=0;points=[[0,0.5],[1,0.5]];portConstraint=eastwest;fontSize=12;" vertex="1" parent="6fhWIYDgG0x7a7dML8SJ-71">
          <mxGeometry y="150" width="370" height="30" as="geometry" />
        </mxCell>
        <mxCell id="sneEUQHFN991EdI4Ddz8-3" value="cancelOperate()  // 取消操作" style="text;strokeColor=none;fillColor=none;spacingLeft=4;spacingRight=4;overflow=hidden;rotatable=0;points=[[0,0.5],[1,0.5]];portConstraint=eastwest;fontSize=12;" vertex="1" parent="6fhWIYDgG0x7a7dML8SJ-71">
          <mxGeometry y="180" width="370" height="30" as="geometry" />
        </mxCell>
        <mxCell id="sneEUQHFN991EdI4Ddz8-4" value="confirmOperate()  // 确认操作" style="text;strokeColor=none;fillColor=none;spacingLeft=4;spacingRight=4;overflow=hidden;rotatable=0;points=[[0,0.5],[1,0.5]];portConstraint=eastwest;fontSize=12;" vertex="1" parent="6fhWIYDgG0x7a7dML8SJ-71">
          <mxGeometry y="210" width="370" height="30" as="geometry" />
        </mxCell>
        <mxCell id="sneEUQHFN991EdI4Ddz8-5" value="dealWorkOrder()  // 接单" style="text;strokeColor=none;fillColor=none;spacingLeft=4;spacingRight=4;overflow=hidden;rotatable=0;points=[[0,0.5],[1,0.5]];portConstraint=eastwest;fontSize=12;" vertex="1" parent="6fhWIYDgG0x7a7dML8SJ-71">
          <mxGeometry y="240" width="370" height="30" as="geometry" />
        </mxCell>
        <mxCell id="sneEUQHFN991EdI4Ddz8-6" value="transferWorkOrder()  // 转单" style="text;strokeColor=none;fillColor=none;spacingLeft=4;spacingRight=4;overflow=hidden;rotatable=0;points=[[0,0.5],[1,0.5]];portConstraint=eastwest;fontSize=12;" vertex="1" parent="6fhWIYDgG0x7a7dML8SJ-71">
          <mxGeometry y="270" width="370" height="30" as="geometry" />
        </mxCell>
        <mxCell id="sneEUQHFN991EdI4Ddz8-7" value="editWorkOrder()  // 阈值" style="text;strokeColor=none;fillColor=none;spacingLeft=4;spacingRight=4;overflow=hidden;rotatable=0;points=[[0,0.5],[1,0.5]];portConstraint=eastwest;fontSize=12;" vertex="1" parent="6fhWIYDgG0x7a7dML8SJ-71">
          <mxGeometry y="300" width="370" height="30" as="geometry" />
        </mxCell>
        <mxCell id="sneEUQHFN991EdI4Ddz8-8" value="notAlarm()  // 拒收告警" style="text;strokeColor=none;fillColor=none;spacingLeft=4;spacingRight=4;overflow=hidden;rotatable=0;points=[[0,0.5],[1,0.5]];portConstraint=eastwest;fontSize=12;" vertex="1" parent="6fhWIYDgG0x7a7dML8SJ-71">
          <mxGeometry y="330" width="370" height="30" as="geometry" />
        </mxCell>
        <mxCell id="sneEUQHFN991EdI4Ddz8-9" value="disnotice()  // 临时屏蔽" style="text;strokeColor=none;fillColor=none;spacingLeft=4;spacingRight=4;overflow=hidden;rotatable=0;points=[[0,0.5],[1,0.5]];portConstraint=eastwest;fontSize=12;" vertex="1" parent="6fhWIYDgG0x7a7dML8SJ-71">
          <mxGeometry y="360" width="370" height="30" as="geometry" />
        </mxCell>
        <mxCell id="sneEUQHFN991EdI4Ddz8-10" value="disnoticeForever()  // 永久屏蔽" style="text;strokeColor=none;fillColor=none;spacingLeft=4;spacingRight=4;overflow=hidden;rotatable=0;points=[[0,0.5],[1,0.5]];portConstraint=eastwest;fontSize=12;" vertex="1" parent="6fhWIYDgG0x7a7dML8SJ-71">
          <mxGeometry y="390" width="370" height="30" as="geometry" />
        </mxCell>
        <mxCell id="sneEUQHFN991EdI4Ddz8-11" value="toActer()  // 告给开发" style="text;strokeColor=none;fillColor=none;spacingLeft=4;spacingRight=4;overflow=hidden;rotatable=0;points=[[0,0.5],[1,0.5]];portConstraint=eastwest;fontSize=12;" vertex="1" parent="6fhWIYDgG0x7a7dML8SJ-71">
          <mxGeometry y="420" width="370" height="30" as="geometry" />
        </mxCell>
        <mxCell id="sneEUQHFN991EdI4Ddz8-12" value="security 相关组件" style="swimlane;fontStyle=0;childLayout=stackLayout;horizontal=1;startSize=26;horizontalStack=0;resizeParent=1;resizeParentMax=0;resizeLast=0;collapsible=1;marginBottom=0;align=center;fontSize=14;" vertex="1" parent="1">
          <mxGeometry x="-7920" y="-7346" width="200" height="110" as="geometry" />
        </mxCell>
        <mxCell id="sneEUQHFN991EdI4Ddz8-13" value="worklist.vue 展示工单的列表" style="text;strokeColor=none;fillColor=none;spacingLeft=4;spacingRight=4;overflow=hidden;rotatable=0;points=[[0,0.5],[1,0.5]];portConstraint=eastwest;fontSize=12;" vertex="1" parent="sneEUQHFN991EdI4Ddz8-12">
          <mxGeometry y="26" width="200" height="30" as="geometry" />
        </mxCell>
        <mxCell id="sneEUQHFN991EdI4Ddz8-14" value="workdetail.vue 工单的具体信息" style="text;strokeColor=none;fillColor=none;spacingLeft=4;spacingRight=4;overflow=hidden;rotatable=0;points=[[0,0.5],[1,0.5]];portConstraint=eastwest;fontSize=12;" vertex="1" parent="sneEUQHFN991EdI4Ddz8-12">
          <mxGeometry y="56" width="200" height="54" as="geometry" />
        </mxCell>
        <mxCell id="sneEUQHFN991EdI4Ddz8-17" value="" style="endArrow=classic;html=1;exitX=1;exitY=0.5;exitDx=0;exitDy=0;entryX=0;entryY=0;entryDx=0;entryDy=0;" edge="1" parent="1" source="sneEUQHFN991EdI4Ddz8-13" target="6fhWIYDgG0x7a7dML8SJ-64">
          <mxGeometry width="50" height="50" relative="1" as="geometry">
            <mxPoint x="-7590" y="-7290" as="sourcePoint" />
            <mxPoint x="-7540" y="-7340" as="targetPoint" />
          </mxGeometry>
        </mxCell>
        <mxCell id="sneEUQHFN991EdI4Ddz8-18" value="" style="endArrow=classic;html=1;exitX=1;exitY=0.5;exitDx=0;exitDy=0;entryX=0.002;entryY=0.035;entryDx=0;entryDy=0;entryPerimeter=0;" edge="1" parent="1" source="sneEUQHFN991EdI4Ddz8-14" target="6fhWIYDgG0x7a7dML8SJ-71">
          <mxGeometry width="50" height="50" relative="1" as="geometry">
            <mxPoint x="-7700" y="-7306" as="sourcePoint" />
            <mxPoint x="-7650" y="-7356" as="targetPoint" />
          </mxGeometry>
        </mxCell>
        <mxCell id="sneEUQHFN991EdI4Ddz8-19" value="activity 相关组件" style="swimlane;fontStyle=0;childLayout=stackLayout;horizontal=1;startSize=26;horizontalStack=0;resizeParent=1;resizeParentMax=0;resizeLast=0;collapsible=1;marginBottom=0;align=center;fontSize=14;" vertex="1" parent="1">
          <mxGeometry x="-7922.5" y="-6942" width="202.5" height="146" as="geometry" />
        </mxCell>
        <mxCell id="sneEUQHFN991EdI4Ddz8-20" value="check.vue" style="text;strokeColor=none;fillColor=none;spacingLeft=4;spacingRight=4;overflow=hidden;rotatable=0;points=[[0,0.5],[1,0.5]];portConstraint=eastwest;fontSize=12;" vertex="1" parent="sneEUQHFN991EdI4Ddz8-19">
          <mxGeometry y="26" width="202.5" height="30" as="geometry" />
        </mxCell>
        <mxCell id="sneEUQHFN991EdI4Ddz8-21" value="detail.vue" style="text;strokeColor=none;fillColor=none;spacingLeft=4;spacingRight=4;overflow=hidden;rotatable=0;points=[[0,0.5],[1,0.5]];portConstraint=eastwest;fontSize=12;" vertex="1" parent="sneEUQHFN991EdI4Ddz8-19">
          <mxGeometry y="56" width="202.5" height="30" as="geometry" />
        </mxCell>
        <mxCell id="sneEUQHFN991EdI4Ddz8-22" value="info.vue" style="text;strokeColor=none;fillColor=none;spacingLeft=4;spacingRight=4;overflow=hidden;rotatable=0;points=[[0,0.5],[1,0.5]];portConstraint=eastwest;fontSize=12;" vertex="1" parent="sneEUQHFN991EdI4Ddz8-19">
          <mxGeometry y="86" width="202.5" height="30" as="geometry" />
        </mxCell>
        <mxCell id="sneEUQHFN991EdI4Ddz8-23" value="list.vue" style="text;strokeColor=none;fillColor=none;spacingLeft=4;spacingRight=4;overflow=hidden;rotatable=0;points=[[0,0.5],[1,0.5]];portConstraint=eastwest;fontSize=12;" vertex="1" parent="sneEUQHFN991EdI4Ddz8-19">
          <mxGeometry y="116" width="202.5" height="30" as="geometry" />
        </mxCell>
        <mxCell id="sneEUQHFN991EdI4Ddz8-24" value="lottery 相关组件" style="swimlane;fontStyle=0;childLayout=stackLayout;horizontal=1;startSize=26;horizontalStack=0;resizeParent=1;resizeParentMax=0;resizeLast=0;collapsible=1;marginBottom=0;align=center;fontSize=14;" vertex="1" parent="1">
          <mxGeometry x="-7922.5" y="-6590" width="200" height="60" as="geometry" />
        </mxCell>
        <mxCell id="sneEUQHFN991EdI4Ddz8-25" value="result.vue" style="text;strokeColor=none;fillColor=none;spacingLeft=4;spacingRight=4;overflow=hidden;rotatable=0;points=[[0,0.5],[1,0.5]];portConstraint=eastwest;fontSize=12;" vertex="1" parent="sneEUQHFN991EdI4Ddz8-24">
          <mxGeometry y="26" width="200" height="34" as="geometry" />
        </mxCell>
        <mxCell id="sneEUQHFN991EdI4Ddz8-28" value="result.vue" style="swimlane;fontStyle=0;childLayout=stackLayout;horizontal=1;startSize=26;horizontalStack=0;resizeParent=1;resizeParentMax=0;resizeLast=0;collapsible=1;marginBottom=0;align=center;fontSize=14;" vertex="1" parent="1">
          <mxGeometry x="-7545" y="-6566" width="300" height="200" as="geometry" />
        </mxCell>
        <mxCell id="sneEUQHFN991EdI4Ddz8-29" value="该组件分为两个部分&#xa;部分大奖公布结果&#xa;查询我的中奖结果" style="text;strokeColor=none;fillColor=none;spacingLeft=4;spacingRight=4;overflow=hidden;rotatable=0;points=[[0,0.5],[1,0.5]];portConstraint=eastwest;fontSize=12;" vertex="1" parent="sneEUQHFN991EdI4Ddz8-28">
          <mxGeometry y="26" width="300" height="54" as="geometry" />
        </mxCell>
        <mxCell id="sneEUQHFN991EdI4Ddz8-30" value="getInitResult()  // 获取 topData" style="text;strokeColor=none;fillColor=none;spacingLeft=4;spacingRight=4;overflow=hidden;rotatable=0;points=[[0,0.5],[1,0.5]];portConstraint=eastwest;fontSize=12;" vertex="1" parent="sneEUQHFN991EdI4Ddz8-28">
          <mxGeometry y="80" width="300" height="30" as="geometry" />
        </mxCell>
        <mxCell id="sneEUQHFN991EdI4Ddz8-31" value="doGetMyResult()  // 获取中奖信息" style="text;strokeColor=none;fillColor=none;spacingLeft=4;spacingRight=4;overflow=hidden;rotatable=0;points=[[0,0.5],[1,0.5]];portConstraint=eastwest;fontSize=12;" vertex="1" parent="sneEUQHFN991EdI4Ddz8-28">
          <mxGeometry y="110" width="300" height="30" as="geometry" />
        </mxCell>
        <mxCell id="sneEUQHFN991EdI4Ddz8-33" value="getMyResult(vRtxName)  // 获取中奖信息" style="text;strokeColor=none;fillColor=none;spacingLeft=4;spacingRight=4;overflow=hidden;rotatable=0;points=[[0,0.5],[1,0.5]];portConstraint=eastwest;fontSize=12;" vertex="1" parent="sneEUQHFN991EdI4Ddz8-28">
          <mxGeometry y="140" width="300" height="30" as="geometry" />
        </mxCell>
        <mxCell id="sneEUQHFN991EdI4Ddz8-34" value="requestResult(vRtxName,callback)  // 接口请求" style="text;spacingLeft=4;spacingRight=4;overflow=hidden;rotatable=0;points=[[0,0.5],[1,0.5]];portConstraint=eastwest;fontSize=12;fontStyle=0" vertex="1" parent="sneEUQHFN991EdI4Ddz8-28">
          <mxGeometry y="170" width="300" height="30" as="geometry" />
        </mxCell>
        <mxCell id="sneEUQHFN991EdI4Ddz8-32" value="" style="endArrow=classic;html=1;exitX=1;exitY=0.5;exitDx=0;exitDy=0;entryX=-0.003;entryY=0.124;entryDx=0;entryDy=0;entryPerimeter=0;" edge="1" parent="1" source="sneEUQHFN991EdI4Ddz8-25" target="sneEUQHFN991EdI4Ddz8-28">
          <mxGeometry width="50" height="50" relative="1" as="geometry">
            <mxPoint x="-7480" y="-6276" as="sourcePoint" />
            <mxPoint x="-7430" y="-6326" as="targetPoint" />
          </mxGeometry>
        </mxCell>
        <mxCell id="sneEUQHFN991EdI4Ddz8-35" value="resource 相关组件" style="swimlane;fontStyle=0;childLayout=stackLayout;horizontal=1;startSize=26;horizontalStack=0;resizeParent=1;resizeParentMax=0;resizeLast=0;collapsible=1;marginBottom=0;align=center;fontSize=14;" vertex="1" parent="1">
          <mxGeometry x="-7922.5" y="-6310" width="200" height="170" as="geometry" />
        </mxCell>
        <mxCell id="sneEUQHFN991EdI4Ddz8-36" value="actflowpackage.vue" style="text;strokeColor=none;fillColor=none;spacingLeft=4;spacingRight=4;overflow=hidden;rotatable=0;points=[[0,0.5],[1,0.5]];portConstraint=eastwest;fontSize=12;" vertex="1" parent="sneEUQHFN991EdI4Ddz8-35">
          <mxGeometry y="26" width="200" height="30" as="geometry" />
        </mxCell>
        <mxCell id="sneEUQHFN991EdI4Ddz8-37" value="check.vue" style="text;strokeColor=none;fillColor=none;spacingLeft=4;spacingRight=4;overflow=hidden;rotatable=0;points=[[0,0.5],[1,0.5]];portConstraint=eastwest;fontSize=12;" vertex="1" parent="sneEUQHFN991EdI4Ddz8-35">
          <mxGeometry y="56" width="200" height="30" as="geometry" />
        </mxCell>
        <mxCell id="sneEUQHFN991EdI4Ddz8-38" value="detail.vue" style="text;strokeColor=none;fillColor=none;spacingLeft=4;spacingRight=4;overflow=hidden;rotatable=0;points=[[0,0.5],[1,0.5]];portConstraint=eastwest;fontSize=12;" vertex="1" parent="sneEUQHFN991EdI4Ddz8-35">
          <mxGeometry y="86" width="200" height="30" as="geometry" />
        </mxCell>
        <mxCell id="sneEUQHFN991EdI4Ddz8-39" value="list.vue" style="text;strokeColor=none;fillColor=none;spacingLeft=4;spacingRight=4;overflow=hidden;rotatable=0;points=[[0,0.5],[1,0.5]];portConstraint=eastwest;fontSize=12;" vertex="1" parent="sneEUQHFN991EdI4Ddz8-35">
          <mxGeometry y="116" width="200" height="54" as="geometry" />
        </mxCell>
        <mxCell id="sneEUQHFN991EdI4Ddz8-40" value="404.vue" style="swimlane;fontStyle=0;childLayout=stackLayout;horizontal=1;startSize=26;horizontalStack=0;resizeParent=1;resizeParentMax=0;resizeLast=0;collapsible=1;marginBottom=0;align=center;fontSize=14;" vertex="1" parent="1">
          <mxGeometry x="-7922.5" y="-6016" width="202.5" height="56" as="geometry" />
        </mxCell>
        <mxCell id="sneEUQHFN991EdI4Ddz8-41" value="该组件表示 404 页面" style="text;strokeColor=none;fillColor=none;spacingLeft=4;spacingRight=4;overflow=hidden;rotatable=0;points=[[0,0.5],[1,0.5]];portConstraint=eastwest;fontSize=12;" vertex="1" parent="sneEUQHFN991EdI4Ddz8-40">
          <mxGeometry y="26" width="202.5" height="30" as="geometry" />
        </mxCell>
        <mxCell id="sneEUQHFN991EdI4Ddz8-44" value="pages 组件" style="swimlane;fontStyle=0;childLayout=stackLayout;horizontal=1;startSize=26;horizontalStack=0;resizeParent=1;resizeParentMax=0;resizeLast=0;collapsible=1;marginBottom=0;align=center;fontSize=14;" vertex="1" parent="1">
          <mxGeometry x="-8270" y="-6780" width="160" height="176" as="geometry" />
        </mxCell>
        <mxCell id="sneEUQHFN991EdI4Ddz8-45" value="security 相关组件" style="text;strokeColor=none;fillColor=none;spacingLeft=4;spacingRight=4;overflow=hidden;rotatable=0;points=[[0,0.5],[1,0.5]];portConstraint=eastwest;fontSize=12;" vertex="1" parent="sneEUQHFN991EdI4Ddz8-44">
          <mxGeometry y="26" width="160" height="30" as="geometry" />
        </mxCell>
        <mxCell id="sneEUQHFN991EdI4Ddz8-46" value="activity 相关组件" style="text;strokeColor=none;fillColor=none;spacingLeft=4;spacingRight=4;overflow=hidden;rotatable=0;points=[[0,0.5],[1,0.5]];portConstraint=eastwest;fontSize=12;" vertex="1" parent="sneEUQHFN991EdI4Ddz8-44">
          <mxGeometry y="56" width="160" height="30" as="geometry" />
        </mxCell>
        <mxCell id="sneEUQHFN991EdI4Ddz8-47" value="lottery 相关组件" style="text;strokeColor=none;fillColor=none;spacingLeft=4;spacingRight=4;overflow=hidden;rotatable=0;points=[[0,0.5],[1,0.5]];portConstraint=eastwest;fontSize=12;" vertex="1" parent="sneEUQHFN991EdI4Ddz8-44">
          <mxGeometry y="86" width="160" height="30" as="geometry" />
        </mxCell>
        <mxCell id="sneEUQHFN991EdI4Ddz8-52" value="resource 相关组件" style="text;strokeColor=none;fillColor=none;spacingLeft=4;spacingRight=4;overflow=hidden;rotatable=0;points=[[0,0.5],[1,0.5]];portConstraint=eastwest;fontSize=12;" vertex="1" parent="sneEUQHFN991EdI4Ddz8-44">
          <mxGeometry y="116" width="160" height="30" as="geometry" />
        </mxCell>
        <mxCell id="sneEUQHFN991EdI4Ddz8-54" value="404.vue" style="text;strokeColor=none;fillColor=none;spacingLeft=4;spacingRight=4;overflow=hidden;rotatable=0;points=[[0,0.5],[1,0.5]];portConstraint=eastwest;fontSize=12;" vertex="1" parent="sneEUQHFN991EdI4Ddz8-44">
          <mxGeometry y="146" width="160" height="30" as="geometry" />
        </mxCell>
        <mxCell id="sneEUQHFN991EdI4Ddz8-49" value="" style="endArrow=classic;html=1;exitX=1;exitY=0.5;exitDx=0;exitDy=0;entryX=-0.007;entryY=0.098;entryDx=0;entryDy=0;entryPerimeter=0;" edge="1" parent="1" source="sneEUQHFN991EdI4Ddz8-45" target="sneEUQHFN991EdI4Ddz8-12">
          <mxGeometry width="50" height="50" relative="1" as="geometry">
            <mxPoint x="-8040" y="-6650" as="sourcePoint" />
            <mxPoint x="-7990" y="-6700" as="targetPoint" />
          </mxGeometry>
        </mxCell>
        <mxCell id="sneEUQHFN991EdI4Ddz8-50" value="" style="endArrow=classic;html=1;exitX=1;exitY=0.5;exitDx=0;exitDy=0;entryX=0.024;entryY=0.166;entryDx=0;entryDy=0;entryPerimeter=0;" edge="1" parent="1" source="sneEUQHFN991EdI4Ddz8-46" target="sneEUQHFN991EdI4Ddz8-19">
          <mxGeometry width="50" height="50" relative="1" as="geometry">
            <mxPoint x="-8110" y="-6570" as="sourcePoint" />
            <mxPoint x="-8060" y="-6620" as="targetPoint" />
          </mxGeometry>
        </mxCell>
        <mxCell id="sneEUQHFN991EdI4Ddz8-51" value="" style="endArrow=classic;html=1;exitX=1;exitY=0.5;exitDx=0;exitDy=0;entryX=0;entryY=0.25;entryDx=0;entryDy=0;" edge="1" parent="1" source="sneEUQHFN991EdI4Ddz8-47" target="sneEUQHFN991EdI4Ddz8-24">
          <mxGeometry width="50" height="50" relative="1" as="geometry">
            <mxPoint x="-8050" y="-6440" as="sourcePoint" />
            <mxPoint x="-8000" y="-6490" as="targetPoint" />
          </mxGeometry>
        </mxCell>
        <mxCell id="sneEUQHFN991EdI4Ddz8-53" value="" style="endArrow=classic;html=1;exitX=1;exitY=0.5;exitDx=0;exitDy=0;entryX=-0.004;entryY=0.115;entryDx=0;entryDy=0;entryPerimeter=0;" edge="1" parent="1" source="sneEUQHFN991EdI4Ddz8-52" target="sneEUQHFN991EdI4Ddz8-35">
          <mxGeometry width="50" height="50" relative="1" as="geometry">
            <mxPoint x="-8020" y="-6300" as="sourcePoint" />
            <mxPoint x="-7970" y="-6350" as="targetPoint" />
          </mxGeometry>
        </mxCell>
        <mxCell id="sneEUQHFN991EdI4Ddz8-55" value="" style="endArrow=classic;html=1;exitX=1;exitY=0.5;exitDx=0;exitDy=0;entryX=0;entryY=0.25;entryDx=0;entryDy=0;" edge="1" parent="1" source="sneEUQHFN991EdI4Ddz8-54" target="sneEUQHFN991EdI4Ddz8-40">
          <mxGeometry width="50" height="50" relative="1" as="geometry">
            <mxPoint x="-8280" y="-6410" as="sourcePoint" />
            <mxPoint x="-7820" y="-5916" as="targetPoint" />
          </mxGeometry>
        </mxCell>
        <mxCell id="sneEUQHFN991EdI4Ddz8-58" value="" style="endArrow=classic;html=1;exitX=1;exitY=0.5;exitDx=0;exitDy=0;entryX=-0.005;entryY=0.079;entryDx=0;entryDy=0;entryPerimeter=0;" edge="1" parent="1" source="6fhWIYDgG0x7a7dML8SJ-6" target="6fhWIYDgG0x7a7dML8SJ-9">
          <mxGeometry width="50" height="50" relative="1" as="geometry">
            <mxPoint x="-8940" y="-8810" as="sourcePoint" />
            <mxPoint x="-8890" y="-8860" as="targetPoint" />
          </mxGeometry>
        </mxCell>
        <mxCell id="sneEUQHFN991EdI4Ddz8-59" value="" style="endArrow=classic;html=1;exitX=1;exitY=0.5;exitDx=0;exitDy=0;entryX=-0.012;entryY=0.041;entryDx=0;entryDy=0;entryPerimeter=0;" edge="1" parent="1" source="6fhWIYDgG0x7a7dML8SJ-7" target="6fhWIYDgG0x7a7dML8SJ-13">
          <mxGeometry width="50" height="50" relative="1" as="geometry">
            <mxPoint x="-8980" y="-8740" as="sourcePoint" />
            <mxPoint x="-8930" y="-8790" as="targetPoint" />
          </mxGeometry>
        </mxCell>
        <mxCell id="sneEUQHFN991EdI4Ddz8-60" value="" style="endArrow=classic;html=1;exitX=1;exitY=0.5;exitDx=0;exitDy=0;entryX=0;entryY=0;entryDx=0;entryDy=0;" edge="1" parent="1" source="sneEUQHFN991EdI4Ddz8-56" target="6fhWIYDgG0x7a7dML8SJ-39">
          <mxGeometry width="50" height="50" relative="1" as="geometry">
            <mxPoint x="-9060" y="-8670" as="sourcePoint" />
            <mxPoint x="-9010" y="-8720" as="targetPoint" />
          </mxGeometry>
        </mxCell>
        <mxCell id="sneEUQHFN991EdI4Ddz8-61" value="" style="endArrow=classic;html=1;exitX=1;exitY=0.5;exitDx=0;exitDy=0;entryX=0;entryY=0;entryDx=0;entryDy=0;" edge="1" parent="1" source="sneEUQHFN991EdI4Ddz8-57" target="6fhWIYDgG0x7a7dML8SJ-21">
          <mxGeometry width="50" height="50" relative="1" as="geometry">
            <mxPoint x="-8930" y="-8640" as="sourcePoint" />
            <mxPoint x="-8880" y="-8690" as="targetPoint" />
          </mxGeometry>
        </mxCell>
        <mxCell id="sneEUQHFN991EdI4Ddz8-62" value="" style="endArrow=classic;html=1;exitX=1;exitY=0.5;exitDx=0;exitDy=0;" edge="1" parent="1" source="sneEUQHFN991EdI4Ddz8-143">
          <mxGeometry width="50" height="50" relative="1" as="geometry">
            <mxPoint x="-8160" y="-8380" as="sourcePoint" />
            <mxPoint x="-8374" y="-8880" as="targetPoint" />
            <Array as="points">
              <mxPoint x="-8570" y="-8880" />
            </Array>
          </mxGeometry>
        </mxCell>
        <mxCell id="sneEUQHFN991EdI4Ddz8-63" value="" style="endArrow=classic;html=1;exitX=1;exitY=0.5;exitDx=0;exitDy=0;entryX=0;entryY=0;entryDx=0;entryDy=0;" edge="1" parent="1" source="sneEUQHFN991EdI4Ddz8-142" target="g50-K30Fox4ZiZ33WrxE-1">
          <mxGeometry width="50" height="50" relative="1" as="geometry">
            <mxPoint x="-9550" y="-9880" as="sourcePoint" />
            <mxPoint x="-9380" y="-8500" as="targetPoint" />
            <Array as="points">
              <mxPoint x="-9300" y="-8631" />
            </Array>
          </mxGeometry>
        </mxCell>
        <mxCell id="sneEUQHFN991EdI4Ddz8-64" value="" style="endArrow=classic;html=1;exitX=1;exitY=0.5;exitDx=0;exitDy=0;entryX=1;entryY=0;entryDx=0;entryDy=0;fontStyle=1" edge="1" parent="1" source="sneEUQHFN991EdI4Ddz8-147" target="g50-K30Fox4ZiZ33WrxE-5">
          <mxGeometry width="50" height="50" relative="1" as="geometry">
            <mxPoint x="-9450" y="-9260" as="sourcePoint" />
            <mxPoint x="-9400" y="-9310" as="targetPoint" />
          </mxGeometry>
        </mxCell>
        <mxCell id="sneEUQHFN991EdI4Ddz8-65" value="" style="endArrow=classic;html=1;exitX=0.685;exitY=1.092;exitDx=0;exitDy=0;entryX=0;entryY=0.25;entryDx=0;entryDy=0;exitPerimeter=0;" edge="1" parent="1" source="sneEUQHFN991EdI4Ddz8-149" target="6fhWIYDgG0x7a7dML8SJ-1">
          <mxGeometry width="50" height="50" relative="1" as="geometry">
            <mxPoint x="-9510" y="-9090" as="sourcePoint" />
            <mxPoint x="-9150" y="-7484" as="targetPoint" />
          </mxGeometry>
        </mxCell>
        <mxCell id="sneEUQHFN991EdI4Ddz8-66" value="" style="endArrow=classic;html=1;exitX=1.002;exitY=1.121;exitDx=0;exitDy=0;exitPerimeter=0;entryX=0.998;entryY=0.058;entryDx=0;entryDy=0;entryPerimeter=0;" edge="1" parent="1" source="g50-K30Fox4ZiZ33WrxE-9" target="g50-K30Fox4ZiZ33WrxE-10">
          <mxGeometry width="50" height="50" relative="1" as="geometry">
            <mxPoint x="-8815" y="-7930" as="sourcePoint" />
            <mxPoint x="-9240" y="-7980" as="targetPoint" />
          </mxGeometry>
        </mxCell>
        <mxCell id="sneEUQHFN991EdI4Ddz8-67" value="" style="endArrow=classic;html=1;exitX=1;exitY=0.5;exitDx=0;exitDy=0;entryX=-0.002;entryY=0.083;entryDx=0;entryDy=0;entryPerimeter=0;" edge="1" parent="1" source="g50-K30Fox4ZiZ33WrxE-11" target="6fhWIYDgG0x7a7dML8SJ-5">
          <mxGeometry width="50" height="50" relative="1" as="geometry">
            <mxPoint x="-8670" y="-8720" as="sourcePoint" />
            <mxPoint x="-8620" y="-8770" as="targetPoint" />
            <Array as="points">
              <mxPoint x="-8470" y="-7675" />
              <mxPoint x="-8470" y="-8885" />
            </Array>
          </mxGeometry>
        </mxCell>
        <mxCell id="sneEUQHFN991EdI4Ddz8-68" value="" style="endArrow=classic;html=1;exitX=1;exitY=0.5;exitDx=0;exitDy=0;entryX=0.5;entryY=0;entryDx=0;entryDy=0;" edge="1" parent="1" source="g50-K30Fox4ZiZ33WrxE-12" target="6fhWIYDgG0x7a7dML8SJ-1">
          <mxGeometry width="50" height="50" relative="1" as="geometry">
            <mxPoint x="-8740" y="-8150" as="sourcePoint" />
            <mxPoint x="-8690" y="-8200" as="targetPoint" />
            <Array as="points">
              <mxPoint x="-8560" y="-7360" />
              <mxPoint x="-8840" y="-7360" />
            </Array>
          </mxGeometry>
        </mxCell>
        <mxCell id="sneEUQHFN991EdI4Ddz8-69" value="" style="endArrow=classic;html=1;exitX=1;exitY=0.5;exitDx=0;exitDy=0;entryX=-0.019;entryY=0.091;entryDx=0;entryDy=0;entryPerimeter=0;" edge="1" parent="1" source="6fhWIYDgG0x7a7dML8SJ-4" target="sneEUQHFN991EdI4Ddz8-44">
          <mxGeometry width="50" height="50" relative="1" as="geometry">
            <mxPoint x="-8910" y="-8220" as="sourcePoint" />
            <mxPoint x="-8860" y="-8270" as="targetPoint" />
            <Array as="points">
              <mxPoint x="-8720" y="-6764" />
            </Array>
          </mxGeometry>
        </mxCell>
        <mxCell id="sneEUQHFN991EdI4Ddz8-70" value="store 状态管理" style="swimlane;fontStyle=0;childLayout=stackLayout;horizontal=1;startSize=26;horizontalStack=0;resizeParent=1;resizeParentMax=0;resizeLast=0;collapsible=1;marginBottom=0;align=center;fontSize=14;" vertex="1" parent="1">
          <mxGeometry x="-7350" y="-8560" width="160" height="236" as="geometry" />
        </mxCell>
        <mxCell id="sneEUQHFN991EdI4Ddz8-71" value="pages 相关组件" style="text;strokeColor=none;fillColor=none;spacingLeft=4;spacingRight=4;overflow=hidden;rotatable=0;points=[[0,0.5],[1,0.5]];portConstraint=eastwest;fontSize=12;" vertex="1" parent="sneEUQHFN991EdI4Ddz8-70">
          <mxGeometry y="26" width="160" height="30" as="geometry" />
        </mxCell>
        <mxCell id="sneEUQHFN991EdI4Ddz8-72" value="utils 相关组件" style="text;strokeColor=none;fillColor=none;spacingLeft=4;spacingRight=4;overflow=hidden;rotatable=0;points=[[0,0.5],[1,0.5]];portConstraint=eastwest;fontSize=12;" vertex="1" parent="sneEUQHFN991EdI4Ddz8-70">
          <mxGeometry y="56" width="160" height="30" as="geometry" />
        </mxCell>
        <mxCell id="sneEUQHFN991EdI4Ddz8-73" value="dialog.js" style="text;strokeColor=none;fillColor=none;spacingLeft=4;spacingRight=4;overflow=hidden;rotatable=0;points=[[0,0.5],[1,0.5]];portConstraint=eastwest;fontSize=12;" vertex="1" parent="sneEUQHFN991EdI4Ddz8-70">
          <mxGeometry y="86" width="160" height="30" as="geometry" />
        </mxCell>
        <mxCell id="sneEUQHFN991EdI4Ddz8-74" value="floatmenu.js" style="text;strokeColor=none;fillColor=none;spacingLeft=4;spacingRight=4;overflow=hidden;rotatable=0;points=[[0,0.5],[1,0.5]];portConstraint=eastwest;fontSize=12;" vertex="1" parent="sneEUQHFN991EdI4Ddz8-70">
          <mxGeometry y="116" width="160" height="30" as="geometry" />
        </mxCell>
        <mxCell id="sneEUQHFN991EdI4Ddz8-75" value="index.js" style="text;strokeColor=none;fillColor=none;spacingLeft=4;spacingRight=4;overflow=hidden;rotatable=0;points=[[0,0.5],[1,0.5]];portConstraint=eastwest;fontSize=12;" vertex="1" parent="sneEUQHFN991EdI4Ddz8-70">
          <mxGeometry y="146" width="160" height="30" as="geometry" />
        </mxCell>
        <mxCell id="sneEUQHFN991EdI4Ddz8-76" value="loading.js" style="text;strokeColor=none;fillColor=none;spacingLeft=4;spacingRight=4;overflow=hidden;rotatable=0;points=[[0,0.5],[1,0.5]];portConstraint=eastwest;fontSize=12;" vertex="1" parent="sneEUQHFN991EdI4Ddz8-70">
          <mxGeometry y="176" width="160" height="30" as="geometry" />
        </mxCell>
        <mxCell id="sneEUQHFN991EdI4Ddz8-77" value="topbar.js" style="text;strokeColor=none;fillColor=none;spacingLeft=4;spacingRight=4;overflow=hidden;rotatable=0;points=[[0,0.5],[1,0.5]];portConstraint=eastwest;fontSize=12;" vertex="1" parent="sneEUQHFN991EdI4Ddz8-70">
          <mxGeometry y="206" width="160" height="30" as="geometry" />
        </mxCell>
        <mxCell id="sneEUQHFN991EdI4Ddz8-96" value="utils 相关" style="swimlane;fontStyle=0;childLayout=stackLayout;horizontal=1;startSize=26;horizontalStack=0;resizeParent=1;resizeParentMax=0;resizeLast=0;collapsible=1;marginBottom=0;align=center;fontSize=14;" vertex="1" parent="1">
          <mxGeometry x="-7360" y="-7986" width="160" height="116" as="geometry" />
        </mxCell>
        <mxCell id="sneEUQHFN991EdI4Ddz8-97" value="searchEngine" style="text;strokeColor=none;fillColor=none;spacingLeft=4;spacingRight=4;overflow=hidden;rotatable=0;points=[[0,0.5],[1,0.5]];portConstraint=eastwest;fontSize=12;" vertex="1" parent="sneEUQHFN991EdI4Ddz8-96">
          <mxGeometry y="26" width="160" height="30" as="geometry" />
        </mxCell>
        <mxCell id="sneEUQHFN991EdI4Ddz8-98" value="login.js" style="text;strokeColor=none;fillColor=none;spacingLeft=4;spacingRight=4;overflow=hidden;rotatable=0;points=[[0,0.5],[1,0.5]];portConstraint=eastwest;fontSize=12;" vertex="1" parent="sneEUQHFN991EdI4Ddz8-96">
          <mxGeometry y="56" width="160" height="30" as="geometry" />
        </mxCell>
        <mxCell id="sneEUQHFN991EdI4Ddz8-99" value="request.js" style="text;strokeColor=none;fillColor=none;spacingLeft=4;spacingRight=4;overflow=hidden;rotatable=0;points=[[0,0.5],[1,0.5]];portConstraint=eastwest;fontSize=12;" vertex="1" parent="sneEUQHFN991EdI4Ddz8-96">
          <mxGeometry y="86" width="160" height="30" as="geometry" />
        </mxCell>
        <mxCell id="sneEUQHFN991EdI4Ddz8-100" value="login.js" style="swimlane;fontStyle=0;childLayout=stackLayout;horizontal=1;startSize=26;horizontalStack=0;resizeParent=1;resizeParentMax=0;resizeLast=0;collapsible=1;marginBottom=0;align=center;fontSize=14;" vertex="1" parent="1">
          <mxGeometry x="-7040" y="-8060" width="370" height="116" as="geometry" />
        </mxCell>
        <mxCell id="sneEUQHFN991EdI4Ddz8-101" value="该组件是全局的登陆组件" style="text;strokeColor=none;fillColor=none;spacingLeft=4;spacingRight=4;overflow=hidden;rotatable=0;points=[[0,0.5],[1,0.5]];portConstraint=eastwest;fontSize=12;" vertex="1" parent="sneEUQHFN991EdI4Ddz8-100">
          <mxGeometry y="26" width="370" height="30" as="geometry" />
        </mxCell>
        <mxCell id="sneEUQHFN991EdI4Ddz8-102" value="syncUserInfo()  // 同步登陆用户信息" style="text;strokeColor=none;fillColor=none;spacingLeft=4;spacingRight=4;overflow=hidden;rotatable=0;points=[[0,0.5],[1,0.5]];portConstraint=eastwest;fontSize=12;" vertex="1" parent="sneEUQHFN991EdI4Ddz8-100">
          <mxGeometry y="56" width="370" height="30" as="geometry" />
        </mxCell>
        <mxCell id="sneEUQHFN991EdI4Ddz8-103" value="checkSuperUser(successCb,failCb)  // 检测是否为super用户" style="text;strokeColor=none;fillColor=none;spacingLeft=4;spacingRight=4;overflow=hidden;rotatable=0;points=[[0,0.5],[1,0.5]];portConstraint=eastwest;fontSize=12;" vertex="1" parent="sneEUQHFN991EdI4Ddz8-100">
          <mxGeometry y="86" width="370" height="30" as="geometry" />
        </mxCell>
        <mxCell id="sneEUQHFN991EdI4Ddz8-104" value="" style="endArrow=classic;html=1;exitX=1;exitY=0.5;exitDx=0;exitDy=0;entryX=0;entryY=0;entryDx=0;entryDy=0;" edge="1" parent="1" source="sneEUQHFN991EdI4Ddz8-98" target="sneEUQHFN991EdI4Ddz8-100">
          <mxGeometry width="50" height="50" relative="1" as="geometry">
            <mxPoint x="-6845" y="-7733" as="sourcePoint" />
            <mxPoint x="-6795" y="-7783" as="targetPoint" />
          </mxGeometry>
        </mxCell>
        <mxCell id="sneEUQHFN991EdI4Ddz8-105" value="" style="endArrow=classic;html=1;exitX=1;exitY=0.5;exitDx=0;exitDy=0;" edge="1" parent="1" source="sneEUQHFN991EdI4Ddz8-99" target="sneEUQHFN991EdI4Ddz8-106">
          <mxGeometry width="50" height="50" relative="1" as="geometry">
            <mxPoint x="-6755" y="-7733" as="sourcePoint" />
            <mxPoint x="-6725" y="-7723" as="targetPoint" />
          </mxGeometry>
        </mxCell>
        <mxCell id="sneEUQHFN991EdI4Ddz8-106" value="request.js" style="swimlane;fontStyle=0;childLayout=stackLayout;horizontal=1;startSize=26;horizontalStack=0;resizeParent=1;resizeParentMax=0;resizeLast=0;collapsible=1;marginBottom=0;align=center;fontSize=14;" vertex="1" parent="1">
          <mxGeometry x="-7040" y="-7826" width="360" height="236" as="geometry" />
        </mxCell>
        <mxCell id="sneEUQHFN991EdI4Ddz8-107" value="该组件用来进行网络请求" style="text;strokeColor=none;fillColor=none;spacingLeft=4;spacingRight=4;overflow=hidden;rotatable=0;points=[[0,0.5],[1,0.5]];portConstraint=eastwest;fontSize=12;" vertex="1" parent="sneEUQHFN991EdI4Ddz8-106">
          <mxGeometry y="26" width="360" height="30" as="geometry" />
        </mxCell>
        <mxCell id="sneEUQHFN991EdI4Ddz8-108" value="register(routeName,apis)  // 注册接口信息" style="text;strokeColor=none;fillColor=none;spacingLeft=4;spacingRight=4;overflow=hidden;rotatable=0;points=[[0,0.5],[1,0.5]];portConstraint=eastwest;fontSize=12;" vertex="1" parent="sneEUQHFN991EdI4Ddz8-106">
          <mxGeometry y="56" width="360" height="30" as="geometry" />
        </mxCell>
        <mxCell id="sneEUQHFN991EdI4Ddz8-109" value="ajax(api,cfg)  // ajax发起 Promise 请求" style="text;strokeColor=none;fillColor=none;spacingLeft=4;spacingRight=4;overflow=hidden;rotatable=0;points=[[0,0.5],[1,0.5]];portConstraint=eastwest;fontSize=12;" vertex="1" parent="sneEUQHFN991EdI4Ddz8-106">
          <mxGeometry y="86" width="360" height="30" as="geometry" />
        </mxCell>
        <mxCell id="sneEUQHFN991EdI4Ddz8-110" value="get(api,data,note)  // ajax 发起get请求" style="text;strokeColor=none;fillColor=none;spacingLeft=4;spacingRight=4;overflow=hidden;rotatable=0;points=[[0,0.5],[1,0.5]];portConstraint=eastwest;fontSize=12;" vertex="1" parent="sneEUQHFN991EdI4Ddz8-106">
          <mxGeometry y="116" width="360" height="30" as="geometry" />
        </mxCell>
        <mxCell id="sneEUQHFN991EdI4Ddz8-111" value="post(api,data,note)  // Ajax发起post请求" style="text;strokeColor=none;fillColor=none;spacingLeft=4;spacingRight=4;overflow=hidden;rotatable=0;points=[[0,0.5],[1,0.5]];portConstraint=eastwest;fontSize=12;" vertex="1" parent="sneEUQHFN991EdI4Ddz8-106">
          <mxGeometry y="146" width="360" height="30" as="geometry" />
        </mxCell>
        <mxCell id="sneEUQHFN991EdI4Ddz8-112" value="isValidRequest(routeName,id)  // 判断一个请求是否失效" style="text;strokeColor=none;fillColor=none;spacingLeft=4;spacingRight=4;overflow=hidden;rotatable=0;points=[[0,0.5],[1,0.5]];portConstraint=eastwest;fontSize=12;" vertex="1" parent="sneEUQHFN991EdI4Ddz8-106">
          <mxGeometry y="176" width="360" height="30" as="geometry" />
        </mxCell>
        <mxCell id="sneEUQHFN991EdI4Ddz8-113" value="clearPool:function(routeName=&quot;&quot;,id=&quot;&quot;)  // 清空请求池" style="text;strokeColor=none;fillColor=none;spacingLeft=4;spacingRight=4;overflow=hidden;rotatable=0;points=[[0,0.5],[1,0.5]];portConstraint=eastwest;fontSize=12;" vertex="1" parent="sneEUQHFN991EdI4Ddz8-106">
          <mxGeometry y="206" width="360" height="30" as="geometry" />
        </mxCell>
        <mxCell id="sneEUQHFN991EdI4Ddz8-114" value="" style="endArrow=classic;html=1;exitX=1;exitY=0.5;exitDx=0;exitDy=0;" edge="1" parent="1" source="sneEUQHFN991EdI4Ddz8-146">
          <mxGeometry width="50" height="50" relative="1" as="geometry">
            <mxPoint x="-9550" y="-9190" as="sourcePoint" />
            <mxPoint x="-7360" y="-7940" as="targetPoint" />
            <Array as="points">
              <mxPoint x="-8190" y="-8120" />
              <mxPoint x="-7540" y="-8110" />
              <mxPoint x="-7540" y="-7940" />
            </Array>
          </mxGeometry>
        </mxCell>
        <mxCell id="sneEUQHFN991EdI4Ddz8-117" value="dialog.js" style="swimlane;fontStyle=0;childLayout=stackLayout;horizontal=1;startSize=26;horizontalStack=0;resizeParent=1;resizeParentMax=0;resizeLast=0;collapsible=1;marginBottom=0;align=center;fontSize=14;" vertex="1" parent="1">
          <mxGeometry x="-7050" y="-8970" width="320" height="260" as="geometry" />
        </mxCell>
        <mxCell id="sneEUQHFN991EdI4Ddz8-118" value="state&#xa;        isShow:false,//是否显示&#xa;        type:&quot;alert&quot;,//或者alert&#xa;        content:&quot;&quot;,&#xa;        title:&quot;系统消息&quot;,&#xa;        onConfirm:null,&#xa;        onCancel:null" style="text;strokeColor=none;fillColor=none;spacingLeft=4;spacingRight=4;overflow=hidden;rotatable=0;points=[[0,0.5],[1,0.5]];portConstraint=eastwest;fontSize=12;" vertex="1" parent="sneEUQHFN991EdI4Ddz8-117">
          <mxGeometry y="26" width="320" height="114" as="geometry" />
        </mxCell>
        <mxCell id="sneEUQHFN991EdI4Ddz8-119" value="mutations&#xa;        showDialog(state,payload)&#xa;        hideDialog(state,payload)" style="text;strokeColor=none;fillColor=none;spacingLeft=4;spacingRight=4;overflow=hidden;rotatable=0;points=[[0,0.5],[1,0.5]];portConstraint=eastwest;fontSize=12;" vertex="1" parent="sneEUQHFN991EdI4Ddz8-117">
          <mxGeometry y="140" width="320" height="60" as="geometry" />
        </mxCell>
        <mxCell id="sneEUQHFN991EdI4Ddz8-120" value="actions&#xa;        hideDialog({commit})" style="text;strokeColor=none;fillColor=none;spacingLeft=4;spacingRight=4;overflow=hidden;rotatable=0;points=[[0,0.5],[1,0.5]];portConstraint=eastwest;fontSize=12;" vertex="1" parent="sneEUQHFN991EdI4Ddz8-117">
          <mxGeometry y="200" width="320" height="60" as="geometry" />
        </mxCell>
        <mxCell id="sneEUQHFN991EdI4Ddz8-121" value="floatmenu" style="swimlane;fontStyle=0;childLayout=stackLayout;horizontal=1;startSize=26;horizontalStack=0;resizeParent=1;resizeParentMax=0;resizeLast=0;collapsible=1;marginBottom=0;align=center;fontSize=14;" vertex="1" parent="1">
          <mxGeometry x="-7050" y="-8680" width="320" height="190" as="geometry" />
        </mxCell>
        <mxCell id="sneEUQHFN991EdI4Ddz8-122" value="state&#xa;        isShow:false,&#xa;        userInfo:null" style="text;strokeColor=none;fillColor=none;spacingLeft=4;spacingRight=4;overflow=hidden;rotatable=0;points=[[0,0.5],[1,0.5]];portConstraint=eastwest;fontSize=12;" vertex="1" parent="sneEUQHFN991EdI4Ddz8-121">
          <mxGeometry y="26" width="320" height="54" as="geometry" />
        </mxCell>
        <mxCell id="sneEUQHFN991EdI4Ddz8-123" value="mutations&#xa;        operateFloatMenu(state,payload)&#xa;        setUserInfo(state,payload)" style="text;strokeColor=none;fillColor=none;spacingLeft=4;spacingRight=4;overflow=hidden;rotatable=0;points=[[0,0.5],[1,0.5]];portConstraint=eastwest;fontSize=12;" vertex="1" parent="sneEUQHFN991EdI4Ddz8-121">
          <mxGeometry y="80" width="320" height="50" as="geometry" />
        </mxCell>
        <mxCell id="sneEUQHFN991EdI4Ddz8-124" value="actions&#xa;        showFloatMenu({commit})&#xa;        hideFloatMenu({commit})" style="text;strokeColor=none;fillColor=none;spacingLeft=4;spacingRight=4;overflow=hidden;rotatable=0;points=[[0,0.5],[1,0.5]];portConstraint=eastwest;fontSize=12;" vertex="1" parent="sneEUQHFN991EdI4Ddz8-121">
          <mxGeometry y="130" width="320" height="60" as="geometry" />
        </mxCell>
        <mxCell id="sneEUQHFN991EdI4Ddz8-125" value="loading.js" style="swimlane;fontStyle=0;childLayout=stackLayout;horizontal=1;startSize=26;horizontalStack=0;resizeParent=1;resizeParentMax=0;resizeLast=0;collapsible=1;marginBottom=0;align=center;fontSize=14;" vertex="1" parent="1">
          <mxGeometry x="-7050" y="-8460" width="320" height="170" as="geometry" />
        </mxCell>
        <mxCell id="sneEUQHFN991EdI4Ddz8-126" value="state&#xa;        isShow:false,&#xa;        text:&quot;&quot;,&#xa;        count:0," style="text;strokeColor=none;fillColor=none;spacingLeft=4;spacingRight=4;overflow=hidden;rotatable=0;points=[[0,0.5],[1,0.5]];portConstraint=eastwest;fontSize=12;" vertex="1" parent="sneEUQHFN991EdI4Ddz8-125">
          <mxGeometry y="26" width="320" height="74" as="geometry" />
        </mxCell>
        <mxCell id="sneEUQHFN991EdI4Ddz8-127" value="mutations&#xa;        operateFloatMenu(state,payload)&#xa;        setUserInfo(state,payload)" style="text;strokeColor=none;fillColor=none;spacingLeft=4;spacingRight=4;overflow=hidden;rotatable=0;points=[[0,0.5],[1,0.5]];portConstraint=eastwest;fontSize=12;" vertex="1" parent="sneEUQHFN991EdI4Ddz8-125">
          <mxGeometry y="100" width="320" height="70" as="geometry" />
        </mxCell>
        <mxCell id="sneEUQHFN991EdI4Ddz8-131" value="topbar.js" style="swimlane;fontStyle=0;childLayout=stackLayout;horizontal=1;startSize=26;horizontalStack=0;resizeParent=1;resizeParentMax=0;resizeLast=0;collapsible=1;marginBottom=0;align=center;fontSize=14;" vertex="1" parent="1">
          <mxGeometry x="-7050" y="-8250" width="320" height="134" as="geometry" />
        </mxCell>
        <mxCell id="sneEUQHFN991EdI4Ddz8-132" value="state&#xa;        title:&quot;首页&quot;" style="text;strokeColor=none;fillColor=none;spacingLeft=4;spacingRight=4;overflow=hidden;rotatable=0;points=[[0,0.5],[1,0.5]];portConstraint=eastwest;fontSize=12;" vertex="1" parent="sneEUQHFN991EdI4Ddz8-131">
          <mxGeometry y="26" width="320" height="54" as="geometry" />
        </mxCell>
        <mxCell id="sneEUQHFN991EdI4Ddz8-135" value="mutations&#xa;        setTitle(state,payload)" style="text;strokeColor=none;fillColor=none;spacingLeft=4;spacingRight=4;overflow=hidden;rotatable=0;points=[[0,0.5],[1,0.5]];portConstraint=eastwest;fontSize=12;" vertex="1" parent="sneEUQHFN991EdI4Ddz8-131">
          <mxGeometry y="80" width="320" height="54" as="geometry" />
        </mxCell>
        <mxCell id="sneEUQHFN991EdI4Ddz8-136" value="" style="endArrow=classic;html=1;exitX=1;exitY=0.5;exitDx=0;exitDy=0;entryX=-0.013;entryY=0.045;entryDx=0;entryDy=0;entryPerimeter=0;" edge="1" parent="1" source="sneEUQHFN991EdI4Ddz8-73" target="sneEUQHFN991EdI4Ddz8-117">
          <mxGeometry width="50" height="50" relative="1" as="geometry">
            <mxPoint x="-7180" y="-8370" as="sourcePoint" />
            <mxPoint x="-7090" y="-8390" as="targetPoint" />
          </mxGeometry>
        </mxCell>
        <mxCell id="sneEUQHFN991EdI4Ddz8-137" value="" style="endArrow=classic;html=1;exitX=1;exitY=0.5;exitDx=0;exitDy=0;entryX=-0.016;entryY=0.06;entryDx=0;entryDy=0;entryPerimeter=0;" edge="1" parent="1" source="sneEUQHFN991EdI4Ddz8-74" target="sneEUQHFN991EdI4Ddz8-121">
          <mxGeometry width="50" height="50" relative="1" as="geometry">
            <mxPoint x="-7130" y="-8280" as="sourcePoint" />
            <mxPoint x="-7080" y="-8330" as="targetPoint" />
          </mxGeometry>
        </mxCell>
        <mxCell id="sneEUQHFN991EdI4Ddz8-138" value="" style="endArrow=classic;html=1;exitX=1;exitY=0.5;exitDx=0;exitDy=0;entryX=-0.001;entryY=0.072;entryDx=0;entryDy=0;entryPerimeter=0;" edge="1" parent="1" source="sneEUQHFN991EdI4Ddz8-76" target="sneEUQHFN991EdI4Ddz8-125">
          <mxGeometry width="50" height="50" relative="1" as="geometry">
            <mxPoint x="-7130" y="-8220" as="sourcePoint" />
            <mxPoint x="-7080" y="-8270" as="targetPoint" />
          </mxGeometry>
        </mxCell>
        <mxCell id="sneEUQHFN991EdI4Ddz8-139" value="" style="endArrow=classic;html=1;exitX=1;exitY=0.5;exitDx=0;exitDy=0;entryX=-0.007;entryY=0.102;entryDx=0;entryDy=0;entryPerimeter=0;" edge="1" parent="1" source="sneEUQHFN991EdI4Ddz8-77" target="sneEUQHFN991EdI4Ddz8-131">
          <mxGeometry width="50" height="50" relative="1" as="geometry">
            <mxPoint x="-7120" y="-8190" as="sourcePoint" />
            <mxPoint x="-7070" y="-8240" as="targetPoint" />
          </mxGeometry>
        </mxCell>
        <mxCell id="sneEUQHFN991EdI4Ddz8-141" value="amsMobileAdminProj" style="swimlane;fontStyle=1;childLayout=stackLayout;horizontal=1;startSize=26;horizontalStack=0;resizeParent=1;resizeParentMax=0;resizeLast=0;collapsible=1;marginBottom=0;align=center;fontSize=14;fillColor=#f8cecc;strokeColor=#b85450;strokeWidth=1;" vertex="1" parent="1">
          <mxGeometry x="-9470" y="-8290" width="160" height="266" as="geometry" />
        </mxCell>
        <mxCell id="sneEUQHFN991EdI4Ddz8-142" value="out" style="text;strokeColor=none;fillColor=none;spacingLeft=4;spacingRight=4;overflow=hidden;rotatable=0;points=[[0,0.5],[1,0.5]];portConstraint=eastwest;fontSize=12;strokeWidth=1;fontStyle=0" vertex="1" parent="sneEUQHFN991EdI4Ddz8-141">
          <mxGeometry y="26" width="160" height="30" as="geometry" />
        </mxCell>
        <mxCell id="sneEUQHFN991EdI4Ddz8-143" value="components" style="text;strokeColor=none;fillColor=none;spacingLeft=4;spacingRight=4;overflow=hidden;rotatable=0;points=[[0,0.5],[1,0.5]];portConstraint=eastwest;fontSize=12;strokeWidth=1;fontStyle=0" vertex="1" parent="sneEUQHFN991EdI4Ddz8-141">
          <mxGeometry y="56" width="160" height="30" as="geometry" />
        </mxCell>
        <mxCell id="sneEUQHFN991EdI4Ddz8-144" value="pages" style="text;strokeColor=none;fillColor=none;spacingLeft=4;spacingRight=4;overflow=hidden;rotatable=0;points=[[0,0.5],[1,0.5]];portConstraint=eastwest;fontSize=12;strokeWidth=1;fontStyle=0" vertex="1" parent="sneEUQHFN991EdI4Ddz8-141">
          <mxGeometry y="86" width="160" height="30" as="geometry" />
        </mxCell>
        <mxCell id="sneEUQHFN991EdI4Ddz8-145" value="store" style="text;strokeColor=none;fillColor=none;spacingLeft=4;spacingRight=4;overflow=hidden;rotatable=0;points=[[0,0.5],[1,0.5]];portConstraint=eastwest;fontSize=12;strokeWidth=1;fontStyle=0" vertex="1" parent="sneEUQHFN991EdI4Ddz8-141">
          <mxGeometry y="116" width="160" height="30" as="geometry" />
        </mxCell>
        <mxCell id="sneEUQHFN991EdI4Ddz8-146" value="utils" style="text;strokeColor=none;fillColor=none;spacingLeft=4;spacingRight=4;overflow=hidden;rotatable=0;points=[[0,0.5],[1,0.5]];portConstraint=eastwest;fontSize=12;strokeWidth=1;fontStyle=0" vertex="1" parent="sneEUQHFN991EdI4Ddz8-141">
          <mxGeometry y="146" width="160" height="30" as="geometry" />
        </mxCell>
        <mxCell id="sneEUQHFN991EdI4Ddz8-147" value="app.js" style="text;strokeColor=none;fillColor=none;spacingLeft=4;spacingRight=4;overflow=hidden;rotatable=0;points=[[0,0.5],[1,0.5]];portConstraint=eastwest;fontSize=12;strokeWidth=1;fontStyle=0" vertex="1" parent="sneEUQHFN991EdI4Ddz8-141">
          <mxGeometry y="176" width="160" height="30" as="geometry" />
        </mxCell>
        <mxCell id="sneEUQHFN991EdI4Ddz8-148" value="vue.js" style="text;strokeColor=none;fillColor=none;spacingLeft=4;spacingRight=4;overflow=hidden;rotatable=0;points=[[0,0.5],[1,0.5]];portConstraint=eastwest;fontSize=12;strokeWidth=1;fontStyle=0" vertex="1" parent="sneEUQHFN991EdI4Ddz8-141">
          <mxGeometry y="206" width="160" height="30" as="geometry" />
        </mxCell>
        <mxCell id="sneEUQHFN991EdI4Ddz8-149" value="routes.js" style="text;strokeColor=none;fillColor=none;spacingLeft=4;spacingRight=4;overflow=hidden;rotatable=0;points=[[0,0.5],[1,0.5]];portConstraint=eastwest;fontSize=12;strokeWidth=1;fontStyle=0" vertex="1" parent="sneEUQHFN991EdI4Ddz8-141">
          <mxGeometry y="236" width="160" height="30" as="geometry" />
        </mxCell>
        <mxCell id="sneEUQHFN991EdI4Ddz8-151" value="" style="endArrow=classic;html=1;entryX=0;entryY=0.085;entryDx=0;entryDy=0;entryPerimeter=0;exitX=1;exitY=0.5;exitDx=0;exitDy=0;" edge="1" parent="1" source="sneEUQHFN991EdI4Ddz8-145" target="sneEUQHFN991EdI4Ddz8-70">
          <mxGeometry width="50" height="50" relative="1" as="geometry">
            <mxPoint x="-9560" y="-9320" as="sourcePoint" />
            <mxPoint x="-9190" y="-9330" as="targetPoint" />
            <Array as="points">
              <mxPoint x="-8170" y="-8170" />
              <mxPoint x="-7540" y="-8170" />
              <mxPoint x="-7540" y="-8540" />
            </Array>
          </mxGeometry>
        </mxCell>
      </root>
    </mxGraphModel>
  </diagram>
</mxfile>
